<?xml version="1.0" encoding="UTF-8"?>
<svg version="1.1" xmlns="http://www.w3.org/2000/svg" width="500" height="174">
<path d="M0 0 C0.75152344 -0.03738281 1.50304687 -0.07476562 2.27734375 -0.11328125 C3.01597656 -0.12488281 3.75460937 -0.13648438 4.515625 -0.1484375 C5.51770996 -0.1781665 5.51770996 -0.1781665 6.54003906 -0.20849609 C12.46320637 1.35539806 15.85069777 6.58353809 18.8359375 11.55078125 C19.18258453 12.12080368 19.52923157 12.69082611 19.88638306 13.27812195 C20.97615869 15.0753004 22.0507226 16.88102409 23.125 18.6875 C23.86749623 19.91791769 24.61097751 21.14774153 25.35546875 22.37695312 C27.16506879 25.36953137 28.96115552 28.36995749 30.75 31.375 C30.7593457 30.67938965 30.76869141 29.9837793 30.77832031 29.26708984 C30.83223546 26.094025 30.91584173 22.9224009 31 19.75 C31.01417969 18.65558594 31.02835937 17.56117187 31.04296875 16.43359375 C31.23218168 10.18956694 31.47387173 6.08517136 35.75 1.375 C39.46710563 -0.48355282 43.70277281 -0.20408439 47.75 0.375 C51.09625024 2.90176039 52.42977847 4.41433542 53.75 8.375 C53.8541017 10.41846529 53.89860547 12.46515358 53.91113281 14.51123047 C53.92074036 15.77619354 53.9303479 17.04115662 53.94024658 18.3444519 C53.9450945 19.7270286 53.94937335 21.10960739 53.953125 22.4921875 C53.95887891 23.91081748 53.96463661 25.32944744 53.97039795 26.74807739 C53.98089889 29.72219199 53.98674753 32.69627963 53.99023438 35.67041016 C53.99571822 39.47579289 54.01974732 43.28081767 54.04820633 47.08608818 C54.06685715 50.01666292 54.07203959 52.94715184 54.07357025 55.87778091 C54.07659165 57.280376 54.08460292 58.68296976 54.09775543 60.08550644 C54.11486554 62.05025875 54.11108369 64.01515913 54.10644531 65.97998047 C54.11191376 67.65518265 54.11191376 67.65518265 54.11749268 69.36422729 C53.60555086 73.55843458 51.95587624 76.16912376 49 79.125 C45.16123873 81.25764515 41.48407076 81.71335527 37.1875 80.875 C30.04537706 76.47984742 25.96838646 68.13834415 21.8125 61.125 C20.63786565 59.16077202 19.46208624 57.19722834 18.28515625 55.234375 C17.71039551 54.27466797 17.13563477 53.31496094 16.54345703 52.32617188 C13.68803012 47.62750587 10.72579239 42.99809592 7.75 38.375 C7.73541748 39.37877686 7.72083496 40.38255371 7.70581055 41.41674805 C7.64767948 45.1537575 7.57044835 48.89017369 7.48754883 52.62670898 C7.4543689 54.24151963 7.42631542 55.85644431 7.40356445 57.47143555 C7.36988975 59.79785592 7.31757037 62.12323783 7.26171875 64.44921875 C7.25213387 65.52607185 7.25213387 65.52607185 7.24235535 66.62467957 C7.0846306 72.04570048 5.69934102 75.20073502 2.125 79.1875 C-1.61422346 81.05711173 -5.15888622 81.01788931 -9.25 80.375 C-12.75681312 78.50967387 -13.92026294 77.21859419 -15.36230469 73.52929688 C-16.83274869 67.95366781 -16.53511851 62.19247082 -16.515625 56.46875 C-16.51753845 55.23008179 -16.5194519 53.99141357 -16.52142334 52.71520996 C-16.52312739 49.4365121 -16.51511778 46.15800594 -16.50390625 42.8793335 C-16.50000329 40.87668804 -16.50389411 38.87421786 -16.51074219 36.87158203 C-16.52312376 33.00805596 -16.52159326 29.14478701 -16.515625 25.28125 C-16.51967346 24.09253296 -16.52372192 22.90381592 -16.52789307 21.67907715 C-16.45069608 7.98832659 -16.45069608 7.98832659 -12.25 3 C-8.39368855 -0.13325305 -4.78767376 0.08851162 0 0 Z M-7.25 2.375 C-7.25 2.705 -7.25 3.035 -7.25 3.375 C-5.27 3.375 -3.29 3.375 -1.25 3.375 C-1.25 3.045 -1.25 2.715 -1.25 2.375 C-3.23 2.375 -5.21 2.375 -7.25 2.375 Z M1.75 2.375 C1.75 2.705 1.75 3.035 1.75 3.375 C3.73 3.375 5.71 3.375 7.75 3.375 C7.75 3.045 7.75 2.715 7.75 2.375 C5.77 2.375 3.79 2.375 1.75 2.375 Z M39.75 2.375 C39.75 2.705 39.75 3.035 39.75 3.375 C41.73 3.375 43.71 3.375 45.75 3.375 C45.75 3.045 45.75 2.715 45.75 2.375 C43.77 2.375 41.79 2.375 39.75 2.375 Z M41.75 4.375 C41.5263932 7.3004644 41.5263932 7.3004644 42.75 9.375 C41.76 9.705 40.77 10.035 39.75 10.375 C41.07 10.705 42.39 11.035 43.75 11.375 C43.74777939 12.04263367 43.74555878 12.71026733 43.74327087 13.39813232 C43.72116356 20.34093695 43.70607056 27.28373158 43.69506836 34.2265625 C43.69003668 36.81836351 43.68321073 39.41016167 43.67456055 42.00195312 C43.66244409 45.72526755 43.65676005 49.44854447 43.65234375 53.171875 C43.64718246 54.33241394 43.64202118 55.49295288 43.63670349 56.68865967 C43.63662796 57.76947815 43.63655243 58.85029663 43.63647461 59.96386719 C43.634254 60.91428894 43.63203339 61.86471069 43.62974548 62.84393311 C43.7403901 65.17273487 44.08917863 67.14707276 44.75 69.375 C44.09 69.375 43.43 69.375 42.75 69.375 C43.41 71.025 44.07 72.675 44.75 74.375 C46.235 73.88 46.235 73.88 47.75 73.375 C49.10144654 70.67210692 48.86975165 68.57430194 48.86352539 65.54833984 C48.86344986 64.32722504 48.86337433 63.10611023 48.86329651 61.84799194 C48.85818952 60.51064005 48.85297352 59.17328857 48.84765625 57.8359375 C48.8457914 56.47116141 48.84436781 55.10638466 48.84336853 53.74160767 C48.83954863 50.14784907 48.82972283 46.55413083 48.81866455 42.96038818 C48.80843911 39.29391018 48.80386848 35.62742565 48.79882812 31.9609375 C48.7881001 24.76560659 48.77102999 17.57030895 48.75 10.375 C49.41 10.375 50.07 10.375 50.75 10.375 C50.75 30.505 50.75 50.635 50.75 71.375 C51.08 71.375 51.41 71.375 51.75 71.375 C51.79635629 63.36030167 51.83188589 55.34565943 51.85362434 47.33086014 C51.86405811 43.6091971 51.87820982 39.88762584 51.90087891 36.16601562 C51.9226219 32.57393238 51.93457169 28.98193737 51.93975449 25.3897934 C51.94344764 24.01987062 51.95065945 22.64995262 51.96146011 21.28006744 C51.97599349 19.36026221 51.97681708 17.44036804 51.97705078 15.52050781 C51.981492 14.42796692 51.98593323 13.33542603 51.99050903 12.20977783 C51.75222033 9.40117009 51.20414413 7.75858455 49.75 5.375 C49.42 6.035 49.09 6.695 48.75 7.375 C47.574375 6.6325 47.574375 6.6325 46.375 5.875 C43.96447673 4.20962035 43.96447673 4.20962035 41.75 4.375 Z M7.75 3.375 C7.75 4.035 7.75 4.695 7.75 5.375 C3.46 5.375 -0.83 5.375 -5.25 5.375 C-4.92 6.695 -4.59 8.015 -4.25 9.375 C-5.57 9.705 -6.89 10.035 -8.25 10.375 C-7.59 10.375 -6.93 10.375 -6.25 10.375 C-6.25 25.885 -6.25 41.395 -6.25 57.375 C-5.92 57.375 -5.59 57.375 -5.25 57.375 C-4.92 47.805 -4.59 38.235 -4.25 28.375 C-1.25 30.375 -1.25 30.375 -0.80859375 32.28515625 C-0.76863281 32.99542969 -0.72867187 33.70570312 -0.6875 34.4375 C-0.543125 35.736875 -0.39875 37.03625 -0.25 38.375 C0.41 38.705 1.07 39.035 1.75 39.375 C3.40372137 34.51111361 3.94756138 31.36483908 2.75 26.375 C2.62496094 25.63765625 2.49992187 24.9003125 2.37109375 24.140625 C1.48899681 19.2771716 0.65754492 16.65229574 -3.25 13.375 C-3.58 12.385 -3.91 11.395 -4.25 10.375 C-0.95 10.705 2.35 11.035 5.75 11.375 C6.10191406 12.38820313 6.10191406 12.38820313 6.4609375 13.421875 C8.06021915 17.08568387 10.17290547 20.30592409 12.375 23.625 C13.35754358 25.12449394 14.33926012 26.62453001 15.3203125 28.125 C15.86075195 28.95 16.40119141 29.775 16.95800781 30.625 C20.42017176 35.93805377 23.83253999 41.28313752 27.25 46.625 C27.94432129 47.70813477 28.63864258 48.79126953 29.35400391 49.90722656 C30.01062012 50.93299805 30.66723633 51.95876953 31.34375 53.015625 C31.92833984 53.92860352 32.51292969 54.84158203 33.11523438 55.78222656 C34.69768509 58.29202743 36.23385589 60.82470296 37.75 63.375 C38.41 63.045 39.07 62.715 39.75 62.375 C39.255 60.395 39.255 60.395 38.75 58.375 C38.09 58.375 37.43 58.375 36.75 58.375 C36.8325 57.240625 36.915 56.10625 37 54.9375 C37 48.77875971 34.64837708 43.49033446 30.5625 38.9375 C29.964375 38.421875 29.36625 37.90625 28.75 37.375 C28.42 36.715 28.09 36.055 27.75 35.375 C29.4 35.705 31.05 36.035 32.75 36.375 C33.245 35.385 33.245 35.385 33.75 34.375 C32.85244995 34.25499634 32.85244995 34.25499634 31.93676758 34.13256836 C29.03138424 33.12604782 28.37499617 31.84323415 26.76171875 29.25390625 C26.22329346 28.40473633 25.68486816 27.55556641 25.13012695 26.68066406 C24.57156006 25.77541992 24.01299316 24.87017578 23.4375 23.9375 C22.27969245 22.11001358 21.12084837 20.28318341 19.9609375 18.45703125 C19.13094238 17.13952881 19.13094238 17.13952881 18.28417969 15.79541016 C16.42781366 12.86670029 14.52394739 9.98440959 12.5625 7.125 C12.05332031 6.37734375 11.54414063 5.6296875 11.01953125 4.859375 C10.60058594 4.36953125 10.18164062 3.8796875 9.75 3.375 C9.09 3.375 8.43 3.375 7.75 3.375 Z M-9.25 7.375 C-8.25 9.375 -8.25 9.375 -8.25 9.375 Z M-13.25 8.375 C-13.25 29.495 -13.25 50.615 -13.25 72.375 C-12.92 72.375 -12.59 72.375 -12.25 72.375 C-12.25 51.255 -12.25 30.135 -12.25 8.375 C-12.58 8.375 -12.91 8.375 -13.25 8.375 Z M33.75 16.375 C33.75 22.315 33.75 28.255 33.75 34.375 C34.08 34.375 34.41 34.375 34.75 34.375 C34.75 28.435 34.75 22.495 34.75 16.375 C34.42 16.375 34.09 16.375 33.75 16.375 Z M4.75 33.375 C3.35476145 34.54248999 3.35476145 34.54248999 3.63647461 37.79321289 C3.63663372 39.31136988 3.64232774 40.82953229 3.65234375 42.34765625 C3.6537587 43.14529892 3.65517365 43.94294159 3.65663147 44.76475525 C3.66224684 47.32237435 3.67480188 49.87990718 3.6875 52.4375 C3.69251302 54.16731645 3.69707627 55.89713426 3.70117188 57.62695312 C3.71222125 61.87633553 3.72949614 66.12565312 3.75 70.375 C4.08 70.375 4.41 70.375 4.75 70.375 C4.76458252 69.32521973 4.77916504 68.27543945 4.79418945 67.19384766 C4.85207993 63.30596526 4.92931206 59.41866774 5.01245117 55.53125 C5.04574435 53.84742715 5.07376256 52.16349152 5.09643555 50.47949219 C5.12990205 48.06135914 5.18221036 45.64426376 5.23828125 43.2265625 C5.24467117 42.4713028 5.2510611 41.71604309 5.25764465 40.93789673 C5.31762695 38.81494141 5.31762695 38.81494141 5.75 35.375 C6.74 34.715 7.73 34.055 8.75 33.375 C7.43 33.375 6.11 33.375 4.75 33.375 Z M-3.25 35.375 C-3.25 46.595 -3.25 57.815 -3.25 69.375 C-1.6 69.375 0.05 69.375 1.75 69.375 C1.75 61.125 1.75 52.875 1.75 44.375 C1.42 45.035 1.09 45.695 0.75 46.375 C-0.24 46.375 -1.23 46.375 -2.25 46.375 C-2.25 42.745 -2.25 39.115 -2.25 35.375 C-2.58 35.375 -2.91 35.375 -3.25 35.375 Z M9.75 35.375 C10.75 37.375 10.75 37.375 10.75 37.375 Z M32.75 38.375 C33.75 40.375 33.75 40.375 33.75 40.375 Z M12.75 40.375 C13.75 42.375 13.75 42.375 13.75 42.375 Z M34.75 41.375 C35.75 43.375 35.75 43.375 35.75 43.375 Z M14.75 43.375 C15.75 45.375 15.75 45.375 15.75 45.375 Z M16.75 46.375 C17.75 48.375 17.75 48.375 17.75 48.375 Z M17.75 48.375 C18.75 50.375 18.75 50.375 18.75 50.375 Z M19.75 51.375 C20.75 53.375 20.75 53.375 20.75 53.375 Z M21.75 54.375 C22.75 56.375 22.75 56.375 22.75 56.375 Z M22.75 56.375 C23.75 58.375 23.75 58.375 23.75 58.375 Z M-10.25 58.375 C-9.25 60.375 -9.25 60.375 -9.25 60.375 Z M24.75 59.375 C25.75 61.375 25.75 61.375 25.75 61.375 Z M-6.25 60.375 C-6.435625 61.5815625 -6.435625 61.5815625 -6.625 62.8125 C-6.83125 63.658125 -7.0375 64.50375 -7.25 65.375 C-8.24 65.87 -8.24 65.87 -9.25 66.375 C-9.58 64.725 -9.91 63.075 -10.25 61.375 C-10.58 61.375 -10.91 61.375 -11.25 61.375 C-11.146875 62.65375 -11.04375 63.9325 -10.9375 65.25 C-10.87949219 65.96929687 -10.82148438 66.68859375 -10.76171875 67.4296875 C-10.37606964 69.77019216 -10.37606964 69.77019216 -7.25 71.375 C-5.19074319 68.28611478 -5.0109626 67.66564073 -5.125 64.1875 C-5.186875 62.3003125 -5.186875 62.3003125 -5.25 60.375 C-5.58 60.375 -5.91 60.375 -6.25 60.375 Z M26.75 62.375 C27.75 64.375 27.75 64.375 27.75 64.375 Z M27.75 64.375 C28.75 66.375 28.75 66.375 28.75 66.375 Z M37.75 65.375 C38.75 67.375 38.75 67.375 38.75 67.375 Z M29.75 67.375 C30.75 69.375 30.75 69.375 30.75 69.375 Z M31.75 70.375 C32.75 72.375 32.75 72.375 32.75 72.375 Z M-3.25 71.375 C-3.25 72.035 -3.25 72.695 -3.25 73.375 C-2.59 73.045 -1.93 72.715 -1.25 72.375 C-1.91 72.045 -2.57 71.715 -3.25 71.375 Z M49.75 71.375 C50.75 73.375 50.75 73.375 50.75 73.375 Z M2.75 72.375 C3.75 74.375 3.75 74.375 3.75 74.375 Z M33.75 73.375 C34.75 75.375 34.75 75.375 34.75 75.375 Z M48.75 73.375 C49.75 75.375 49.75 75.375 49.75 75.375 Z M-11.25 74.375 C-10.25 76.375 -10.25 76.375 -10.25 76.375 Z " fill="#020202" transform="translate(415.25,49.625)"/>
<path d="M0 0 C1.38764053 -0.00287018 1.38764053 -0.00287018 2.80331421 -0.00579834 C4.74452998 -0.00715032 6.68575509 -0.00352344 8.62695312 0.00488281 C11.5848428 0.01562103 14.54212862 0.00494117 17.5 -0.0078125 C19.39583466 -0.00649121 21.29166895 -0.00392944 23.1875 0 C24.50181503 -0.00607269 24.50181503 -0.00607269 25.84268188 -0.01226807 C31.97375207 0.03422726 37.63940937 0.18220232 42.3984375 4.453125 C44.69492957 8.58681072 44.58783747 12.0087851 43.3359375 16.515625 C40.52934604 20.08765049 36.6794165 21.16485332 32.3125 21.77734375 C30.46785156 21.86435547 30.46785156 21.86435547 28.5859375 21.953125 C26.71808594 22.05173828 26.71808594 22.05173828 24.8125 22.15234375 C23.40097656 22.20841797 23.40097656 22.20841797 21.9609375 22.265625 C21.95951248 22.91628937 21.95808746 23.56695374 21.95661926 24.23733521 C21.93691015 31.01867658 21.88260972 37.7991193 21.80834961 44.58007812 C21.78517389 47.1096349 21.77077493 49.63928812 21.76538086 52.16894531 C21.75608885 55.80855378 21.7150882 59.44664621 21.66796875 63.0859375 C21.67386772 64.77845139 21.67386772 64.77845139 21.67988586 66.50515747 C21.5173834 75.27962412 21.5173834 75.27962412 18.54174805 78.96435547 C14.54638172 82.52696288 12.28727589 82.54112526 6.9609375 82.265625 C4.7109375 81.265625 4.7109375 81.265625 2.9609375 80.265625 C1.9709375 80.265625 0.9809375 80.265625 -0.0390625 80.265625 C-3.32777049 76.2890638 -3.44208213 72.5055868 -3.33203125 67.55859375 C-3.32778641 66.83319901 -3.32354156 66.10780426 -3.31916809 65.36042786 C-3.30245793 63.05760609 -3.2648221 60.75567947 -3.2265625 58.453125 C-3.21150566 56.8860804 -3.197819 55.319022 -3.18554688 53.75195312 C-3.15257981 49.92283543 -3.10085242 46.09438166 -3.0390625 42.265625 C-2.7090625 42.265625 -2.3790625 42.265625 -2.0390625 42.265625 C-1.7090625 35.335625 -1.3790625 28.405625 -1.0390625 21.265625 C-4.3184375 21.3584375 -4.3184375 21.3584375 -7.6640625 21.453125 C-13.03509022 21.60513522 -16.41750322 21.07844903 -21.0390625 18.265625 C-23.66904728 14.91837164 -23.47249248 11.3832098 -23.0390625 7.265625 C-21.53555319 4.32397634 -20.36036333 2.72005378 -17.17300415 1.62384033 C-11.39357774 0.34791699 -5.90885377 -0.02742814 0 0 Z M-16.0390625 3.265625 C-16.0390625 3.595625 -16.0390625 3.925625 -16.0390625 4.265625 C-10.0990625 4.265625 -4.1590625 4.265625 1.9609375 4.265625 C1.9609375 3.935625 1.9609375 3.605625 1.9609375 3.265625 C-3.9790625 3.265625 -9.9190625 3.265625 -16.0390625 3.265625 Z M18.9609375 3.265625 C18.9609375 3.595625 18.9609375 3.925625 18.9609375 4.265625 C21.6009375 4.265625 24.2409375 4.265625 26.9609375 4.265625 C26.9609375 3.935625 26.9609375 3.605625 26.9609375 3.265625 C24.3209375 3.265625 21.6809375 3.265625 18.9609375 3.265625 Z M-20.0390625 6.265625 C-19.0390625 8.265625 -19.0390625 8.265625 -19.0390625 8.265625 Z M34.9609375 3.265625 C35.4559375 4.750625 35.4559375 4.750625 35.9609375 6.265625 C18.8009375 6.265625 1.6409375 6.265625 -16.0390625 6.265625 C-15.0490625 6.595625 -14.0590625 6.925625 -13.0390625 7.265625 C-13.0390625 7.925625 -13.0390625 8.585625 -13.0390625 9.265625 C-6.4390625 9.265625 0.1609375 9.265625 6.9609375 9.265625 C6.9609375 9.925625 6.9609375 10.585625 6.9609375 11.265625 C7.6209375 11.265625 8.2809375 11.265625 8.9609375 11.265625 C9.2909375 11.925625 9.6209375 12.585625 9.9609375 13.265625 C10.2909375 11.945625 10.6209375 10.625625 10.9609375 9.265625 C13.6009375 9.265625 16.2409375 9.265625 18.9609375 9.265625 C18.9609375 9.925625 18.9609375 10.585625 18.9609375 11.265625 C24.9009375 11.265625 30.8409375 11.265625 36.9609375 11.265625 C37.4559375 12.255625 37.4559375 12.255625 37.9609375 13.265625 C38.2909375 11.945625 38.6209375 10.625625 38.9609375 9.265625 C37.9709375 8.935625 36.9809375 8.605625 35.9609375 8.265625 C37.2809375 7.275625 38.6009375 6.285625 39.9609375 5.265625 C37.4859375 4.275625 37.4859375 4.275625 34.9609375 3.265625 Z M-21.0390625 8.265625 C-21.0390625 9.915625 -21.0390625 11.565625 -21.0390625 13.265625 C-20.7090625 13.265625 -20.3790625 13.265625 -20.0390625 13.265625 C-20.0390625 11.615625 -20.0390625 9.965625 -20.0390625 8.265625 C-20.3690625 8.265625 -20.6990625 8.265625 -21.0390625 8.265625 Z M14.9609375 16.265625 C14.9609375 16.925625 14.9609375 17.585625 14.9609375 18.265625 C13.6409375 18.595625 12.3209375 18.925625 10.9609375 19.265625 C10.9609375 36.755625 10.9609375 54.245625 10.9609375 72.265625 C11.2909375 71.605625 11.6209375 70.945625 11.9609375 70.265625 C13.2809375 70.265625 14.6009375 70.265625 15.9609375 70.265625 C16.2909375 52.775625 16.6209375 35.285625 16.9609375 17.265625 C16.3009375 16.935625 15.6409375 16.605625 14.9609375 16.265625 Z M-2.0390625 18.265625 C-1.3790625 18.925625 -0.7190625 19.585625 -0.0390625 20.265625 C0.2394104 22.44229126 0.2394104 22.44229126 0.27978516 25.17431641 C0.29965485 26.19522369 0.31952454 27.21613098 0.33999634 28.26797485 C0.35732315 29.92583511 0.35732315 29.92583511 0.375 31.6171875 C0.39436615 32.7463559 0.4137323 33.87552429 0.4336853 35.03890991 C0.49360819 38.65607072 0.53991752 42.27326313 0.5859375 45.890625 C0.62410555 48.33855578 0.66315658 50.78647296 0.703125 53.234375 C0.79932009 59.24467124 0.88433015 65.25504893 0.9609375 71.265625 C1.2909375 71.265625 1.6209375 71.265625 1.9609375 71.265625 C1.9609375 53.775625 1.9609375 36.285625 1.9609375 18.265625 C0.6409375 18.265625 -0.6790625 18.265625 -2.0390625 18.265625 Z M17.9609375 19.265625 C17.9609375 20.915625 17.9609375 22.565625 17.9609375 24.265625 C18.6209375 22.945625 19.2809375 21.625625 19.9609375 20.265625 C19.3009375 19.935625 18.6409375 19.605625 17.9609375 19.265625 Z M-2.0390625 57.265625 C-2.0390625 62.215625 -2.0390625 67.165625 -2.0390625 72.265625 C-1.7090625 72.265625 -1.3790625 72.265625 -1.0390625 72.265625 C-1.0390625 67.315625 -1.0390625 62.365625 -1.0390625 57.265625 C-1.3690625 57.265625 -1.6990625 57.265625 -2.0390625 57.265625 Z M5.9609375 58.265625 C5.6309375 58.925625 5.3009375 59.585625 4.9609375 60.265625 C5.6209375 60.265625 6.2809375 60.265625 6.9609375 60.265625 C6.6309375 59.605625 6.3009375 58.945625 5.9609375 58.265625 Z M3.9609375 61.265625 C3.9196875 62.52375 3.8784375 63.781875 3.8359375 65.078125 C3.81273438 65.78582031 3.78953125 66.49351563 3.765625 67.22265625 C3.82839288 69.57922219 3.82839288 69.57922219 5.9609375 72.265625 C6.9509375 71.935625 7.9409375 71.605625 8.9609375 71.265625 C8.9609375 69.615625 8.9609375 67.965625 8.9609375 66.265625 C7.9709375 66.265625 6.9809375 66.265625 5.9609375 66.265625 C5.6309375 64.615625 5.3009375 62.965625 4.9609375 61.265625 C4.6309375 61.265625 4.3009375 61.265625 3.9609375 61.265625 Z M1.9609375 72.265625 C2.2909375 73.915625 2.6209375 75.565625 2.9609375 77.265625 C3.9509375 77.265625 4.9409375 77.265625 5.9609375 77.265625 C4.6409375 75.615625 3.3209375 73.965625 1.9609375 72.265625 Z M16.9609375 74.265625 C17.9609375 76.265625 17.9609375 76.265625 17.9609375 76.265625 Z M-0.0390625 76.265625 C0.9609375 78.265625 0.9609375 78.265625 0.9609375 78.265625 Z M13.9609375 77.265625 C13.3009375 77.925625 12.6409375 78.585625 11.9609375 79.265625 C13.2809375 78.935625 14.6009375 78.605625 15.9609375 78.265625 C15.3009375 77.935625 14.6409375 77.605625 13.9609375 77.265625 Z M7.9609375 79.265625 C11.9609375 80.265625 11.9609375 80.265625 11.9609375 80.265625 Z " fill="#020102" transform="translate(41.0390625,48.734375)"/>
<path d="M0 0 C1.98 0 3.96 0 6 0 C6 0.66 6 1.32 6 2 C6.99 2 7.98 2 9 2 C9 1.34 9 0.68 9 0 C9.763125 0.185625 10.52625 0.37125 11.3125 0.5625 C14.08967375 1.22819173 14.08967375 1.22819173 17 0 C16.625 1.9375 16.625 1.9375 16 4 C15.01 4.495 15.01 4.495 14 5 C18.29 5.33 22.58 5.66 27 6 C27 5.34 27 4.68 27 4 C34.42857143 1.57142857 34.42857143 1.57142857 38 3 C37.505 1.515 37.505 1.515 37 0 C38.65 0 40.3 0 42 0 C42.495 0.99 42.495 0.99 43 2 C43 1.34 43 0.68 43 0 C43.66 0 44.32 0 45 0 C45.495 0.99 45.495 0.99 46 2 C47.98 1.34 49.96 0.68 52 0 C53.17112946 2.62309099 54.33705964 5.24828142 55.5 7.875 C55.83386719 8.62136719 56.16773438 9.36773437 56.51171875 10.13671875 C56.82753906 10.85214844 57.14335937 11.56757812 57.46875 12.3046875 C57.76201172 12.96452637 58.05527344 13.62436523 58.35742188 14.30419922 C59 16 59 16 59 18 C59.99 17.67 60.98 17.34 62 17 C61.35083537 10.99522721 59.14204997 5.599219 57 0 C58.65 0 60.3 0 62 0 C69.11961722 12.90430622 69.11961722 12.90430622 68 19 C66.55134184 22.74946817 65.27116499 23.83517422 61.8125 25.9375 C56.86123916 27.31735958 54.79104665 26.75671711 50 25 C46.65781674 22.50794814 45.71382457 19.13773733 44.3125 15.3125 C43.87550781 14.13300781 43.43851563 12.95351562 42.98828125 11.73828125 C42.49908203 10.38283203 42.49908203 10.38283203 42 9 C41.21625 9.969375 40.4325 10.93875 39.625 11.9375 C38.08711295 13.83962346 37.20740087 14.89629957 35 16 C33.60921637 16.05761279 32.21594608 16.06148824 30.82421875 16.03515625 C29.58188477 16.04385742 29.58188477 16.04385742 28.31445312 16.05273438 C26.57475707 16.05920165 24.83473535 16.03872284 23.09570312 15.99023438 C20.50894896 16.03631907 18.45340809 16.16500486 16 17 C14.26315855 18.93461898 13.19116487 20.77170863 12.08276367 23.11816406 C11 25 11 25 7.625 26.6875 C3.08952115 27.07848956 0.86969281 26.38134942 -3 24 C-5.15086934 21.26252994 -6.0928055 19.44940359 -5.8671875 15.92578125 C-4.782493 10.27550899 -2.50798916 5.14990008 0 0 Z M2 1 C3 3 3 3 3 3 Z M61 4 C62 6 62 6 62 6 Z M9 5 C9.33 5.66 9.66 6.32 10 7 C10.33 6.34 10.66 5.68 11 5 C10.34 5 9.68 5 9 5 Z M44 5 C45 8 45 8 45 8 Z M47 5 C48 7 48 7 48 7 Z M0 6 C1 8 1 8 1 8 Z M3 6 C1.98459888 10.10223585 1.98459888 10.10223585 3 14 C3.99 13.67 4.98 13.34 6 13 C6.33 12.01 6.66 11.02 7 10 C6.01 10 5.02 10 4 10 C3.67 8.68 3.34 7.36 3 6 Z M62 6 C63 8 63 8 63 8 Z M34 7 C34.33 7.99 34.66 8.98 35 10 C35.33 9.01 35.66 8.02 36 7 C35.34 7 34.68 7 34 7 Z M45 8 C46 10 46 10 46 10 Z M46 10 C47 13 47 13 47 13 Z M9 11 C7.515 14.96 7.515 14.96 6 19 C6.99 19 7.98 19 9 19 C11.2013866 15.19572508 11.2013866 15.19572508 12 11 C11.01 11 10.02 11 9 11 Z M64 11 C65 13 65 13 65 13 Z M-3 13 C-2 15 -2 15 -2 15 Z M15 13 C15 13.33 15 13.66 15 14 C19.62 14 24.24 14 29 14 C29 13.67 29 13.34 29 13 C24.38 13 19.76 13 15 13 Z M30 13 C34 14 34 14 34 14 Z M47 13 C48 15 48 15 48 15 Z M65 14 C66 17 66 17 66 17 Z M48 15 C49 18 49 18 49 18 Z M49 18 C50 20 50 20 50 20 Z M64 18 C65 20 65 20 65 20 Z " fill="#030303" transform="translate(173,104)"/>
<path d="M0 0 C1.98 0 3.96 0 6 0 C6.33 0.99 6.66 1.98 7 3 C7.66 2.01 8.32 1.02 9 0 C9.99 0 10.98 0 12 0 C13.4296875 1.79296875 13.4296875 1.79296875 14.875 4.1875 C17.2885522 8.00595572 19.67994396 10.9566153 23 14 C23.66 14.66 24.32 15.32 25 16 C27.32275177 16.40047444 29.65739357 16.7397104 32 17 C32 16.34 32 15.68 32 15 C33.65 14.34 35.3 13.68 37 13 C35.26394487 11.26394487 32.79450504 11.34388018 30.4375 10.9375 C28.91962891 10.67259766 28.91962891 10.67259766 27.37109375 10.40234375 C26.58863281 10.26957031 25.80617188 10.13679688 25 10 C24.88527344 9.360625 24.77054687 8.72125 24.65234375 8.0625 C24.43707031 7.381875 24.22179687 6.70125 24 6 C22.33927151 5.31867549 20.672233 4.65257873 19 4 C17.6875 1.875 17.6875 1.875 17 0 C19.6875 -0.3125 19.6875 -0.3125 23 0 C24.66666667 1.66666667 26.33333333 3.33333333 28 5 C32.25794082 6.23867369 34.22394363 6.33677918 38.3125 4.5625 C39.199375 4.046875 40.08625 3.53125 41 3 C41.66 3 42.32 3 43 3 C43.33 2.01 43.66 1.02 44 0 C45.95766281 -0.08082094 47.91626728 -0.13910778 49.875 -0.1875 C51.51082031 -0.23970703 51.51082031 -0.23970703 53.1796875 -0.29296875 C54.11039062 -0.19628906 55.04109375 -0.09960938 56 0 C56.66 0.99 57.32 1.98 58 3 C58.99 3 59.98 3 61 3 C61.33 2.01 61.66 1.02 62 0 C63.65 0 65.3 0 67 0 C65.77287691 8.58986165 62.5544695 14.3564244 55.71484375 19.828125 C46.48456193 26.17683303 37.14379452 28.28129034 26.0703125 26.5390625 C15.32317226 24.21461741 8.37020279 19.78627908 2.30859375 10.546875 C0.44389321 6.91766679 0.07512064 4.0565146 0 0 Z M63 2 C64 5 64 5 64 5 Z M3 4 C4 6 4 6 4 6 Z M62 5 C63 7 63 7 63 7 Z M4 6 C5 9 5 9 5 9 Z M56 6 C56 6.99 56 7.98 56 9 C56.66 8.67 57.32 8.34 58 8 C57.34 7.34 56.68 6.68 56 6 Z M12 7 C11.34 8.32 10.68 9.64 10 11 C11.32 11.33 12.64 11.66 14 12 C13.67 10.35 13.34 8.7 13 7 C12.67 7 12.34 7 12 7 Z M53 7 C51.75453595 9.49092811 52.2232422 10.41080733 53 13 C53.99 12.67 54.98 12.34 56 12 C55.34 12 54.68 12 54 12 C54 10.35 54 8.7 54 7 C53.67 7 53.34 7 53 7 Z M44 8 C43.34 8.66 42.68 9.32 42 10 C42.99 11.485 42.99 11.485 44 13 C44.99 12.34 45.98 11.68 47 11 C46.67 10.01 46.34 9.02 46 8 C45.34 8 44.68 8 44 8 Z M31 9 C31 9.33 31 9.66 31 10 C32.65 10 34.3 10 36 10 C36 9.67 36 9.34 36 9 C34.35 9 32.7 9 31 9 Z M60 9 C61 11 61 11 61 11 Z M6 10 C7 12 7 12 7 12 Z M56 14 C55.01 15.485 55.01 15.485 54 17 C54.99 16.67 55.98 16.34 57 16 C56.67 15.34 56.34 14.68 56 14 Z M12 17 C12.33 17.66 12.66 18.32 13 19 C13.66 18.67 14.32 18.34 15 18 C14.01 17.67 13.02 17.34 12 17 Z M19 21 C19.66 21.66 20.32 22.32 21 23 C23.10820797 22.6814823 23.10820797 22.6814823 25 22 C22.03 21.505 22.03 21.505 19 21 Z M25 23 C25 23.33 25 23.66 25 24 C27.31 24 29.62 24 32 24 C32 23.67 32 23.34 32 23 C29.69 23 27.38 23 25 23 Z M36 23 C36 23.33 36 23.66 36 24 C37.98 24 39.96 24 42 24 C42 23.67 42 23.34 42 23 C40.02 23 38.04 23 36 23 Z " fill="#030303" transform="translate(319,104)"/>
<path d="M0 0 C1.42171741 -0.0164379 2.84335645 -0.04356464 4.26464844 -0.08203125 C14.02882426 -0.34457046 22.47965379 0.13697707 30.04980469 7.09204102 C34.92208318 12.25369303 37.31120711 17.66358058 37.34130859 24.78759766 C37.29369486 26.3089698 37.2363773 27.83022178 37.15380859 29.35009766 C36.49380859 29.35009766 35.83380859 29.35009766 35.15380859 29.35009766 C35.07904297 28.58826172 35.00427734 27.82642578 34.92724609 27.04150391 C34.0046571 19.79646682 32.43908108 13.67571574 27.15380859 8.35009766 C26.16380859 8.35009766 25.17380859 8.35009766 24.15380859 8.35009766 C23.23583496 8.02412598 22.31786133 7.6981543 21.37207031 7.36230469 C17.93787872 6.28218343 15.25083023 6.12060221 11.66162109 6.15478516 C10.46279297 6.16123047 9.26396484 6.16767578 8.02880859 6.17431641 C6.17255859 6.19945312 6.17255859 6.19945312 4.27880859 6.22509766 C3.01810547 6.23412109 1.75740234 6.24314453 0.45849609 6.25244141 C-2.64326181 6.27593957 -5.74462792 6.30879431 -8.84619141 6.35009766 C-8.84619141 7.01009766 -8.84619141 7.67009766 -8.84619141 8.35009766 C-3.56619141 8.35009766 1.71380859 8.35009766 7.15380859 8.35009766 C7.15380859 8.68009766 7.15380859 9.01009766 7.15380859 9.35009766 C7.73388672 9.37587891 8.31396484 9.40166016 8.91162109 9.42822266 C14.36975658 9.82452292 17.86810749 10.67663956 22.15380859 14.35009766 C25.94413267 18.79392589 25.77913281 23.72996085 26.15380859 29.35009766 C22.52380859 29.35009766 18.89380859 29.35009766 15.15380859 29.35009766 C14.65880859 25.39009766 14.65880859 25.39009766 14.15380859 21.35009766 C10.52380859 21.02009766 6.89380859 20.69009766 3.15380859 20.35009766 C3.15380859 23.32009766 3.15380859 26.29009766 3.15380859 29.35009766 C2.49380859 29.35009766 1.83380859 29.35009766 1.15380859 29.35009766 C1.16541016 28.56763672 1.17701172 27.78517578 1.18896484 26.97900391 C1.19798828 25.96708984 1.20701172 24.95517578 1.21630859 23.91259766 C1.23371094 22.39859375 1.23371094 22.39859375 1.25146484 20.85400391 C1.43993535 18.40988699 1.43993535 18.40988699 0.15380859 17.35009766 C0.15380859 21.31009766 0.15380859 25.27009766 0.15380859 29.35009766 C-0.50619141 29.35009766 -1.16619141 29.35009766 -1.84619141 29.35009766 C-2.17619141 25.39009766 -2.50619141 21.43009766 -2.84619141 17.35009766 C-4.16619141 17.35009766 -5.48619141 17.35009766 -6.84619141 17.35009766 C-6.84619141 21.31009766 -6.84619141 25.27009766 -6.84619141 29.35009766 C-10.80619141 29.35009766 -14.76619141 29.35009766 -18.84619141 29.35009766 C-18.9544509 25.80760649 -19.03363546 22.26844517 -19.09619141 18.72509766 C-19.12970703 17.72607422 -19.16322266 16.72705078 -19.19775391 15.69775391 C-19.27875176 9.58241594 -18.99413316 5.97428457 -14.84619141 1.35009766 C-10.52233541 -0.81183034 -4.79888624 0.04052928 0 0 Z M-11.84619141 2.35009766 C-11.84619141 2.68009766 -11.84619141 3.01009766 -11.84619141 3.35009766 C-2.60619141 3.35009766 6.63380859 3.35009766 16.15380859 3.35009766 C16.15380859 3.02009766 16.15380859 2.69009766 16.15380859 2.35009766 C6.91380859 2.35009766 -2.32619141 2.35009766 -11.84619141 2.35009766 Z M-15.84619141 5.35009766 C-14.84619141 7.35009766 -14.84619141 7.35009766 -14.84619141 7.35009766 Z M-12.84619141 6.35009766 C-11.84619141 9.35009766 -11.84619141 9.35009766 -11.84619141 9.35009766 Z M-16.84619141 7.35009766 C-16.84619141 9.99009766 -16.84619141 12.63009766 -16.84619141 15.35009766 C-16.51619141 15.35009766 -16.18619141 15.35009766 -15.84619141 15.35009766 C-15.84619141 12.71009766 -15.84619141 10.07009766 -15.84619141 7.35009766 C-16.17619141 7.35009766 -16.50619141 7.35009766 -16.84619141 7.35009766 Z M-9.84619141 13.35009766 C-9.84619141 15.66009766 -9.84619141 17.97009766 -9.84619141 20.35009766 C-9.51619141 20.35009766 -9.18619141 20.35009766 -8.84619141 20.35009766 C-8.84619141 18.04009766 -8.84619141 15.73009766 -8.84619141 13.35009766 C-9.17619141 13.35009766 -9.50619141 13.35009766 -9.84619141 13.35009766 Z M17.15380859 22.35009766 C18.15380859 24.35009766 18.15380859 24.35009766 18.15380859 24.35009766 Z M18.15380859 25.35009766 C19.15380859 27.35009766 19.15380859 27.35009766 19.15380859 27.35009766 Z " fill="#040404" transform="translate(267.84619140625,49.64990234375)"/>
<path d="M0 0 C0.75152344 -0.03738281 1.50304687 -0.07476562 2.27734375 -0.11328125 C3.01597656 -0.12488281 3.75460937 -0.13648438 4.515625 -0.1484375 C5.51770996 -0.1781665 5.51770996 -0.1781665 6.54003906 -0.20849609 C12.46320637 1.35539806 15.85069777 6.58353809 18.8359375 11.55078125 C19.18258453 12.12080368 19.52923157 12.69082611 19.88638306 13.27812195 C20.97615869 15.0753004 22.0507226 16.88102409 23.125 18.6875 C23.86749623 19.91791769 24.61097751 21.14774153 25.35546875 22.37695312 C27.16506879 25.36953137 28.96115552 28.36995749 30.75 31.375 C30.7593457 30.67938965 30.76869141 29.9837793 30.77832031 29.26708984 C30.83223546 26.094025 30.91584173 22.9224009 31 19.75 C31.01417969 18.65558594 31.02835937 17.56117187 31.04296875 16.43359375 C31.23218168 10.18956694 31.47387173 6.08517136 35.75 1.375 C38.96451269 -0.23225635 42.18612536 0.31751815 45.75 0.375 C45.75 1.365 45.75 2.355 45.75 3.375 C46.74 4.035 47.73 4.695 48.75 5.375 C48.75 6.035 48.75 6.695 48.75 7.375 C46.44 6.715 44.13 6.055 41.75 5.375 C41.935625 6.014375 42.12125 6.65375 42.3125 7.3125 C42.456875 7.993125 42.60125 8.67375 42.75 9.375 C42.42 9.705 42.09 10.035 41.75 10.375 C42.41 10.705 43.07 11.035 43.75 11.375 C43.76030746 12.04263367 43.77061493 12.71026733 43.78123474 13.39813232 C43.88933708 20.34104126 44.00393227 27.28382139 44.12231445 34.2265625 C44.16565128 36.81833199 44.20732725 39.41012979 44.24731445 42.00195312 C44.30504702 45.72534728 44.3687333 49.44859904 44.43359375 53.171875 C44.45030624 54.33241394 44.46701874 55.49295288 44.48423767 56.68865967 C44.5141555 58.30988739 44.5141555 58.30988739 44.54467773 59.96386719 C44.56799416 61.38949982 44.56799416 61.38949982 44.59178162 62.84393311 C44.73634656 65.15658175 45.09999254 67.1577227 45.75 69.375 C43.77 70.365 43.77 70.365 41.75 71.375 C41.75 70.715 41.75 70.055 41.75 69.375 C40.76 69.045 39.77 68.715 38.75 68.375 C38.75 67.385 38.75 66.395 38.75 65.375 C37.43 64.715 36.11 64.055 34.75 63.375 C34.75 62.715 34.75 62.055 34.75 61.375 C34.09 61.375 33.43 61.375 32.75 61.375 C31.76 59.065 30.77 56.755 29.75 54.375 C30.41 53.715 31.07 53.055 31.75 52.375 C33.73 55.345 35.71 58.315 37.75 61.375 C37.42 60.385 37.09 59.395 36.75 58.375 C36.25250028 55.8707787 35.798703 53.36063099 35.34765625 50.84765625 C34.84665147 48.36834083 34.84665147 48.36834083 33.68359375 46.24609375 C32.75 44.375 32.75 44.375 32.75 41.375 C32.110625 41.1275 31.47125 40.88 30.8125 40.625 C28.75 39.375 28.75 39.375 28 37.25 C27.9175 36.63125 27.835 36.0125 27.75 35.375 C28.74 35.375 29.73 35.375 30.75 35.375 C30.37230469 34.93414062 29.99460937 34.49328125 29.60546875 34.0390625 C24.65742851 27.99017022 20.67328235 21.49748234 16.74682617 14.76025391 C14.1349707 10.35183154 11.55954156 6.81321441 7.75 3.375 C7.75 4.035 7.75 4.695 7.75 5.375 C3.46 5.375 -0.83 5.375 -5.25 5.375 C-5.58 6.035 -5.91 6.695 -6.25 7.375 C-5.92 6.055 -5.59 4.735 -5.25 3.375 C-7.99931827 4.06232957 -9.78418821 4.73060222 -11.47265625 7.06640625 C-12.45324656 8.80616325 -13.35688055 10.5887611 -14.25 12.375 C-14.58 12.375 -14.91 12.375 -15.25 12.375 C-14.75958904 5.99965753 -14.75958904 5.99965753 -12.3125 3 C-8.39366039 -0.0875706 -4.82075707 0.08912324 0 0 Z M1.75 2.375 C1.75 2.705 1.75 3.035 1.75 3.375 C3.73 3.375 5.71 3.375 7.75 3.375 C7.75 3.045 7.75 2.715 7.75 2.375 C5.77 2.375 3.79 2.375 1.75 2.375 Z M33.75 16.375 C33.75 22.315 33.75 28.255 33.75 34.375 C34.08 34.375 34.41 34.375 34.75 34.375 C34.75 28.435 34.75 22.495 34.75 16.375 C34.42 16.375 34.09 16.375 33.75 16.375 Z M32.75 38.375 C33.75 40.375 33.75 40.375 33.75 40.375 Z M34.75 41.375 C35.75 43.375 35.75 43.375 35.75 43.375 Z " fill="#050506" transform="translate(415.25,49.625)"/>
<path d="M0 0 C1.38764053 -0.00287018 1.38764053 -0.00287018 2.80331421 -0.00579834 C4.74452998 -0.00715032 6.68575509 -0.00352344 8.62695312 0.00488281 C11.5848428 0.01562103 14.54212862 0.00494117 17.5 -0.0078125 C19.39583466 -0.00649121 21.29166895 -0.00392944 23.1875 0 C24.50181503 -0.00607269 24.50181503 -0.00607269 25.84268188 -0.01226807 C32.00880607 0.0344931 37.71889387 0.13855797 42.3984375 4.578125 C44.1758546 7.63528241 44.71857992 8.81414285 43.9609375 12.265625 C42.0762039 15.13793119 40.08502616 17.70358067 36.9609375 19.265625 C34.65161227 19.47166145 32.33807367 19.63185862 30.0234375 19.765625 C24.90283915 20.04712889 24.90283915 20.04712889 19.9609375 21.265625 C19.9609375 20.605625 19.9609375 19.945625 19.9609375 19.265625 C19.3009375 19.265625 18.6409375 19.265625 17.9609375 19.265625 C18.28592728 19.82414154 18.61091705 20.38265808 18.945755 20.95809937 C20.09513379 23.57065525 20.20859421 25.34211848 20.20385742 28.18603516 C20.20847237 29.64742416 20.20847237 29.64742416 20.21318054 31.13833618 C20.20599503 32.18323212 20.19880951 33.22812805 20.19140625 34.3046875 C20.19094803 35.38189056 20.19048981 36.45909363 20.1900177 37.56893921 C20.18699886 39.84349674 20.17912358 42.11805226 20.16674805 44.39257812 C20.14847119 47.88418859 20.14623855 51.37553415 20.14648438 54.8671875 C20.14156984 57.07552314 20.13574181 59.28385697 20.12890625 61.4921875 C20.12779343 62.5411319 20.1266806 63.59007629 20.12553406 64.67080688 C20.11915421 65.6387619 20.11277435 66.60671692 20.10620117 67.60400391 C20.10048347 68.88496445 20.10048347 68.88496445 20.09465027 70.19180298 C19.9609375 72.265625 19.9609375 72.265625 18.9609375 74.265625 C18.3009375 74.265625 17.6409375 74.265625 16.9609375 74.265625 C16.06690162 71.19823167 15.83445935 68.45956952 15.83154297 65.26928711 C15.82839081 64.27823471 15.82523865 63.28718231 15.82199097 62.26609802 C15.8240152 61.20246536 15.82603943 60.1388327 15.828125 59.04296875 C15.82716827 57.94594131 15.82621155 56.84891388 15.82522583 55.71864319 C15.82454572 53.40121402 15.82638826 51.08378293 15.83056641 48.76635742 C15.83592211 45.21333556 15.83061305 41.66043983 15.82421875 38.10742188 C15.82487946 35.85677055 15.82616048 33.60611931 15.828125 31.35546875 C15.82610077 30.28981186 15.82407654 29.22415497 15.82199097 28.12620544 C15.82671921 26.64435509 15.82671921 26.64435509 15.83154297 25.13256836 C15.83233856 24.26305038 15.83313416 23.39353241 15.83395386 22.49766541 C15.9609375 20.265625 15.9609375 20.265625 16.9609375 17.265625 C23.2309375 16.935625 29.5009375 16.605625 35.9609375 16.265625 C36.6209375 14.285625 37.2809375 12.305625 37.9609375 10.265625 C36.9709375 9.275625 35.9809375 8.285625 34.9609375 7.265625 C36.2809375 6.605625 37.6009375 5.945625 38.9609375 5.265625 C37.9709375 4.935625 36.9809375 4.605625 35.9609375 4.265625 C35.9609375 4.925625 35.9609375 5.585625 35.9609375 6.265625 C18.8009375 6.595625 1.6409375 6.925625 -16.0390625 7.265625 C-16.0390625 8.585625 -16.0390625 9.905625 -16.0390625 11.265625 C-16.6990625 11.265625 -17.3590625 11.265625 -18.0390625 11.265625 C-18.6990625 10.275625 -19.3590625 9.285625 -20.0390625 8.265625 C-20.6990625 10.245625 -21.3590625 12.225625 -22.0390625 14.265625 C-22.3690625 14.265625 -22.6990625 14.265625 -23.0390625 14.265625 C-23.34053106 10.42190088 -23.37420244 7.92133357 -21.6015625 4.453125 C-15.78780538 -0.50983839 -7.30775676 -0.03392167 0 0 Z M-16.0390625 3.265625 C-16.0390625 3.595625 -16.0390625 3.925625 -16.0390625 4.265625 C-10.0990625 4.265625 -4.1590625 4.265625 1.9609375 4.265625 C1.9609375 3.935625 1.9609375 3.605625 1.9609375 3.265625 C-3.9790625 3.265625 -9.9190625 3.265625 -16.0390625 3.265625 Z M18.9609375 3.265625 C18.9609375 3.595625 18.9609375 3.925625 18.9609375 4.265625 C21.6009375 4.265625 24.2409375 4.265625 26.9609375 4.265625 C26.9609375 3.935625 26.9609375 3.605625 26.9609375 3.265625 C24.3209375 3.265625 21.6809375 3.265625 18.9609375 3.265625 Z " fill="#1A1414" transform="translate(41.0390625,48.734375)"/>
<path d="M0 0 C3.58589356 2.82340772 4.87527288 6.1189919 6.66015625 10.24609375 C6.99402344 10.98472656 7.32789063 11.72335938 7.671875 12.484375 C8.64464141 14.64734973 9.5903752 16.82078319 10.53515625 18.99609375 C10.83518555 19.65673828 11.13521484 20.31738281 11.44433594 20.99804688 C12.72560294 23.8549869 13.53515625 25.82549466 13.53515625 28.99609375 C11.88515625 28.99609375 10.23515625 28.99609375 8.53515625 28.99609375 C7.18643229 26.107188 5.85900023 23.20897491 4.53515625 20.30859375 C4.15359375 19.49197266 3.77203125 18.67535156 3.37890625 17.83398438 C3.01796875 17.03798828 2.65703125 16.24199219 2.28515625 15.421875 C1.95 14.69395752 1.61484375 13.96604004 1.26953125 13.21606445 C0.43741519 10.70062849 0.40565424 8.62862676 0.53515625 5.99609375 C-0.78484375 6.32609375 -2.10484375 6.65609375 -3.46484375 6.99609375 C-3.79484375 6.33609375 -4.12484375 5.67609375 -4.46484375 4.99609375 C-5.45484375 4.66609375 -6.44484375 4.33609375 -7.46484375 3.99609375 C-7.13484375 4.98609375 -6.80484375 5.97609375 -6.46484375 6.99609375 C-7.45484375 7.65609375 -8.44484375 8.31609375 -9.46484375 8.99609375 C-8.55734375 9.16109375 -7.64984375 9.32609375 -6.71484375 9.49609375 C-2.11837056 11.61754291 -1.1708541 14.38607466 0.53515625 18.99609375 C1.63273631 22.31238714 2.59956293 25.62795778 3.53515625 28.99609375 C-1.08484375 28.99609375 -5.70484375 28.99609375 -10.46484375 28.99609375 C-10.13484375 26.35609375 -9.80484375 23.71609375 -9.46484375 20.99609375 C-10.78484375 23.63609375 -12.10484375 26.27609375 -13.46484375 28.99609375 C-17.42484375 28.99609375 -21.38484375 28.99609375 -25.46484375 28.99609375 C-24.74361018 25.3899259 -24.16287549 22.9714681 -22.72265625 19.74609375 C-22.37847656 18.97265625 -22.03429687 18.19921875 -21.6796875 17.40234375 C-21.14021484 16.21125 -21.14021484 16.21125 -20.58984375 14.99609375 C-20.23792969 14.20203125 -19.88601562 13.40796875 -19.5234375 12.58984375 C-14.76161086 1.96866908 -14.76161086 1.96866908 -11.71484375 -0.31640625 C-7.61831442 -1.56812354 -3.98417319 -1.62271396 0 0 Z M-15.46484375 8.99609375 C-14.46484375 10.99609375 -14.46484375 10.99609375 -14.46484375 10.99609375 Z M-16.46484375 10.99609375 C-15.46484375 12.99609375 -15.46484375 12.99609375 -15.46484375 12.99609375 Z M-7.46484375 14.99609375 C-7.79484375 16.31609375 -8.12484375 17.63609375 -8.46484375 18.99609375 C-7.80484375 18.99609375 -7.14484375 18.99609375 -6.46484375 18.99609375 C-6.79484375 17.67609375 -7.12484375 16.35609375 -7.46484375 14.99609375 Z M-19.46484375 17.99609375 C-18.46484375 19.99609375 -18.46484375 19.99609375 -18.46484375 19.99609375 Z M6.53515625 17.99609375 C7.53515625 19.99609375 7.53515625 19.99609375 7.53515625 19.99609375 Z M-6.46484375 21.99609375 C-5.46484375 24.99609375 -5.46484375 24.99609375 -5.46484375 24.99609375 Z M-21.46484375 22.99609375 C-20.46484375 24.99609375 -20.46484375 24.99609375 -20.46484375 24.99609375 Z M-22.46484375 24.99609375 C-21.46484375 26.99609375 -21.46484375 26.99609375 -21.46484375 26.99609375 Z M9.53515625 24.99609375 C10.53515625 26.99609375 10.53515625 26.99609375 10.53515625 26.99609375 Z " fill="#030304" transform="translate(210.46484375,50.00390625)"/>
<path d="M0 0 C4.38479855 -0.34667514 8.62420968 -0.51416875 13 0 C15.75 2.625 15.75 2.625 16.7734375 4.27734375 C20.62216908 9.68272791 27.96973746 12.69053775 34 15 C34.66 14.01 35.32 13.02 36 12 C34.68 12 33.36 12 32 12 C26.1477746 9.98607628 22.01913387 6.62200395 18 2 C18 1.34 18 0.68 18 0 C21.08497428 -0.46274614 23.23749027 -0.47136965 25.93359375 1.1953125 C27.29573215 2.25209824 28.64176558 3.3299039 29.97265625 4.42578125 C31.88947291 5.91417646 33.6936757 6.89899009 35.875 7.9375 C39 10 39 10 40.625 13.3125 C41.08886443 17.87383352 40.33763129 20.07881202 38 24 C35.67717336 26.18618978 34.15072117 26.94939467 30.95703125 27.08984375 C21.00036901 26.42149637 13.65000031 21.17250034 7 14 C0 4.58088235 0 4.58088235 0 0 Z M37 13 C37 15.31 37 17.62 37 20 C37.33 20 37.66 20 38 20 C38 17.69 38 15.38 38 13 C37.67 13 37.34 13 37 13 Z M36 20 C35.01 21.485 35.01 21.485 34 23 C34.99 22.67 35.98 22.34 37 22 C36.67 21.34 36.34 20.68 36 20 Z M23 22 C24.78657757 24.21370051 24.78657757 24.21370051 27.1640625 24.1953125 C27.97617187 24.17210937 28.78828125 24.14890625 29.625 24.125 C30.44226563 24.10695312 31.25953125 24.08890625 32.1015625 24.0703125 C32.72804688 24.04710937 33.35453125 24.02390625 34 24 C34 23.67 34 23.34 34 23 C30.37 22.67 26.74 22.34 23 22 Z " fill="#030303" transform="translate(272,104)"/>
<path d="M0 0 C1 2 1 2 0.4375 3.9375 C-1.59927428 6.85982832 -3.72745504 7.62727546 -7 9 C-10.6484375 9.51171875 -10.6484375 9.51171875 -14.375 9.6875 C-16.24285156 9.78611328 -16.24285156 9.78611328 -18.1484375 9.88671875 C-19.08945313 9.92410156 -20.03046875 9.96148437 -21 10 C-21.00142502 10.65066437 -21.00285004 11.30132874 -21.00431824 11.97171021 C-21.02402735 18.75305158 -21.07832778 25.5334943 -21.15258789 32.31445312 C-21.17576361 34.8440099 -21.19016257 37.37366312 -21.19555664 39.90332031 C-21.20484865 43.54292878 -21.2458493 47.18102121 -21.29296875 50.8203125 C-21.28706978 52.51282639 -21.28706978 52.51282639 -21.28105164 54.23953247 C-21.4435541 63.01399912 -21.4435541 63.01399912 -24.41918945 66.69873047 C-28.41455578 70.26133788 -30.67366161 70.27550026 -36 70 C-38.25 69 -38.25 69 -40 68 C-40.99 68 -41.98 68 -43 68 C-46.28870799 64.0234388 -46.40301963 60.2399618 -46.29296875 55.29296875 C-46.28872391 54.56757401 -46.28447906 53.84217926 -46.28010559 53.09480286 C-46.26339543 50.79198109 -46.2257596 48.49005447 -46.1875 46.1875 C-46.17244316 44.6204554 -46.1587565 43.053397 -46.14648438 41.48632812 C-46.11351731 37.65721043 -46.06178992 33.82875666 -46 30 C-45.67 30 -45.34 30 -45 30 C-44.67 23.07 -44.34 16.14 -44 9 C-47.279375 9.0928125 -47.279375 9.0928125 -50.625 9.1875 C-55.97256425 9.33884616 -59.42233157 8.86793685 -64 6 C-64.875 3.8125 -64.875 3.8125 -65 2 C-63 3 -61 4 -59 5 C-56.62597499 5.07116382 -54.24999323 5.08409085 -51.875 5.0625 C-50.59367187 5.05347656 -49.31234375 5.04445313 -47.9921875 5.03515625 C-46.51105469 5.01775391 -46.51105469 5.01775391 -45 5 C-45 5.66 -45 6.32 -45 7 C-44.01 7.33 -43.02 7.66 -42 8 C-41.67 23.84 -41.34 39.68 -41 56 C-40.34 54.68 -39.68 53.36 -39 52 C-38.34 54.31 -37.68 56.62 -37 59 C-34.87635519 59.22609337 -34.87635519 59.22609337 -33.375 57.5 C-32.92125 57.005 -32.4675 56.51 -32 56 C-31.67 56.66 -31.34 57.32 -31 58 C-29.35 58 -27.7 58 -26 58 C-25.505 59.98 -25.505 59.98 -25 62 C-23.74725277 59.49450555 -23.87970376 57.80264368 -23.88647461 54.99951172 C-23.88655014 53.95858368 -23.88662567 52.91765564 -23.88670349 51.84518433 C-23.89186478 50.71807037 -23.89702606 49.59095642 -23.90234375 48.4296875 C-23.9037587 47.27832306 -23.90517365 46.12695862 -23.90663147 44.94070435 C-23.91224284 41.25211014 -23.9247973 37.56357595 -23.9375 33.875 C-23.94251353 31.37890712 -23.94707669 28.8828133 -23.95117188 26.38671875 C-23.96221597 20.25779191 -23.9789652 14.12890024 -24 8 C-20.30896045 6.99002155 -16.89207793 6.86443776 -13.0625 6.75 C-7.29623868 6.54294146 -7.29623868 6.54294146 -2.6875 3.5 C-2.130625 2.675 -1.57375 1.85 -1 1 C-0.67 0.67 -0.34 0.34 0 0 Z M-45 45 C-45 49.95 -45 54.9 -45 60 C-44.67 60 -44.34 60 -44 60 C-44 55.05 -44 50.1 -44 45 C-44.33 45 -44.66 45 -45 45 Z M-41 60 C-40.67 61.65 -40.34 63.3 -40 65 C-39.01 65 -38.02 65 -37 65 C-38.32 63.35 -39.64 61.7 -41 60 Z M-43 64 C-42 66 -42 66 -42 66 Z M-29 65 C-29.66 65.66 -30.32 66.32 -31 67 C-29.68 66.67 -28.36 66.34 -27 66 C-27.66 65.67 -28.32 65.34 -29 65 Z M-35 67 C-31 68 -31 68 -31 68 Z " fill="#080808" transform="translate(84,61)"/>
<path d="M0 0 C4.33333333 0 8.66666667 0 13 0 C13 4.95 13 9.9 13 15 C14.32 14.67 15.64 14.34 17 14 C17.33 9.38 17.66 4.76 18 0 C19.65 0 21.3 0 23 0 C23.08144943 2.70894767 23.14070614 5.41541263 23.1875 8.125 C23.21263672 8.88554688 23.23777344 9.64609375 23.26367188 10.4296875 C23.32787634 15.39483301 22.70752584 18.67456238 20 23 C16.98920882 26.01079118 14.23449489 26.8306202 10 27 C6.625 25.5625 6.625 25.5625 4 24 C3.67 24.33 3.34 24.66 3 25 C0.30399627 24.0114653 -0.80558649 23.34022364 -2.25 20.8125 C-3.63585236 15.61555364 -3.49905287 11.70409953 -1 7 C-0.61250787 4.67504723 -0.27017161 2.34148732 0 0 Z M6 3 C6.33 3.66 6.66 4.32 7 5 C7.33 4.34 7.66 3.68 8 3 C7.34 3 6.68 3 6 3 Z M5 6 C5.33 8.97 5.66 11.94 6 15 C7.32 15 8.64 15 10 15 C9.67 13.68 9.34 12.36 9 11 C8.34 11 7.68 11 7 11 C6.67 9.35 6.34 7.7 6 6 C5.67 6 5.34 6 5 6 Z M3 15 C4 19 4 19 4 19 Z M19 17 C20 19 20 19 20 19 Z M0 18 C1 20 1 20 1 20 Z M4 19 C4.66 20.32 5.32 21.64 6 23 C6.66 22.67 7.32 22.34 8 22 C6.68 21.01 5.36 20.02 4 19 Z M18 19 C19 21 19 21 19 21 Z M16 21 C15.67 21.66 15.34 22.32 15 23 C15.99 22.67 16.98 22.34 18 22 C17.34 21.67 16.68 21.34 16 21 Z M8 23 C8 23.33 8 23.66 8 24 C10.31 24 12.62 24 15 24 C15 23.67 15 23.34 15 23 C12.69 23 10.38 23 8 23 Z " fill="#020203" transform="translate(92,104)"/>
<path d="M0 0 C3.03919266 1.5889555 5.48842036 3.52539043 6.65014648 6.87402344 C7.03464617 9.21053655 7.11283587 11.39760491 7.09765625 13.765625 C7.09443359 14.65507813 7.09121094 15.54453125 7.08789062 16.4609375 C7.07951172 17.38132812 7.07113281 18.30171875 7.0625 19.25 C7.05798828 20.18585938 7.05347656 21.12171875 7.04882812 22.0859375 C7.03706918 24.39069041 7.02063426 26.69531227 7 29 C5.35 29 3.7 29 2 29 C1.67 22.07 1.34 15.14 1 8 C1.66 7.67 2.32 7.34 3 7 C1.68799596 5.64567325 0.35368596 4.31266518 -1 3 C-1.33 3 -1.66 3 -2 3 C-0.68 4.32 0.64 5.64 2 7 C-0.64 6.67 -3.28 6.34 -6 6 C-5.67257813 6.80695312 -5.34515625 7.61390625 -5.0078125 8.4453125 C-3.79598708 12.71958047 -3.77785444 16.46608628 -3.875 20.875 C-3.88402344 21.65875 -3.89304687 22.4425 -3.90234375 23.25 C-3.92571937 25.16680055 -3.96158347 27.08344191 -4 29 C-7.96 29 -11.92 29 -16 29 C-16.08127476 25.79115216 -16.14063141 22.58438239 -16.1875 19.375 C-16.21263672 18.47136719 -16.23777344 17.56773438 -16.26367188 16.63671875 C-16.33210763 10.38625346 -15.61162518 6.01341367 -11.375 1.125 C-7.60519839 -0.6606955 -4.08140497 -0.76261546 0 0 Z M-11 4 C-10.67 4.66 -10.34 5.32 -10 6 C-9.67 5.34 -9.34 4.68 -9 4 C-9.66 4 -10.32 4 -11 4 Z M-13 7 C-12 11 -12 11 -12 11 Z M-14 22 C-14 23.65 -14 25.3 -14 27 C-13.34 26.67 -12.68 26.34 -12 26 C-12.66 24.68 -13.32 23.36 -14 22 Z " fill="#010102" transform="translate(108,50)"/>
<path d="M0 0 C2.27238472 1.91358713 3.67797068 3.35594135 5 6 C5.08426094 7.6674606 5.10725143 9.33825187 5.09765625 11.0078125 C5.09443359 11.99394531 5.09121094 12.98007812 5.08789062 13.99609375 C5.07951172 15.02863281 5.07113281 16.06117187 5.0625 17.125 C5.05798828 18.16527344 5.05347656 19.20554687 5.04882812 20.27734375 C5.03701952 22.85161962 5.02055075 25.42578146 5 28 C3.35 28 1.7 28 0 28 C0 21.07 0 14.14 0 7 C0.66 7 1.32 7 2 7 C1.67 6.34 1.34 5.68 1 5 C-0.32 5 -1.64 5 -3 5 C-4.67225729 4.69595322 -6.34080104 4.36871088 -8 4 C-7.505 4.928125 -7.505 4.928125 -7 5.875 C-6 8 -6 8 -6 10 C-5.67 10.33 -5.34 10.66 -5 11 C-4.92674832 13.86267567 -4.90761795 16.700719 -4.9375 19.5625 C-4.94201172 20.36880859 -4.94652344 21.17511719 -4.95117188 22.00585938 C-4.96299482 24.00393756 -4.98093086 26.00197783 -5 28 C-8.96 28 -12.92 28 -17 28 C-17.08104454 24.43704188 -17.14052442 20.87593293 -17.1875 17.3125 C-17.21263672 16.30509766 -17.23777344 15.29769531 -17.26367188 14.25976562 C-17.35733986 4.79929915 -17.35733986 4.79929915 -14 1 C-8.71612433 -2.1500028 -5.64671817 -2.4504626 0 0 Z M-9 1 C-9 1.33 -9 1.66 -9 2 C-7.02 2 -5.04 2 -3 2 C-3 1.67 -3 1.34 -3 1 C-4.98 1 -6.96 1 -9 1 Z M-14 5 C-13 7 -13 7 -13 7 Z M-15 8 C-15 11.63 -15 15.26 -15 19 C-14.67 19 -14.34 19 -14 19 C-14 15.37 -14 11.74 -14 8 C-14.33 8 -14.66 8 -15 8 Z " fill="#121111" transform="translate(335,51)"/>
<path d="M0 0 C2.17969397 1.77198143 3.92687915 3.42016455 5.19140625 5.94921875 C5.27566719 7.61667935 5.29865768 9.28747062 5.2890625 10.95703125 C5.28583984 11.94316406 5.28261719 12.92929687 5.27929688 13.9453125 C5.27091797 14.97785156 5.26253906 16.01039062 5.25390625 17.07421875 C5.24939453 18.11449219 5.24488281 19.15476562 5.24023438 20.2265625 C5.22842577 22.80083837 5.211957 25.37500021 5.19140625 27.94921875 C4.53140625 27.94921875 3.87140625 27.94921875 3.19140625 27.94921875 C3.17158691 27.36430664 3.15176758 26.77939453 3.13134766 26.17675781 C3.03587144 23.5171385 2.92628483 20.85828037 2.81640625 18.19921875 C2.78546875 17.27882813 2.75453125 16.3584375 2.72265625 15.41015625 C2.68398438 14.52070312 2.6453125 13.63125 2.60546875 12.71484375 C2.5583374 11.48942871 2.5583374 11.48942871 2.51025391 10.23925781 C2.16796932 7.78088917 1.41747855 6.09161876 0.19140625 3.94921875 C-0.79859375 4.27921875 -1.78859375 4.60921875 -2.80859375 4.94921875 C-5.49609375 4.51171875 -5.49609375 4.51171875 -7.80859375 3.94921875 C-7.80859375 4.60921875 -7.80859375 5.26921875 -7.80859375 5.94921875 C-7.14859375 5.94921875 -6.48859375 5.94921875 -5.80859375 5.94921875 C-4.63159327 10.57381119 -4.69450963 15.02788337 -4.74609375 19.76171875 C-4.75060547 20.54998047 -4.75511719 21.33824219 -4.75976562 22.15039062 C-4.77148063 24.08336636 -4.78941377 26.01630268 -4.80859375 27.94921875 C-8.76859375 27.94921875 -12.72859375 27.94921875 -16.80859375 27.94921875 C-17.03066403 24.38709138 -17.23673812 20.82525305 -17.43359375 17.26171875 C-17.53027344 15.75061523 -17.53027344 15.75061523 -17.62890625 14.20898438 C-17.68046875 13.23251953 -17.73203125 12.25605469 -17.78515625 11.25 C-17.83752441 10.35450439 -17.88989258 9.45900879 -17.94384766 8.53637695 C-17.78960562 5.58601086 -17.16478934 3.56814778 -15.80859375 0.94921875 C-11.13160196 -1.38927715 -4.75703907 -2.76380888 0 0 Z M-8.80859375 0.94921875 C-8.80859375 1.27921875 -8.80859375 1.60921875 -8.80859375 1.94921875 C-6.82859375 1.94921875 -4.84859375 1.94921875 -2.80859375 1.94921875 C-2.80859375 1.61921875 -2.80859375 1.28921875 -2.80859375 0.94921875 C-4.78859375 0.94921875 -6.76859375 0.94921875 -8.80859375 0.94921875 Z " fill="#4F4F4F" transform="translate(381.80859375,51.05078125)"/>
<path d="M0 0 C3.96 0 7.92 0 12 0 C12.33 4.62 12.66 9.24 13 14 C13.99 14 14.98 14 16 14 C16.33 9.38 16.66 4.76 17 0 C18.65 0 20.3 0 22 0 C22.10845027 3.04263267 22.18752063 6.08136204 22.25 9.125 C22.30027344 10.40890625 22.30027344 10.40890625 22.3515625 11.71875 C22.43751887 17.3059139 21.89022139 20.65854028 18 25 C15.43004279 26.53137656 12.97985979 26.92772728 10 27 C5.2799283 25.60719196 2.54580561 24.20861294 0 20 C-0.34057617 17.70996094 -0.34057617 17.70996094 -0.29296875 15.234375 C-0.28330078 14.34492187 -0.27363281 13.45546875 -0.26367188 12.5390625 C-0.23853516 11.61867188 -0.21339844 10.69828125 -0.1875 9.75 C-0.16719727 8.34621094 -0.16719727 8.34621094 -0.14648438 6.9140625 C-0.11120476 4.60912779 -0.05739966 2.30448995 0 0 Z M6 3 C6 3.66 6 4.32 6 5 C6.66 5 7.32 5 8 5 C8 4.34 8 3.68 8 3 C7.34 3 6.68 3 6 3 Z M5 5 C4.95875 6.258125 4.9175 7.51625 4.875 8.8125 C4.85179687 9.52019531 4.82859375 10.22789063 4.8046875 10.95703125 C4.86745538 13.31359719 4.86745538 13.31359719 7 16 C7.99 15.67 8.98 15.34 10 15 C9.67 13.68 9.34 12.36 9 11 C8.34 11 7.68 11 7 11 C6.67 9.02 6.34 7.04 6 5 C5.67 5 5.34 5 5 5 Z M3 18 C4 20 4 20 4 20 Z M17 20 C16.67 20.66 16.34 21.32 16 22 C16.66 22 17.32 22 18 22 C17.67 21.34 17.34 20.68 17 20 Z M8 23 C8 23.33 8 23.66 8 24 C10.31 24 12.62 24 15 24 C15 23.67 15 23.34 15 23 C12.69 23 10.38 23 8 23 Z " fill="#050505" transform="translate(137,104)"/>
<path d="M0 0 C2.97 0 5.94 0 9 0 C9 3.63 9 7.26 9 11 C8.01 11 7.02 11 6 11 C6.33 12.65 6.66 14.3 7 16 C9.34770643 12.47844036 9.37669614 10.49228157 9.625 6.3125 C9.69976562 5.13300781 9.77453125 3.95351562 9.8515625 2.73828125 C9.90054687 1.83464844 9.94953125 0.93101563 10 0 C10.66 0 11.32 0 12 0 C12.33 4.95 12.66 9.9 13 15 C13.99 14.67 14.98 14.34 16 14 C16 10.04 16 6.08 16 2 C15.01 2 14.02 2 13 2 C13 1.34 13 0.68 13 0 C16 0 19 0 22 0 C22.08120751 2.89640118 22.14059421 5.79050912 22.1875 8.6875 C22.21263672 9.50412109 22.23777344 10.32074219 22.26367188 11.16210938 C22.32230982 15.98996725 22.0692882 19.03741151 19 23 C18.566875 23.5775 18.13375 24.155 17.6875 24.75 C15.11069795 26.65874226 13.19419436 26.87714637 10 27 C5.35379406 25.50376419 2.52228342 24.2020838 0 20 C-0.34057617 17.70996094 -0.34057617 17.70996094 -0.29296875 15.234375 C-0.28330078 14.34492187 -0.27363281 13.45546875 -0.26367188 12.5390625 C-0.23853516 11.61867188 -0.21339844 10.69828125 -0.1875 9.75 C-0.16719727 8.34621094 -0.16719727 8.34621094 -0.14648438 6.9140625 C-0.11120476 4.60912779 -0.05739966 2.30448995 0 0 Z M5 4 C6 6 6 6 6 6 Z M4 8 C5 10 5 10 5 10 Z M2 12 C2 14.31 2 16.62 2 19 C2.33 19 2.66 19 3 19 C3 16.69 3 14.38 3 12 C2.67 12 2.34 12 2 12 Z M18 16 C19 20 19 20 19 20 Z M3 19 C4 21 4 21 4 21 Z M7 23 C7 23.33 7 23.66 7 24 C9.31 24 11.62 24 14 24 C14 23.67 14 23.34 14 23 C11.69 23 9.38 23 7 23 Z " fill="#050505" transform="translate(249,104)"/>
<path d="M0 0 C2.87029869 1.79393668 4.49131638 2.98263276 6 6 C6.08449628 7.7404417 6.10723024 9.48409722 6.09765625 11.2265625 C6.09443359 12.2578125 6.09121094 13.2890625 6.08789062 14.3515625 C6.07951172 15.43179688 6.07113281 16.51203125 6.0625 17.625 C6.05798828 18.71296875 6.05347656 19.8009375 6.04882812 20.921875 C6.03701776 23.61463789 6.02054778 26.30729188 6 29 C5.34 29 4.68 29 4 29 C3.67 21.74 3.34 14.48 3 7 C0.525 6.505 0.525 6.505 -2 6 C-3.33542939 5.67516582 -4.66961551 5.3449145 -6 5 C-5.67257813 5.97066406 -5.34515625 6.94132812 -5.0078125 7.94140625 C-3.76218783 12.3010926 -3.7746596 16.43375972 -3.875 20.9375 C-3.88402344 21.71673828 -3.89304688 22.49597656 -3.90234375 23.29882812 C-3.92566309 25.19935447 -3.96152414 27.09972008 -4 29 C-7.96 29 -11.92 29 -16 29 C-16.10831658 25.62413315 -16.18746727 22.25176769 -16.25 18.875 C-16.28351563 17.92367187 -16.31703125 16.97234375 -16.3515625 15.9921875 C-16.43293103 10.13365311 -16.06343603 6.57501971 -12 2 C-7.98141405 -0.6790573 -4.72358279 -0.69610694 0 0 Z M-7 2 C-7 2.33 -7 2.66 -7 3 C-5.35 3 -3.7 3 -2 3 C-2 2.67 -2 2.34 -2 2 C-3.65 2 -5.3 2 -7 2 Z M-12 5 C-11 7 -11 7 -11 7 Z M-13 7 C-12 9 -12 9 -12 9 Z " fill="#020202" transform="translate(153,50)"/>
<path d="M0 0 C0.66 0 1.32 0 2 0 C2.07432418 5.03536777 2.12868401 10.07041408 2.16479492 15.10620117 C2.1798534 16.81817184 2.20030455 18.53010411 2.22631836 20.24194336 C2.2628319 22.70696505 2.27975562 25.17147535 2.29296875 27.63671875 C2.30845261 28.39836838 2.32393646 29.16001801 2.33988953 29.94474792 C2.34132435 34.50624759 1.78070615 37.35524465 -1 41 C-3.54507124 43.54507124 -4.59859456 43.97684199 -8.25 44.1875 C-9.61125 44.0946875 -9.61125 44.0946875 -11 44 C-10.67 43.34 -10.34 42.68 -10 42 C-8.68 42 -7.36 42 -6 42 C-5.74969023 39.58380177 -5.74969023 39.58380177 -6 37 C-6.99 36.34 -7.98 35.68 -9 35 C-11.08150964 28.75547107 -10.37681259 21.36775821 -9 15 C-8.67 15 -8.34 15 -8 15 C-7.67 20.61 -7.34 26.22 -7 32 C-5.68 32.33 -4.36 32.66 -3 33 C-3.33 24.42 -3.66 15.84 -4 7 C-3.01 7 -2.02 7 -1 7 C-0.67 4.69 -0.34 2.38 0 0 Z M-2 36 C-1 38 -1 38 -1 38 Z " fill="#101010" transform="translate(420,86)"/>
<path d="M0 0 C1.65 0 3.3 0 5 0 C5.33 0.99 5.66 1.98 6 3 C5.01 3.33 4.02 3.66 3 4 C3 3.34 3 2.68 3 2 C2.34 2 1.68 2 1 2 C1.48748466 2.83777481 1.48748466 2.83777481 1.9848175 3.69247437 C3.13419629 6.30503025 3.24765671 8.07649348 3.24291992 10.92041016 C3.24599655 11.89466949 3.24907318 12.86892883 3.25224304 13.87271118 C3.24505753 14.91760712 3.23787201 15.96250305 3.23046875 17.0390625 C3.22978142 18.6548671 3.22978142 18.6548671 3.2290802 20.30331421 C3.22606136 22.57787174 3.21818608 24.85242726 3.20581055 27.12695312 C3.18753369 30.61856359 3.18530105 34.10990915 3.18554688 37.6015625 C3.18063234 39.80989814 3.17480431 42.01823197 3.16796875 44.2265625 C3.16685593 45.2755069 3.1657431 46.32445129 3.16459656 47.40518188 C3.15821671 48.3731369 3.15183685 49.34109192 3.14526367 50.33837891 C3.14145187 51.1923526 3.13764008 52.04632629 3.13371277 52.92617798 C3 55 3 55 2 57 C1.34 57 0.68 57 0 57 C-0.89403588 53.93260667 -1.12647815 51.19394452 -1.12939453 48.00366211 C-1.13254669 47.01260971 -1.13569885 46.02155731 -1.13894653 45.00047302 C-1.1369223 43.93684036 -1.13489807 42.8732077 -1.1328125 41.77734375 C-1.13376923 40.68031631 -1.13472595 39.58328888 -1.13571167 38.45301819 C-1.13639178 36.13558902 -1.13454924 33.81815793 -1.13037109 31.50073242 C-1.12501539 27.94771056 -1.13032445 24.39481483 -1.13671875 20.84179688 C-1.13605804 18.59114555 -1.13477702 16.34049431 -1.1328125 14.08984375 C-1.13483673 13.02418686 -1.13686096 11.95852997 -1.13894653 10.86058044 C-1.13579437 9.87268021 -1.13264221 8.88477997 -1.12939453 7.86694336 C-1.12859894 6.99742538 -1.12780334 6.12790741 -1.12698364 5.23204041 C-1 3 -1 3 0 0 Z " fill="#434446" transform="translate(58,66)"/>
<path d="M0 0 C0.33 0.99 0.66 1.98 1 3 C-1.64 2.34 -4.28 1.68 -7 1 C-6.67 1.61875 -6.34 2.2375 -6 2.875 C-5 5 -5 5 -5 7 C-4.67 7.33 -4.34 7.66 -4 8 C-3.92674832 10.86267567 -3.90761795 13.700719 -3.9375 16.5625 C-3.94201172 17.36880859 -3.94652344 18.17511719 -3.95117188 19.00585938 C-3.96299482 21.00393756 -3.98093086 23.00197783 -4 25 C-6.64 25 -9.28 25 -12 25 C-12.66 17.74 -13.32 10.48 -14 3 C-6.125 -1.5 -6.125 -1.5 0 0 Z " fill="#020202" transform="translate(334,54)"/>
<path d="M0 0 C0.66 0.33 1.32 0.66 2 1 C2 1.66 2 2.32 2 3 C-0.31 2.67 -2.62 2.34 -5 2 C-5 2.66 -5 3.32 -5 4 C-4.34 4 -3.68 4 -3 4 C-1.82299952 8.62459244 -1.88591588 13.07866462 -1.9375 17.8125 C-1.94201172 18.60076172 -1.94652344 19.38902344 -1.95117188 20.20117188 C-1.96288688 22.13414761 -1.98082002 24.06708393 -2 26 C-4.97 26 -7.94 26 -11 26 C-10.88608776 22.58263266 -10.75933448 19.16657357 -10.625 15.75 C-10.5940625 14.78191406 -10.563125 13.81382813 -10.53125 12.81640625 C-10.49257813 11.88183594 -10.45390625 10.94726562 -10.4140625 9.984375 C-10.3826416 9.12553711 -10.3512207 8.26669922 -10.31884766 7.38183594 C-9.97789815 4.83489613 -9.36225106 3.17016095 -8 1 C-5.26094655 -0.36952673 -3.02912668 -0.12621361 0 0 Z " fill="#0B0B0B" transform="translate(379,53)"/>
<path d="M0 0 C2.64 0 5.28 0 8 0 C8 0.66 8 1.32 8 2 C13.94 2 19.88 2 26 2 C26.33 3.65 26.66 5.3 27 7 C24.62284268 8.18857866 23.25102867 8.08708652 20.60546875 8.02734375 C19.29545898 8.00897461 19.29545898 8.00897461 17.95898438 7.99023438 C16.12296369 7.95529952 14.28701568 7.91628945 12.45117188 7.87304688 C7.85248247 7.81560549 4.16784878 7.77190474 0 10 C0 9.01 0 8.02 0 7 C0.66 7 1.32 7 2 7 C2 6.34 2 5.68 2 5 C1.34 5 0.68 5 0 5 C-0.33 4.01 -0.66 3.02 -1 2 C-0.67 1.34 -0.34 0.68 0 0 Z " fill="#040404" transform="translate(52,58)"/>
<path d="M0 0 C2.125 -0.4375 2.125 -0.4375 5 0 C7.276147 2.12689146 9.1458722 4.5023433 11 7 C11.33 5.68 11.66 4.36 12 3 C11.34 3 10.68 3 10 3 C10 2.01 10 1.02 10 0 C12.31 0 14.62 0 17 0 C16.34 4.95 15.68 9.9 15 15 C10.3556822 13.83892055 9.76393966 12.68525288 7 9 C6.34 8.67 5.68 8.34 5 8 C5 9.32 5 10.64 5 12 C5.66 12 6.32 12 7 12 C7 12.99 7 13.98 7 15 C4.69 15 2.38 15 0 15 C0.66 11.04 1.32 7.08 2 3 C1.34 3 0.68 3 0 3 C0 2.01 0 1.02 0 0 Z " fill="#2C2C2C" transform="translate(365,82)"/>
<path d="M0 0 C2.31 0 4.62 0 7 0 C7 0.99 7 1.98 7 3 C6.34 3 5.68 3 5 3 C5.33 3.99 5.66 4.98 6 6 C7.65 6 9.3 6 11 6 C11.33 5.01 11.66 4.02 12 3 C11.34 3 10.68 3 10 3 C10 2.01 10 1.02 10 0 C12.31 0 14.62 0 17 0 C17 0.99 17 1.98 17 3 C16.34 3 15.68 3 15 3 C15 5.97 15 8.94 15 12 C15.66 12 16.32 12 17 12 C17 12.99 17 13.98 17 15 C14.69 15 12.38 15 10 15 C10 14.01 10 13.02 10 12 C10.66 12 11.32 12 12 12 C12 11.34 12 10.68 12 10 C9.69 10 7.38 10 5 10 C5 10.66 5 11.32 5 12 C5.66 12 6.32 12 7 12 C7 12.99 7 13.98 7 15 C4.69 15 2.38 15 0 15 C0.66 11.04 1.32 7.08 2 3 C1.34 3 0.68 3 0 3 C0 2.01 0 1.02 0 0 Z " fill="#111111" transform="translate(98,82)"/>
<path d="M0 0 C2.31 0 4.62 0 7 0 C7 0.99 7 1.98 7 3 C6.34 3 5.68 3 5 3 C5 4.32 5 5.64 5 7 C7.31 7 9.62 7 12 7 C12 5.68 12 4.36 12 3 C11.34 3 10.68 3 10 3 C10 2.01 10 1.02 10 0 C12.31 0 14.62 0 17 0 C17 0.99 17 1.98 17 3 C16.34 3 15.68 3 15 3 C15 5.97 15 8.94 15 12 C15.66 12 16.32 12 17 12 C17 12.99 17 13.98 17 15 C14.69 15 12.38 15 10 15 C10 14.01 10 13.02 10 12 C10.66 12 11.32 12 12 12 C12 11.34 12 10.68 12 10 C9.69 10 7.38 10 5 10 C5 10.66 5 11.32 5 12 C5.66 12 6.32 12 7 12 C7 12.99 7 13.98 7 15 C4.69 15 2.38 15 0 15 C0.66 11.04 1.32 7.08 2 3 C1.34 3 0.68 3 0 3 C0 2.01 0 1.02 0 0 Z " fill="#151517" transform="translate(263,82)"/>
<path d="M0 0 C8.00526316 -0.61578947 8.00526316 -0.61578947 11.625 1.625 C13 4 13 4 12.8125 7.125 C12 10 12 10 11 12 C11.66 12 12.32 12 13 12 C13 12.99 13 13.98 13 15 C12.195625 14.814375 11.39125 14.62875 10.5625 14.4375 C9.716875 14.293125 8.87125 14.14875 8 14 C7.67 14.33 7.34 14.66 7 15 C4.66702567 15.04092937 2.33294775 15.04241723 0 15 C0.14095064 13.3745692 0.28792087 11.74965949 0.4375 10.125 C0.51871094 9.22007813 0.59992188 8.31515625 0.68359375 7.3828125 C1 5 1 5 2 3 C1.34 3 0.68 3 0 3 C0 2.01 0 1.02 0 0 Z M5 3 C5.33 4.65 5.66 6.3 6 8 C6.99 7.67 7.98 7.34 9 7 C9 6.01 9 5.02 9 4 C7.68 3.67 6.36 3.34 5 3 Z " fill="#282828" transform="translate(315,82)"/>
<path d="M0 0 C0.66 0.33 1.32 0.66 2 1 C2.02505615 1.58491211 2.0501123 2.16982422 2.07592773 2.77246094 C2.19222962 5.43184471 2.31480067 8.09090403 2.4375 10.75 C2.47681641 11.67039062 2.51613281 12.59078125 2.55664062 13.5390625 C2.61948242 14.87324219 2.61948242 14.87324219 2.68359375 16.234375 C2.72025146 17.05131836 2.75690918 17.86826172 2.79467773 18.70996094 C2.99134275 20.9034423 3.40300594 22.88396413 4 25 C2.02 25.99 2.02 25.99 0 27 C0 26.34 0 25.68 0 25 C-0.99 24.67 -1.98 24.34 -3 24 C-3 23.01 -3 22.02 -3 21 C-4.32 20.34 -5.64 19.68 -7 19 C-7 18.34 -7 17.68 -7 17 C-7.66 17 -8.32 17 -9 17 C-9.99 14.69 -10.98 12.38 -12 10 C-11.34 9.34 -10.68 8.68 -10 8 C-8.02 10.97 -6.04 13.94 -4 17 C-4.33 15.35 -4.66 13.7 -5 12 C-3.68 11.67 -2.36 11.34 -1 11 C-1.66 9.68 -2.32 8.36 -3 7 C-2.34 7 -1.68 7 -1 7 C-1.020625 6.030625 -1.04125 5.06125 -1.0625 4.0625 C-1 1 -1 1 0 0 Z " fill="#101010" transform="translate(457,94)"/>
<path d="M0 0 C1.98 0 3.96 0 6 0 C6.98163422 1.93625098 7.96022454 3.87404539 8.9375 5.8125 C9.48277344 6.89144531 10.02804688 7.97039062 10.58984375 9.08203125 C12 12 12 12 13 15 C10.69 15 8.38 15 6 15 C6 14.01 6 13.02 6 12 C5.01 12 4.02 12 3 12 C3 12.99 3 13.98 3 15 C0.69 15 -1.62 15 -4 15 C-4 14.01 -4 13.02 -4 12 C-3 11 -2 10 -1 9 C0.04622875 7.02379014 1.05439935 5.0262871 2 3 C1.34 3 0.68 3 0 3 C0 2.01 0 1.02 0 0 Z " fill="#363636" transform="translate(128,82)"/>
<path d="M0 0 C1.98 0 3.96 0 6 0 C6 3.63 6 7.26 6 11 C7.32 11 8.64 11 10 11 C10.33 8.36 10.66 5.72 11 3 C10.34 3 9.68 3 9 3 C9 2.01 9 1.02 9 0 C11.31 0 13.62 0 16 0 C16 0.99 16 1.98 16 3 C15.34 3 14.68 3 14 3 C14.04640625 3.68707031 14.0928125 4.37414062 14.140625 5.08203125 C14.17671875 5.98308594 14.2128125 6.88414063 14.25 7.8125 C14.29640625 8.70582031 14.3428125 9.59914063 14.390625 10.51953125 C14 13 14 13 12.17578125 14.82421875 C10 16 10 16 6.9375 16 C4 15 4 15 2.1875 13.0625 C0.52581653 8.77710579 0.25694647 4.56301481 0 0 Z " fill="#212121" transform="translate(339,82)"/>
<path d="M0 0 C1.98 0 3.96 0 6 0 C6.98163422 1.93625098 7.96022454 3.87404539 8.9375 5.8125 C9.48277344 6.89144531 10.02804687 7.97039062 10.58984375 9.08203125 C12 12 12 12 13 15 C10.69 15 8.38 15 6 15 C6 14.01 6 13.02 6 12 C5.01 12 4.02 12 3 12 C3 12.99 3 13.98 3 15 C0.69 15 -1.62 15 -4 15 C-2 11 0 7 2 3 C1.34 3 0.68 3 0 3 C0 2.01 0 1.02 0 0 Z " fill="#474747" transform="translate(293,82)"/>
<path d="M0 0 C0.66 0 1.32 0 2 0 C2.06958973 7.86700599 2.12285667 15.73393952 2.15543652 23.60117626 C2.17107533 27.25449198 2.19228048 30.90759671 2.22631836 34.56079102 C2.25897625 38.08805216 2.27686644 41.61511068 2.28463173 45.14251137 C2.29285133 47.13944308 2.31626061 49.13629358 2.33988953 51.13310242 C2.34011612 52.35399063 2.34034271 53.57487885 2.34057617 54.83276367 C2.34723801 55.90531906 2.35389984 56.97787445 2.36076355 58.08293152 C1.94775602 61.4224353 1.02434926 63.33083134 -1 66 C-1.66 66 -2.32 66 -3 66 C-2.67657623 65.30219925 -2.35315247 64.6043985 -2.01992798 63.88545227 C-0.8917027 60.69361887 -0.72313385 58.21227516 -0.68115234 54.83276367 C-0.66128265 53.61187546 -0.64141296 52.39098724 -0.62094116 51.13310242 C-0.60938995 49.82460831 -0.59783875 48.5161142 -0.5859375 47.16796875 C-0.56721453 45.80746806 -0.54764027 44.44697883 -0.5272522 43.08650208 C-0.47604398 39.51753521 -0.43635813 35.94853074 -0.39910889 32.37939453 C-0.35899799 28.73265365 -0.30793808 25.08606766 -0.2578125 21.43945312 C-0.16118739 14.29308232 -0.07673999 7.14661425 0 0 Z " fill="#0B0B0E" transform="translate(464,60)"/>
<path d="M0 0 C1.98 0 3.96 0 6 0 C6.98163422 1.93625098 7.96022454 3.87404539 8.9375 5.8125 C9.48277344 6.89144531 10.02804688 7.97039062 10.58984375 9.08203125 C12 12 12 12 13 15 C10.69 15 8.38 15 6 15 C6 14.01 6 13.02 6 12 C5.01 12 4.02 12 3 12 C3 12.99 3 13.98 3 15 C0.69 15 -1.62 15 -4 15 C-2 11 0 7 2 3 C1.34 3 0.68 3 0 3 C0 2.01 0 1.02 0 0 Z M4 6 C5 9 5 9 5 9 Z " fill="#2C2C2E" transform="translate(203,82)"/>
<path d="M0 0 C2 1 4 2 6 3 C8.37402501 3.07116382 10.75000677 3.08409085 13.125 3.0625 C14.40632813 3.05347656 15.68765625 3.04445313 17.0078125 3.03515625 C18.48894531 3.01775391 18.48894531 3.01775391 20 3 C20 3.66 20 4.32 20 5 C20.99 5.33 21.98 5.66 23 6 C23.05805933 10.24994263 23.09361654 14.49978324 23.125 18.75 C23.15013672 20.55984375 23.15013672 20.55984375 23.17578125 22.40625 C23.18222656 23.56640625 23.18867187 24.7265625 23.1953125 25.921875 C23.20578613 26.99018555 23.21625977 28.05849609 23.22705078 29.15917969 C23 32 23 32 21 36 C21 26.43 21 16.86 21 7 C16.38 7 11.76 7 7 7 C1 4 1 4 0.125 1.8125 C0.08375 1.214375 0.0425 0.61625 0 0 Z " fill="#020202" transform="translate(19,63)"/>
<path d="M0 0 C0 1.98 0 3.96 0 6 C-2.66666667 5.33333333 -5.33333333 4.66666667 -8 4 C-8.66 5.65 -9.32 7.3 -10 9 C-7.23776722 11.76223278 -4.79293383 11.57856291 -1 12 C-1 12.99 -1 13.98 -1 15 C-7.26535627 16.35135135 -7.26535627 16.35135135 -10.875 14.625 C-13 13 -13 13 -14 12 C-14.57068742 5.03761349 -14.57068742 5.03761349 -12.625 1.5 C-8.56988944 -0.81720603 -4.56419136 -0.3135704 0 0 Z " fill="#4D4D4E" transform="translate(88,82)"/>
<path d="M0 0 C2.31 0 4.62 0 7 0 C7.33 2.31 7.66 4.62 8 7 C9.4606285 4.35261084 10 3.10551666 10 0 C12.31 0 14.62 0 17 0 C17 3 17 3 15.63671875 4.39453125 C15.09660156 4.92433594 14.55648437 5.45414062 14 6 C12.7951851 8.26027345 12.7951851 8.26027345 11.8125 10.6875 C11.46832031 11.49574219 11.12414062 12.30398437 10.76953125 13.13671875 C10.51558594 13.75160156 10.26164063 14.36648437 10 15 C8.140625 14.77734375 8.140625 14.77734375 6 14 C4.734375 12.00390625 4.734375 12.00390625 3.75 9.5625 C3.24726563 8.35787109 3.24726563 8.35787109 2.734375 7.12890625 C2 5 2 5 2 3 C1.34 3 0.68 3 0 3 C0 2.01 0 1.02 0 0 Z " fill="#1D1D1F" transform="translate(149,82)"/>
<path d="M0 0 C2.31 0 4.62 0 7 0 C7.33 2.31 7.66 4.62 8 7 C9.4606285 4.35261084 10 3.10551666 10 0 C12.31 0 14.62 0 17 0 C17 0.99 17 1.98 17 3 C16.34 3 15.68 3 15 3 C14.731875 3.86625 14.46375 4.7325 14.1875 5.625 C13.02888013 8.91791964 11.61790161 11.91127875 10 15 C9.01 15 8.02 15 7 15 C6.66226563 14.21753906 6.32453125 13.43507813 5.9765625 12.62890625 C5.53054687 11.61699219 5.08453125 10.60507813 4.625 9.5625 C3.96371094 8.04849609 3.96371094 8.04849609 3.2890625 6.50390625 C2.24923714 3.87856453 2.24923714 3.87856453 0 3 C0 2.01 0 1.02 0 0 Z " fill="#232323" transform="translate(174,82)"/>
<path d="M0 0 C1.9375 0.5 1.9375 0.5 4 2 C4.68790422 4.69658452 4.81946464 7.2017019 5 10 C5.33 8.35 5.66 6.7 6 5 C6.66 5.33 7.32 5.66 8 6 C8 8.97 8 11.94 8 15 C7.34 15 6.68 15 6 15 C5.67 15.99 5.34 16.98 5 18 C4.01 18 3.02 18 2 18 C1.01 23.445 1.01 23.445 0 29 C-0.33 29 -0.66 29 -1 29 C-1.02891546 24.54168018 -1.04676981 20.08338431 -1.0625 15.625 C-1.07087891 14.35398437 -1.07925781 13.08296875 -1.08789062 11.7734375 C-1.09111328 10.56171875 -1.09433594 9.35 -1.09765625 8.1015625 C-1.10289307 6.98088379 -1.10812988 5.86020508 -1.11352539 4.70556641 C-1 2 -1 2 0 0 Z " fill="#0B0B0C" transform="translate(411,78)"/>
<path d="M0 0 C1.98 0 3.96 0 6 0 C6.33 0.99 6.66 1.98 7 3 C7.66 2.01 8.32 1.02 9 0 C9.99 0 10.98 0 12 0 C13.4606285 2.64738916 14 3.89448334 14 7 C13.34 7 12.68 7 12 7 C11.67 9.31 11.34 11.62 11 14 C10.21625 13.649375 9.4325 13.29875 8.625 12.9375 C7.75875 12.628125 6.8925 12.31875 6 12 C5.01 12.495 5.01 12.495 4 13 C-0.59225513 4.738041 -0.59225513 4.738041 0 0 Z M3 4 C4 6 4 6 4 6 Z M4 6 C5 9 5 9 5 9 Z " fill="#0A0A0A" transform="translate(319,104)"/>
<path d="M0 0 C0 0.99 0 1.98 0 3 C0.99 3.66 1.98 4.32 3 5 C3 5.66 3 6.32 3 7 C1.906875 6.649375 0.81375 6.29875 -0.3125 5.9375 C-3.90920373 4.66960546 -3.90920373 4.66960546 -7 6 C-7.33 5.34 -7.66 4.68 -8 4 C-10.05925681 7.08888522 -10.2390374 7.70935927 -10.125 11.1875 C-10.08375 12.445625 -10.0425 13.70375 -10 15 C-10.66 15 -11.32 15 -12 15 C-12 18.96 -12 22.92 -12 27 C-12.66 26.67 -13.32 26.34 -14 26 C-14.10845027 22.95736733 -14.18752063 19.91863796 -14.25 16.875 C-14.28351563 16.0190625 -14.31703125 15.163125 -14.3515625 14.28125 C-14.4402681 8.51538627 -13.80155181 5.40698414 -10 1 C-6.78548731 -0.60725635 -3.56387464 -0.05748185 0 0 Z " fill="#0C0C0C" transform="translate(461,50)"/>
<path d="M0 0 C4.95 0 9.9 0 15 0 C15 1.65 15 3.3 15 5 C14.01 5 13.02 5 12 5 C12 4.34 12 3.68 12 3 C11.34 3 10.68 3 10 3 C10 5.97 10 8.94 10 12 C10.66 12 11.32 12 12 12 C12 12.99 12 13.98 12 15 C9.69 15 7.38 15 5 15 C5 14.01 5 13.02 5 12 C5.66 12 6.32 12 7 12 C7 9.03 7 6.06 7 3 C6.34 3 5.68 3 5 3 C5 3.66 5 4.32 5 5 C3.35 4.67 1.7 4.34 0 4 C0 2.68 0 1.36 0 0 Z " fill="#101010" transform="translate(238,82)"/>
<path d="M0 0 C3.53555243 4.18814272 6.38750769 8.6567894 9.25 13.3125 C9.70890625 14.05306641 10.1678125 14.79363281 10.640625 15.55664062 C11.76330813 17.3693061 12.88205606 19.18440784 14 21 C14.33 19.35 14.66 17.7 15 16 C15.66 16.33 16.32 16.66 17 17 C17 19.31 17 21.62 17 24 C16.01 24.33 15.02 24.66 14 25 C10.12870241 20.2344209 6.4628311 15.36437556 3.0625 10.25 C2.47597656 9.36828125 1.88945312 8.4865625 1.28515625 7.578125 C-0.10655122 4.78624983 -0.27094559 3.07440299 0 0 Z " fill="#030304" transform="translate(432,60)"/>
<path d="M0 0 C0.66 0.33 1.32 0.66 2 1 C2 7.6 2 14.2 2 21 C1.01 20.67 0.02 20.34 -1 20 C-1.33 18.02 -1.66 16.04 -2 14 C-2.99 14 -3.98 14 -5 14 C-5 13.34 -5 12.68 -5 12 C-3.68 11.67 -2.36 11.34 -1 11 C-1.66 9.68 -2.32 8.36 -3 7 C-2.34 7 -1.68 7 -1 7 C-1.020625 6.030625 -1.04125 5.06125 -1.0625 4.0625 C-1 1 -1 1 0 0 Z " fill="#272729" transform="translate(457,94)"/>
<path d="M0 0 C1.32 0.33 2.64 0.66 4 1 C4 4.3 4 7.6 4 11 C4.66 11 5.32 11 6 11 C6 11.99 6 12.98 6 14 C3.69 14 1.38 14 -1 14 C-1 13.01 -1 12.02 -1 11 C-0.34 11 0.32 11 1 11 C1 10.34 1 9.68 1 9 C-1.31 9 -3.62 9 -6 9 C-6 10.32 -6 11.64 -6 13 C-6.66 13 -7.32 13 -8 13 C-8 11.02 -8 9.04 -8 7 C-4.7 7 -1.4 7 2 7 C2 5.02 2 3.04 2 1 C1.34 0.67 0.68 0.34 0 0 Z " fill="#2D2D2E" transform="translate(274,83)"/>
<path d="M0 0 C0.89589844 0.00322266 1.79179688 0.00644531 2.71484375 0.00976562 C4.12056641 0.02233398 4.12056641 0.02233398 5.5546875 0.03515625 C6.49957031 0.03966797 7.44445313 0.04417969 8.41796875 0.04882812 C10.75527137 0.06063268 13.09244811 0.07709866 15.4296875 0.09765625 C15.4296875 0.75765625 15.4296875 1.41765625 15.4296875 2.09765625 C16.0896875 2.09765625 16.7496875 2.09765625 17.4296875 2.09765625 C17.7596875 4.07765625 18.0896875 6.05765625 18.4296875 8.09765625 C16.4296875 5.09765625 16.4296875 5.09765625 16.4296875 3.09765625 C15.80400879 3.10812988 15.17833008 3.11860352 14.53369141 3.12939453 C11.7073974 3.17088816 8.88116739 3.19696098 6.0546875 3.22265625 C5.06984375 3.23941406 4.085 3.25617187 3.0703125 3.2734375 C2.12929688 3.27988281 1.18828125 3.28632812 0.21875 3.29296875 C-1.08521729 3.3086792 -1.08521729 3.3086792 -2.41552734 3.32470703 C-4.5703125 3.09765625 -4.5703125 3.09765625 -6.5703125 1.09765625 C-4.16971433 -0.10264283 -2.67670601 -0.01694118 0 0 Z " fill="#343434" transform="translate(32.5703125,57.90234375)"/>
<path d="M0 0 C1.24716797 0.01611328 2.49433594 0.03222656 3.77929688 0.04882812 C5.07287109 0.09072266 6.36644531 0.13261719 7.69921875 0.17578125 C9.01212891 0.19833984 10.32503906 0.22089844 11.67773438 0.24414062 C14.91522005 0.303004 18.15038875 0.38519321 21.38671875 0.48828125 C21.38671875 0.81828125 21.38671875 1.14828125 21.38671875 1.48828125 C20.58975586 1.52791992 19.79279297 1.56755859 18.97167969 1.60839844 C15.35870168 1.79899856 11.74802209 2.01830338 8.13671875 2.23828125 C6.88246094 2.30015625 5.62820313 2.36203125 4.3359375 2.42578125 C3.13066406 2.503125 1.92539062 2.58046875 0.68359375 2.66015625 C-0.42661133 2.72299805 -1.53681641 2.78583984 -2.68066406 2.85058594 C-6.19168292 3.61405424 -7.40301219 4.70654552 -9.61328125 7.48828125 C-10.86764312 10.12051087 -10.86764312 10.12051087 -11.61328125 12.48828125 C-11.94328125 12.48828125 -12.27328125 12.48828125 -12.61328125 12.48828125 C-12.37173859 8.38205604 -12.05681067 6.05015273 -9.47583008 2.78051758 C-5.99689798 -0.00529849 -4.4005498 -0.10046917 0 0 Z " fill="#131212" transform="translate(261.61328125,49.51171875)"/>
<path d="M0 0 C1.98 0 3.96 0 6 0 C6.625 2.375 6.625 2.375 7 5 C5.66666667 6.33333333 4.33333333 7.66666667 3 9 C3.66 9.33 4.32 9.66 5 10 C3.68 10 2.36 10 1 10 C1.33 11.65 1.66 13.3 2 15 C0.02 15 -1.96 15 -4 15 C-2 11 0 7 2 3 C1.34 3 0.68 3 0 3 C0 2.01 0 1.02 0 0 Z " fill="#2D2D2D" transform="translate(293,82)"/>
<path d="M0 0 C4.49529607 1.37356269 6.60234179 2.93617253 9 7 C9.48912822 10.78326467 9.37664089 14.50596698 9.25 18.3125 C9.23195313 19.33923828 9.21390625 20.36597656 9.1953125 21.42382812 C9.14831063 23.95017885 9.08262272 26.47460469 9 29 C8.34 29 7.68 29 7 29 C6.98541748 28.42032471 6.97083496 27.84064941 6.95581055 27.2434082 C6.88101472 24.59912447 6.78446102 21.95605998 6.6875 19.3125 C6.66494141 18.40048828 6.64238281 17.48847656 6.61914062 16.54882812 C6.3452801 9.70231506 5.03717231 5.79730696 0 1 C0 0.67 0 0.34 0 0 Z " fill="#030303" transform="translate(378,50)"/>
<path d="M0 0 C3.64140483 1.21380161 3.93505615 2.09337596 5.8125 5.33203125 C6.33070313 6.21310547 6.84890625 7.09417969 7.3828125 8.00195312 C8.18332031 9.39317383 8.18332031 9.39317383 9 10.8125 C10.06057155 12.63263547 11.1230079 14.4516859 12.1875 16.26953125 C12.65542969 17.08010986 13.12335938 17.89068848 13.60546875 18.72583008 C14.95520488 21.04518098 14.95520488 21.04518098 16.73828125 23.1081543 C17.15464844 23.73246338 17.57101562 24.35677246 18 25 C17.67 25.99 17.34 26.98 17 28 C12.62686258 21.97607561 8.53002314 15.79594824 4.5625 9.5 C4.11342285 8.79359375 3.6643457 8.0871875 3.20166016 7.359375 C0 2.23870351 0 2.23870351 0 0 Z " fill="#070708" transform="translate(425,57)"/>
<path d="M0 0 C0 1.98 0 3.96 0 6 C-0.99 5.67 -1.98 5.34 -3 5 C-2.67 4.01 -2.34 3.02 -2 2 C-7.01535052 2.32960216 -7.01535052 2.32960216 -11 5 C-11.16669318 8.45828022 -11.16669318 8.45828022 -11 12 C-11 12.99 -11 13.98 -11 15 C-12.5 14 -12.5 14 -14 12 C-14.4761505 7.71464551 -14.69868227 5.2703314 -12.625 1.5 C-8.56988944 -0.81720603 -4.56419136 -0.3135704 0 0 Z " fill="#252527" transform="translate(88,82)"/>
<path d="M0 0 C0.66 0.33 1.32 0.66 2 1 C2 9.91 2 18.82 2 28 C1.34 27.67 0.68 27.34 0 27 C-0.19582583 22.68783519 -0.38027074 18.3752591 -0.5625 14.0625 C-0.61857422 12.83080078 -0.67464844 11.59910156 -0.73242188 10.33007812 C-0.78076172 9.16025391 -0.82910156 7.99042969 -0.87890625 6.78515625 C-0.9260376 5.70113525 -0.97316895 4.61711426 -1.02172852 3.50024414 C-1 1 -1 1 0 0 Z " fill="#222021" transform="translate(417,92)"/>
<path d="M0 0 C0.99 0.33 1.98 0.66 3 1 C4.23076923 6.41538462 4.23076923 6.41538462 3.0625 9.375 C2.711875 9.91125 2.36125 10.4475 2 11 C2.66 11 3.32 11 4 11 C4 11.99 4 12.98 4 14 C2.35 13.67 0.7 13.34 -1 13 C-1.125 6.375 -1.125 6.375 0 3 C-1.65 2.67 -3.3 2.34 -5 2 C-4.360625 1.855625 -3.72125 1.71125 -3.0625 1.5625 C-1.02454854 1.18992819 -1.02454854 1.18992819 0 0 Z " fill="#202020" transform="translate(324,83)"/>
<path d="M0 0 C0.33 0 0.66 0 1 0 C1.33 3.63 1.66 7.26 2 11 C2.33 11 2.66 11 3 11 C3 14.3 3 17.6 3 21 C1.68 21 0.36 21 -1 21 C-1.0270203 18.24993392 -1.04684883 15.50013454 -1.0625 12.75 C-1.07087891 11.97269531 -1.07925781 11.19539063 -1.08789062 10.39453125 C-1.09111328 9.64042969 -1.09433594 8.88632813 -1.09765625 8.109375 C-1.10289307 7.41811523 -1.10812988 6.72685547 -1.11352539 6.01464844 C-0.99437971 3.90026102 -0.57618237 2.03358485 0 0 Z " fill="#0E0E0F" transform="translate(319,58)"/>
<path d="M0 0 C0.66 0 1.32 0 2 0 C2.3125 2.75 2.3125 2.75 2 6 C-0.89485377 9.11753483 -2.49995865 9.94818224 -6.76953125 10.390625 C-8.11774585 10.36431837 -9.46569518 10.31701804 -10.8125 10.25 C-11.50537109 10.23195313 -12.19824219 10.21390625 -12.91210938 10.1953125 C-14.60867664 10.14851064 -16.30452476 10.07677624 -18 10 C-18 9.34 -18 8.68 -18 8 C-16.53626953 7.92652344 -16.53626953 7.92652344 -15.04296875 7.8515625 C-13.77066406 7.77679688 -12.49835938 7.70203125 -11.1875 7.625 C-9.29064453 7.52058594 -9.29064453 7.52058594 -7.35546875 7.4140625 C-3.87244766 7.23897061 -3.87244766 7.23897061 -1 5 C-0.27034634 2.43717258 -0.27034634 2.43717258 0 0 Z " fill="#5F5D5E" transform="translate(81,58)"/>
<path d="M0 0 C2.31 0 4.62 0 7 0 C7 3 7 3 5.63671875 4.39453125 C5.09660156 4.92433594 4.55648437 5.45414062 4 6 C2.7951851 8.26027345 2.7951851 8.26027345 1.8125 10.6875 C1.46832031 11.49574219 1.12414062 12.30398437 0.76953125 13.13671875 C0.51558594 13.75160156 0.26164063 14.36648437 0 15 C-1.32 14.67 -2.64 14.34 -4 14 C-3 12 -3 12 -0.875 10.375 C1.20096132 8.23744264 1.20096132 8.23744264 1.0390625 5.9609375 C0.77758889 3.96101776 0.3955545 1.9777725 0 0 Z " fill="#181819" transform="translate(159,82)"/>
<path d="M0 0 C4.75237499 -0.4752375 8.65599679 -0.81337302 12.5625 2.25 C15 5 15 5 15 9 C14.34 9 13.68 9 13 9 C12.649375 8.21625 12.29875 7.4325 11.9375 6.625 C9.67905126 3.56516622 8.96370493 3.51204153 5.375 2.8125 C4.57835938 2.69519531 3.78171875 2.57789063 2.9609375 2.45703125 C2.31382813 2.30621094 1.66671875 2.15539063 1 2 C0.67 1.34 0.34 0.68 0 0 Z M10 8 C10.99 8.33 11.98 8.66 13 9 C12.01 10.485 12.01 10.485 11 12 C10.67 10.68 10.34 9.36 10 8 Z " fill="#0C0B0B" transform="translate(99,50)"/>
<path d="M0 0 C0.66 0.33 1.32 0.66 2 1 C2 3.64 2 6.28 2 9 C1.34 9 0.68 9 0 9 C0 12.96 0 16.92 0 21 C-0.66 20.67 -1.32 20.34 -2 20 C-2.26618595 13.04958914 -1.6120509 6.76485645 0 0 Z " fill="#252525" transform="translate(449,56)"/>
<path d="M0 0 C1.65 0 3.3 0 5 0 C5.33 1.65 5.66 3.3 6 5 C5.67 5 5.34 5 5 5 C5 7.97 5 10.94 5 14 C4.01 14 3.02 14 2 14 C2 10.37 2 6.74 2 3 C1.34 3 0.68 3 0 3 C0 2.01 0 1.02 0 0 Z " fill="#404040" transform="translate(365,82)"/>
<path d="M0 0 C4.875 4.625 4.875 4.625 6 8 C5.67 8.33 5.34 8.66 5 9 C5.33 9.99 5.66 10.98 6 12 C4.68 12.33 3.36 12.66 2 13 C1.33333333 10.33333333 0.66666667 7.66666667 0 5 C-0.20753906 4.27296875 -0.41507812 3.5459375 -0.62890625 2.796875 C-0.75136719 2.20390625 -0.87382812 1.6109375 -1 1 C-0.67 0.67 -0.34 0.34 0 0 Z " fill="#111012" transform="translate(450,93)"/>
<path d="M0 0 C1.65 1.32 3.3 2.64 5 4 C4.67 4.66 4.34 5.32 4 6 C2.35 5.67 0.7 5.34 -1 5 C-1 6.32 -1 7.64 -1 9 C-0.34 9 0.32 9 1 9 C1 9.99 1 10.98 1 12 C-1.31 12 -3.62 12 -6 12 C-5.67 11.01 -5.34 10.02 -5 9 C-4.67 9.66 -4.34 10.32 -4 11 C-3.34 10.67 -2.68 10.34 -2 10 C-2 7.03 -2 4.06 -2 1 C-1.34 0.67 -0.68 0.34 0 0 Z " fill="#121212" transform="translate(371,85)"/>
<path d="M0 0 C2 2 2 2 2.22705078 4.06298828 C2.21657715 4.89040527 2.20610352 5.71782227 2.1953125 6.5703125 C2.18886719 7.46621094 2.18242187 8.36210938 2.17578125 9.28515625 C2.15902344 10.22230469 2.14226562 11.15945312 2.125 12.125 C2.11597656 13.06988281 2.10695313 14.01476562 2.09765625 14.98828125 C2.07404522 17.32577292 2.04111516 19.66276123 2 22 C1.34 22 0.68 22 0 22 C0 14.74 0 7.48 0 0 Z " fill="#0B0B0C" transform="translate(382,57)"/>
<path d="M0 0 C0.66 0 1.32 0 2 0 C2 6.93 2 13.86 2 21 C1.34 21 0.68 21 0 21 C0 14.07 0 7.14 0 0 Z " fill="#030303" transform="translate(154,58)"/>
<path d="M0 0 C2 1 4 2 6 3 C8.04055005 3.07065617 10.08334257 3.08421976 12.125 3.0625 C13.22070312 3.05347656 14.31640625 3.04445313 15.4453125 3.03515625 C16.28835937 3.02355469 17.13140625 3.01195313 18 3 C18 3.66 18 4.32 18 5 C15.75308523 5.2763585 13.50215158 5.52018861 11.25 5.75 C9.99703125 5.88921875 8.7440625 6.0284375 7.453125 6.171875 C4 6 4 6 1.546875 4.140625 C0 2 0 2 0 0 Z " fill="#5D5C5D" transform="translate(19,63)"/>
<path d="M0 0 C0.74958984 0.00451172 1.49917969 0.00902344 2.27148438 0.01367188 C4.11852383 0.02543646 5.96552213 0.04337135 7.8125 0.0625 C8.1425 0.7225 8.4725 1.3825 8.8125 2.0625 C5.87505476 2.23018291 2.93755096 2.39668858 0 2.5625 C-0.83337891 2.61019531 -1.66675781 2.65789062 -2.52539062 2.70703125 C-3.32783203 2.75214844 -4.13027344 2.79726562 -4.95703125 2.84375 C-5.69542236 2.88564453 -6.43381348 2.92753906 -7.19458008 2.97070312 C-8.85740494 3.04729533 -10.5229121 3.0625 -12.1875 3.0625 C-9.97894074 -1.35461851 -4.30476406 -0.04887505 0 0 Z " fill="#222223" transform="translate(198.1875,117.9375)"/>
<path d="M0 0 C5.02388736 6.16567994 5.26956487 11.28744954 5 19 C4.34 19 3.68 19 3 19 C2.87882812 18.19175781 2.75765625 17.38351563 2.6328125 16.55078125 C2.46523438 15.48214844 2.29765625 14.41351563 2.125 13.3125 C1.96257812 12.25675781 1.80015625 11.20101562 1.6328125 10.11328125 C1.10111833 7.00136449 1.10111833 7.00136449 -0.1328125 4.23046875 C-0.41898437 3.49441406 -0.70515625 2.75835937 -1 2 C-0.67 1.34 -0.34 0.68 0 0 Z " fill="#020102" transform="translate(300,60)"/>
<path d="M0 0 C3.70247552 1.23415851 4.37236153 2.89340303 6.1484375 6.2421875 C8.36070506 10.80879485 8.08340207 14.99587561 8 20 C7.34 20 6.68 20 6 20 C5.85304688 18.80503906 5.85304688 18.80503906 5.703125 17.5859375 C4.81558992 11.29668027 3.94120515 6.99219319 0 2 C0 1.34 0 0.68 0 0 Z " fill="#0A0909" transform="translate(294,59)"/>
<path d="M0 0 C0 1.65 0 3.3 0 5 C-1.0828125 4.7525 -1.0828125 4.7525 -2.1875 4.5 C-4.86427545 4.02412881 -7.28949487 3.922557 -10 4 C-10.33 3.01 -10.66 2.02 -11 1 C-6.92630576 -1.03684712 -4.41062136 -1.0257259 0 0 Z " fill="#090909" transform="translate(211,107)"/>
<path d="M0 0 C2.31 0 4.62 0 7 0 C7 0.99 7 1.98 7 3 C6.34 3 5.68 3 5 3 C5 5.64 5 8.28 5 11 C4.01 11.495 4.01 11.495 3 12 C2.67 9.03 2.34 6.06 2 3 C1.34 3 0.68 3 0 3 C0 2.01 0 1.02 0 0 Z " fill="#2F2F2F" transform="translate(108,82)"/>
<path d="M0 0 C0 3.96 0 7.92 0 12 C-0.99 12.33 -1.98 12.66 -3 13 C-3 9.04 -3 5.08 -3 1 C-1 0 -1 0 0 0 Z " fill="#131313" transform="translate(252,66)"/>
<path d="M0 0 C0.66 0 1.32 0 2 0 C2 0.66 2 1.32 2 2 C2.66 2 3.32 2 4 2 C4 2.66 4 3.32 4 4 C-0.95 4 -5.9 4 -11 4 C-11.33 3.34 -11.66 2.68 -12 2 C-8.04 2 -4.08 2 0 2 C0 1.34 0 0.68 0 0 Z " fill="#0E0C0D" transform="translate(37,66)"/>
<path d="M0 0 C2 3 2 3 1.625 5.1875 C1.41875 5.785625 1.2125 6.38375 1 7 C0.67 5.68 0.34 4.36 0 3 C-0.66 3 -1.32 3 -2 3 C-2 4.65 -2 6.3 -2 8 C-2.99 8.33 -3.98 8.66 -5 9 C-4.773125 8.236875 -4.54625 7.47375 -4.3125 6.6875 C-4.209375 5.800625 -4.10625 4.91375 -4 4 C-5.33378575 2.1645201 -5.33378575 2.1645201 -7 1 C-4 0 -4 0 0 0 Z " fill="#292829" transform="translate(83,55)"/>
<path d="M0 0 C3.4375 0.8125 3.4375 0.8125 5.4375 3.8125 C2.7975 3.4825 0.1575 3.1525 -2.5625 2.8125 C-3.5525 4.1325 -4.5425 5.4525 -5.5625 6.8125 C-6.5525 6.4825 -7.5425 6.1525 -8.5625 5.8125 C-6.64586147 1.38948801 -5.08264456 -0.26750761 0 0 Z " fill="#0D0B0C" transform="translate(104.5625,53.1875)"/>
<path d="M0 0 C2.64 0 5.28 0 8 0 C8 0.99 8 1.98 8 3 C6.68 3.33 5.36 3.66 4 4 C4 4.66 4 5.32 4 6 C2.0625 5.6875 2.0625 5.6875 0 5 C-0.33 4.01 -0.66 3.02 -1 2 C-0.67 1.34 -0.34 0.68 0 0 Z " fill="#424040" transform="translate(52,58)"/>
<path d="M0 0 C1.65 0 3.3 0 5 0 C5.33 0.99 5.66 1.98 6 3 C5.01 3.33 4.02 3.66 3 4 C3 3.34 3 2.68 3 2 C2.34 2 1.68 2 1 2 C1.350625 2.598125 1.70125 3.19625 2.0625 3.8125 C3 6 3 6 2 9 C1.01 9.66 0.02 10.32 -1 11 C-1.125 3.375 -1.125 3.375 0 0 Z " fill="#171719" transform="translate(58,66)"/>
<path d="M0 0 C3.63 0 7.26 0 11 0 C11.33 0.66 11.66 1.32 12 2 C10.72125 2.12375 9.4425 2.2475 8.125 2.375 C4.65209064 2.69042399 4.65209064 2.69042399 2 5 C1.01 4.67 0.02 4.34 -1 4 C-0.67 2.68 -0.34 1.36 0 0 Z " fill="#161516" transform="translate(261,58)"/>
<path d="M0 0 C1.32 0.66 2.64 1.32 4 2 C3.42655063 4.86724686 3.1385485 5.8614515 1 8 C-1.625 7.625 -1.625 7.625 -4 7 C-3.34 6.67 -2.68 6.34 -2 6 C-2 4.68 -2 3.36 -2 2 C-1.34 2 -0.68 2 0 2 C0 1.34 0 0.68 0 0 Z " fill="#444444" transform="translate(320,89)"/>
<path d="M0 0 C1.98 0 3.96 0 6 0 C5.88648483 1.81325551 5.75887039 3.62563357 5.625 5.4375 C5.55539062 6.44683594 5.48578125 7.45617187 5.4140625 8.49609375 C5.27742188 9.32238281 5.14078125 10.14867188 5 11 C4.01 11.495 4.01 11.495 3 12 C3 8.7 3 5.4 3 2 C2.01 2 1.02 2 0 2 C0 1.34 0 0.68 0 0 Z " fill="#3A3A3A" transform="translate(339,82)"/>
<path d="M0 0 C3.96 0 7.92 0 12 0 C9 3 9 3 5.64453125 3.29296875 C4.37996094 3.25816406 3.11539063 3.22335938 1.8125 3.1875 C0.54019531 3.16042969 -0.73210938 3.13335937 -2.04296875 3.10546875 C-3.01878906 3.07066406 -3.99460938 3.03585938 -5 3 C-5 2.67 -5 2.34 -5 2 C-3.35 2 -1.7 2 0 2 C0 1.34 0 0.68 0 0 Z " fill="#363235" transform="translate(44,52)"/>
<path d="M0 0 C1 1.33333333 2 2.66666667 3 4 C3.556875 4.70125 4.11375 5.4025 4.6875 6.125 C6 8 6 8 6 10 C3.69 10 1.38 10 -1 10 C-1 9.34 -1 8.68 -1 8 C-0.34 7.67 0.32 7.34 1 7 C0.67 6.34 0.34 5.68 0 5 C-0.33 4.34 -0.66 3.68 -1 3 C-0.67 2.01 -0.34 1.02 0 0 Z " fill="#1E1E1E" transform="translate(300,87)"/>
<path d="M0 0 C1.98 0 3.96 0 6 0 C5.67 0.99 5.34 1.98 5 3 C4.34 2.67 3.68 2.34 3 2 C3 3.98 3 5.96 3 8 C4.32 8.33 5.64 8.66 7 9 C6.01 9.33 5.02 9.66 4 10 C3.67 10.99 3.34 11.98 3 13 C3.66 13.33 4.32 13.66 5 14 C4.01 14 3.02 14 2 14 C1.93941406 13.15695313 1.87882812 12.31390625 1.81640625 11.4453125 C1.73261719 10.34960938 1.64882812 9.25390625 1.5625 8.125 C1.48128906 7.03445312 1.40007812 5.94390625 1.31640625 4.8203125 C1.16998297 2.05271029 1.16998297 2.05271029 0 0 Z " fill="#313131" transform="translate(99,82)"/>
<path d="M0 0 C0.33 0 0.66 0 1 0 C1 4.95 1 9.9 1 15 C0.01 15.33 -0.98 15.66 -2 16 C-4.1875 14.5625 -4.1875 14.5625 -6 13 C-4.35 12.67 -2.7 12.34 -1 12 C-0.67 8.04 -0.34 4.08 0 0 Z " fill="#050405" transform="translate(421,107)"/>
<path d="M0 0 C1.98 0 3.96 0 6 0 C6.33 0.66 6.66 1.32 7 2 C6.0625 4.125 6.0625 4.125 5 6 C3.0625 5.25 3.0625 5.25 1 4 C0.25 1.875 0.25 1.875 0 0 Z " fill="#0B0B0B" transform="translate(411,60)"/>
<path d="M0 0 C0.33 1.32 0.66 2.64 1 4 C2.32 3.67 3.64 3.34 5 3 C4.60196439 5.88575819 4.20990931 6.82189513 1.9375 8.75 C1.298125 9.1625 0.65875 9.575 0 10 C-1.125 2.25 -1.125 2.25 0 0 Z " fill="#0B0B0B" transform="translate(374,109)"/>
<path d="M0 0 C3.78570414 1.26190138 4.21831571 2.54855815 6.1875 5.9375 C6.71730469 6.83339844 7.24710937 7.72929688 7.79296875 8.65234375 C9 11 9 11 9 13 C8.34 13 7.68 13 7 13 C5.2734375 10.6640625 5.2734375 10.6640625 3.375 7.625 C2.74335938 6.62726562 2.11171875 5.62953125 1.4609375 4.6015625 C0 2 0 2 0 0 Z " fill="#151515" transform="translate(425,57)"/>
<path d="M0 0 C2.25245881 2.68841859 3.88213958 4.64641875 5 8 C2.69 8 0.38 8 -2 8 C-2 7.01 -2 6.02 -2 5 C-1.01 5 -0.02 5 1 5 C0.67 3.35 0.34 1.7 0 0 Z " fill="#191919" transform="translate(136,89)"/>
<path d="M0 0 C1.32 0.66 2.64 1.32 4 2 C4 3.32 4 4.64 4 6 C2.35 6.33 0.7 6.66 -1 7 C-0.67 4.69 -0.34 2.38 0 0 Z " fill="#020203" transform="translate(411,78)"/>
<path d="M0 0 C-0.33 0.99 -0.66 1.98 -1 3 C-2.65 2.67 -4.3 2.34 -6 2 C-5.67 5.96 -5.34 9.92 -5 14 C-5.66 14 -6.32 14 -7 14 C-7 10.04 -7 6.08 -7 2 C-7.66 1.67 -8.32 1.34 -9 1 C-5.94152152 0.45627049 -3.11227195 0 0 0 Z " fill="#303030" transform="translate(253,82)"/>
<path d="M0 0 C2.31 0 4.62 0 7 0 C7 0.66 7 1.32 7 2 C6.01 2 5.02 2 4 2 C4 3.98 4 5.96 4 8 C3.34 7.34 2.68 6.68 2 6 C2 5.01 2 4.02 2 3 C1.34 3 0.68 3 0 3 C0 2.01 0 1.02 0 0 Z " fill="#474747" transform="translate(348,82)"/>
<path d="M0 0 C0.66 0 1.32 0 2 0 C1.45276317 3.37462715 0.9451 5.08235 -1 8 C-1.99 7.67 -2.98 7.34 -4 7 C-4 5.68 -4 4.36 -4 3 C-3.01 2.67 -2.02 2.34 -1 2 C-0.67 1.34 -0.34 0.68 0 0 Z " fill="#303032" transform="translate(159,87)"/>
<path d="M0 0 C1.0625 1.875 1.0625 1.875 2 4 C1.67 4.66 1.34 5.32 1 6 C1.66 6 2.32 6 3 6 C3 6.99 3 7.98 3 9 C1.35 8.67 -0.3 8.34 -2 8 C-1.34 5.36 -0.68 2.72 0 0 Z " fill="#2A2A2A" transform="translate(325,88)"/>
<path d="M0 0 C2.25245881 2.68841859 3.88213958 4.64641875 5 8 C2.69 8 0.38 8 -2 8 C-2 7.34 -2 6.68 -2 6 C-1.34 5.67 -0.68 5.34 0 5 C0 3.35 0 1.7 0 0 Z " fill="#141414" transform="translate(211,89)"/>
<path d="M0 0 C-0.33 0.99 -0.66 1.98 -1 3 C-3.97 2.505 -3.97 2.505 -7 2 C-7.99 3.98 -8.98 5.96 -10 8 C-10.33 8 -10.66 8 -11 8 C-11.36213469 3.53367217 -11.36213469 3.53367217 -9.8125 1.25 C-6.42704923 -1.08479364 -3.85240549 -1.28413516 0 0 Z " fill="#242424" transform="translate(87,84)"/>
<path d="M0 0 C-1.28299758 2.86207152 -2.530636 5.0245088 -5 7 C-5.99 7 -6.98 7 -8 7 C-6.56389554 2.69168661 -4.72692072 0 0 0 Z " fill="#101010" transform="translate(380,117)"/>
<path d="M0 0 C0.99 0 1.98 0 3 0 C3 2.64 3 5.28 3 8 C1.68 8 0.36 8 -1 8 C-0.67 5.36 -0.34 2.72 0 0 Z " fill="#2E2E2F" transform="translate(319,71)"/>
<path d="M0 0 C4.03174806 0.27489191 5.56894631 0.53491576 8.375 3.5625 C8.91125 4.366875 9.4475 5.17125 10 6 C9.67 6.66 9.34 7.32 9 8 C2.57142857 2.71428571 2.57142857 2.71428571 0 0 Z " fill="#0D0D0E" transform="translate(75,50)"/>
<path d="M0 0 C0.99 0 1.98 0 3 0 C3 0.66 3 1.32 3 2 C3.66 2.33 4.32 2.66 5 3 C4.01 3.99 3.02 4.98 2 6 C1.01 5.67 0.02 5.34 -1 5 C-0.67 3.35 -0.34 1.7 0 0 Z " fill="#030303" transform="translate(327,108)"/>
<path d="M0 0 C0.89130413 2.6739124 1.47731534 5.23723823 2 8 C0.02 8 -1.96 8 -4 8 C-2.66666667 5.33333333 -1.33333333 2.66666667 0 0 Z " fill="#1A1A1A" transform="translate(293,89)"/>
<path d="M0 0 C1.670625 0.061875 1.670625 0.061875 3.375 0.125 C3.375 2.105 3.375 4.085 3.375 6.125 C2.385 5.795 1.395 5.465 0.375 5.125 C0.705 4.135 1.035 3.145 1.375 2.125 C-0.935 2.125 -3.245 2.125 -5.625 2.125 C-3.625 0.125 -3.625 0.125 0 0 Z " fill="#5B5B5B" transform="translate(84.625,81.875)"/>
<path d="M0 0 C2 2 2 2 2.125 4.625 C2.08375 5.40875 2.0425 6.1925 2 7 C1.01 7.495 1.01 7.495 0 8 C-0.66 7.01 -1.32 6.02 -2 5 C-2.66 5 -3.32 5 -4 5 C-4 4.34 -4 3.68 -4 3 C-2.68 2.67 -1.36 2.34 0 2 C0 1.34 0 0.68 0 0 Z " fill="#3E3D41" transform="translate(456,103)"/>
<path d="M0 0 C0.66 0.99 1.32 1.98 2 3 C1.67 3.99 1.34 4.98 1 6 C-0.98 5.34 -2.96 4.68 -5 4 C-4.34 3.01 -3.68 2.02 -3 1 C-2.34 1.33 -1.68 1.66 -1 2 C-0.67 1.34 -0.34 0.68 0 0 Z " fill="#383838" transform="translate(210,89)"/>
<path d="M0 0 C0.33 0.99 0.66 1.98 1 3 C0.37351562 2.9278125 -0.25296875 2.855625 -0.8984375 2.78125 C-1.71570313 2.6884375 -2.53296875 2.595625 -3.375 2.5 C-4.18710937 2.4071875 -4.99921875 2.314375 -5.8359375 2.21875 C-7.96912825 1.96647649 -7.96912825 1.96647649 -10 2 C-10 1.34 -10 0.68 -10 0 C-6.30581799 -1.231394 -3.7943739 -0.64432764 0 0 Z " fill="#0D0D0D" transform="translate(334,54)"/>
<path d="M0 0 C0.66 0 1.32 0 2 0 C1.67 2.31 1.34 4.62 1 7 C0.34 7 -0.32 7 -1 7 C-1.33 7.66 -1.66 8.32 -2 9 C-1.125 1.125 -1.125 1.125 0 0 Z " fill="#040405" transform="translate(366,52)"/>
<path d="M0 0 C0.33 0 0.66 0 1 0 C1 2.31 1 4.62 1 7 C-0.875 6.6875 -0.875 6.6875 -3 6 C-3.66 5.01 -4.32 4.02 -5 3 C-4.360625 2.87625 -3.72125 2.7525 -3.0625 2.625 C-2.0415625 2.315625 -2.0415625 2.315625 -1 2 C-0.67 1.34 -0.34 0.68 0 0 Z " fill="#181818" transform="translate(379,90)"/>
<path d="M0 0 C0.66 0 1.32 0 2 0 C2.625 2.3125 2.625 2.3125 3 5 C2.01 6.485 2.01 6.485 1 8 C-0.42944945 5.64561267 -1.08661261 4.51967567 -0.625 1.75 C-0.41875 1.1725 -0.2125 0.595 0 0 Z " fill="#262626" transform="translate(208,84)"/>
<path d="M0 0 C0.66 0 1.32 0 2 0 C2 2.97 2 5.94 2 9 C1.34 9 0.68 9 0 9 C-0.87890625 2.84765625 -0.87890625 2.84765625 -1 1 C-0.67 0.67 -0.34 0.34 0 0 Z " fill="#131313" transform="translate(259,70)"/>
<path d="M0 0 C0.33 0 0.66 0 1 0 C1 4.62 1 9.24 1 14 C0.01 13.67 -0.98 13.34 -2 13 C-1.34 8.71 -0.68 4.42 0 0 Z " fill="#19191A" transform="translate(376,65)"/>
<path d="M0 0 C0.66 0.33 1.32 0.66 2 1 C1.67 1.99 1.34 2.98 1 4 C1.66 4 2.32 4 3 4 C3 4.66 3 5.32 3 6 C1.68 6 0.36 6 -1 6 C-1.66 4.68 -2.32 3.36 -3 2 C-2.01 1.34 -1.02 0.68 0 0 Z " fill="#090909" transform="translate(408,53)"/>
<path d="M0 0 C0.66 0 1.32 0 2 0 C0.80100302 3.0831351 -0.47700477 6.06279492 -2 9 C-2.33 9 -2.66 9 -3 9 C-2.25 2.25 -2.25 2.25 0 0 Z " fill="#080808" transform="translate(403,53)"/>
<path d="M0 0 C0.66 0 1.32 0 2 0 C2 2.97 2 5.94 2 9 C0.68 8.34 -0.64 7.68 -2 7 C-2 6.34 -2 5.68 -2 5 C-1.34 5 -0.68 5 0 5 C0 3.35 0 1.7 0 0 Z " fill="#313034" transform="translate(456,96)"/>
<path d="M0 0 C2.475 0.495 2.475 0.495 5 1 C4.67 2.65 4.34 4.3 4 6 C2.62437146 4.71034824 1.29233607 3.37310707 0 2 C0 1.34 0 0.68 0 0 Z " fill="#101012" transform="translate(443,85)"/>
<path d="M0 0 C2.31 0.33 4.62 0.66 7 1 C7.33 1.99 7.66 2.98 8 4 C5.36 3.67 2.72 3.34 0 3 C0 2.01 0 1.02 0 0 Z " fill="#080808" transform="translate(146,53)"/>
<path d="M0 0 C2.97 0.495 2.97 0.495 6 1 C6 2.32 6 3.64 6 5 C3 4 3 4 0 2 C0 1.34 0 0.68 0 0 Z " fill="#0D0D0D" transform="translate(203,52)"/>
<path d="M0 0 C0.66 0 1.32 0 2 0 C2 0.99 2 1.98 2 3 C-0.31 3.33 -2.62 3.66 -5 4 C-5.33 3.34 -5.66 2.68 -6 2 C-4.02 1.67 -2.04 1.34 0 1 C0 0.67 0 0.34 0 0 Z " fill="#232323" transform="translate(85,94)"/>
<path d="M0 0 C0.33 0 0.66 0 1 0 C1 2.64 1 5.28 1 8 C0.01 7.67 -0.98 7.34 -2 7 C-1.125 1.125 -1.125 1.125 0 0 Z " fill="#1A1A1A" transform="translate(329,71)"/>
<path d="M0 0 C0.33 1.32 0.66 2.64 1 4 C-0.65 4 -2.3 4 -4 4 C-4 3.34 -4 2.68 -4 2 C-4.66 1.67 -5.32 1.34 -6 1 C-3.92446352 0.4465236 -2.15634036 0 0 0 Z " fill="#302E2E" transform="translate(76,51)"/>
<path d="M0 0 C0.66 0.33 1.32 0.66 2 1 C1.67 1.99 1.34 2.98 1 4 C-0.65 4.33 -2.3 4.66 -4 5 C-2.25 1.125 -2.25 1.125 0 0 Z " fill="#0C0C0D" transform="translate(369,111)"/>
<path d="M0 0 C3.63 0 7.26 0 11 0 C10.67 0.66 10.34 1.32 10 2 C6.7 1.67 3.4 1.34 0 1 C0 0.67 0 0.34 0 0 Z " fill="#070506" transform="translate(197,104)"/>
<path d="M0 0 C0.99 0.99 1.98 1.98 3 3 C2.01 3 1.02 3 0 3 C0 2.01 0 1.02 0 0 Z " fill="#000000" transform="translate(136,125)"/>
<path d="M0 0 C0.33 0 0.66 0 1 0 C1 2.31 1 4.62 1 7 C0.67 7 0.34 7 0 7 C0 4.69 0 2.38 0 0 Z " fill="#000000" transform="translate(107,111)"/>
<path d="M0 0 C0.66 0 1.32 0 2 0 C1.67 0.66 1.34 1.32 1 2 C0.67 1.34 0.34 0.68 0 0 Z " fill="#000000" transform="translate(255,116)"/>
<path d="" fill="#000000" transform="translate(0,0)"/>
<path d="" fill="#000000" transform="translate(0,0)"/>
<path d="" fill="#000000" transform="translate(0,0)"/>
<path d="" fill="#000000" transform="translate(0,0)"/>
</svg>
