<svg xmlns="http://www.w3.org/2000/svg" version="1.1" viewBox="243.30239999999998 368.23040000000003 1011.712 294.912" style="max-height: 500px" width="1011.712" height="294.912">
<path transform="translate(0,0)" fill="#071530" d="M0 0 C506.88 0 1013.76 0 1536 0 C1536 337.92 1536 675.84 1536 1024 C1029.12 1024 522.24 1024 0 1024 C0 686.08 0 348.16 0 0 Z"/>
<path transform="translate(1062.625,431.5)" fill="#FAFAFB" d="M0 0 C0.88945313 -0.02835937 1.77890625 -0.05671875 2.6953125 -0.0859375 C10.26835602 -0.10821116 14.75859095 2.33652673 20.37109375 7.24609375 C28.65748579 16.96969199 34.89818641 28.30171461 41.42260742 39.23974609 C45.84913377 46.65377684 50.3508964 54.02031028 54.875 61.375 C55.55763916 62.48649414 56.24027832 63.59798828 56.94360352 64.74316406 C57.59127686 65.7947168 58.2389502 66.84626953 58.90625 67.9296875 C59.47923828 68.86022949 60.05222656 69.79077148 60.64257812 70.74951172 C62.50302816 73.70326456 64.42715858 76.60330593 66.375 79.5 C66.37642502 78.73293732 66.37785004 77.96587463 66.37931824 77.17556763 C66.39722751 69.90856848 66.43907309 62.6422708 66.50709057 55.37558174 C66.54122559 51.64060736 66.56644927 47.90603612 66.57055664 44.17089844 C66.57486897 40.55894807 66.6035699 36.94790502 66.64843178 33.33623886 C66.66131411 31.96576113 66.66574766 30.59517429 66.66115379 29.22464371 C66.63894305 20.57773025 67.37680915 13.74761088 72.375 6.5 C76.87633471 2.10845395 80.78062008 0.21213482 87.0625 0.1875 C95.30237808 0.33804588 101.83721795 2.36317125 108.375 7.5 C111.34040127 10.70746717 111.75341559 12.86554775 111.76940918 17.19070435 C111.78075897 18.35131882 111.79210876 19.51193329 111.80380249 20.7077179 C111.80087189 21.977379 111.79794128 23.2470401 111.79492188 24.55517578 C111.80226341 25.90898845 111.81084989 27.26279485 111.82058716 28.61659241 C111.84281332 32.29258497 111.84573299 35.96835341 111.84383965 39.64440393 C111.84371989 42.71803328 111.85228671 45.79161524 111.86061716 48.86523139 C111.87985851 56.12340257 111.88273383 63.38145875 111.87597656 70.63964844 C111.8693485 78.11055718 111.89214815 85.58097059 111.92929029 93.05177891 C111.96006548 99.47661996 111.97133849 105.90130241 111.96745348 112.32621562 C111.96539248 116.15853778 111.97076243 119.99047524 111.99534607 123.8227272 C112.01773809 127.43284807 112.0156338 131.04217036 111.99541855 134.65229607 C111.99042429 136.59459625 112.00994131 138.53691214 112.03042603 140.47911072 C111.95757895 148.13201392 110.88324122 154.1595555 106.375 160.5 C100.1558284 165.00324942 92.21284664 163.941173 84.8125 163.875 C83.51119141 163.88660156 82.20988281 163.89820313 80.86914062 163.91015625 C79.61166016 163.90628906 78.35417969 163.90242187 77.05859375 163.8984375 C75.91962646 163.89505371 74.78065918 163.89166992 73.60717773 163.88818359 C66.89748645 163.08235165 63.24577279 159.76505973 59.10693359 154.78369141 C56.17815199 150.92186125 53.67317744 146.84377667 51.1875 142.6875 C50.04900908 140.8158999 48.90966832 138.94481651 47.76953125 137.07421875 C47.20186035 136.13884277 46.63418945 135.2034668 46.04931641 134.23974609 C43.5378177 130.13008753 40.95863849 126.06454637 38.375 122 C32.94890328 113.44095683 27.60878293 104.83009195 22.28515625 96.20703125 C21.7967627 95.41893066 21.30836914 94.63083008 20.80517578 93.81884766 C19.84755284 92.26618416 18.89805358 90.70848238 17.95654297 89.14599609 C17.51584473 88.42105957 17.07514648 87.69612305 16.62109375 86.94921875 C16.23493896 86.30686279 15.84878418 85.66450684 15.45092773 85.00268555 C14.43354782 83.33473928 14.43354782 83.33473928 12.375 82.5 C12.375 81.84 12.375 81.18 12.375 80.5 C11.715 80.5 11.055 80.5 10.375 80.5 C10.705 81.49 11.035 82.48 11.375 83.5 C11.45094037 85.52295837 11.46440525 87.54847015 11.44433594 89.57275391 C11.43392273 90.82480621 11.42350952 92.07685852 11.41278076 93.36685181 C11.39551943 94.73676229 11.37770344 96.10666588 11.359375 97.4765625 C11.34267004 98.88560944 11.32600809 100.2946569 11.30938721 101.70370483 C11.27290614 104.66109872 11.23169344 107.61838821 11.18798828 110.57568359 C11.13325369 114.34458004 11.09655418 118.11341569 11.06435776 121.88256264 C11.03632154 124.79629688 10.9952559 127.709747 10.95075226 130.62327194 C10.93169498 132.0113192 10.91732925 133.39943982 10.90795135 134.78758621 C10.77406857 152.80958269 10.77406857 152.80958269 5.1875 158.875 C-2.4357148 163.27952411 -8.86666063 164.37830804 -17.625 163.5 C-22.96462473 161.81900703 -26.74845473 158.25395436 -29.625 153.5 C-32.76191322 146.40828706 -33.07001558 139.73842276 -33.06079102 132.07055664 C-33.07086685 130.85635544 -33.08094269 129.64215424 -33.09132385 128.39115906 C-33.11481707 125.08516705 -33.12484891 121.77974053 -33.12677121 118.47370458 C-33.12891404 116.40263125 -33.13533805 114.33161599 -33.14326286 112.26055717 C-33.17094875 105.01945141 -33.18327636 97.77851047 -33.1809082 90.53735352 C-33.17910567 83.81207048 -33.21078223 77.08750915 -33.25813919 70.3624087 C-33.29748715 64.5659064 -33.31345496 58.76963896 -33.31154197 52.97300428 C-33.31078082 49.52071022 -33.31912106 46.06905918 -33.35107613 42.61689949 C-33.38577464 38.76393034 -33.37180614 34.91193733 -33.35375977 31.05883789 C-33.37061829 29.930737 -33.38747681 28.80263611 -33.40484619 27.64035034 C-33.30349382 19.09523817 -30.76341184 13.38750668 -25.25772953 6.8852396 C-18.63822387 0.5529222 -8.66729672 -0.02534297 0 0 Z"/>
<path transform="translate(770.97265625,433.40625)" fill="#FAFAFA" d="M0 0 C1.12192245 -0.00004028 2.24384491 -0.00008057 3.39976501 -0.00012207 C5.76388169 0.00521266 8.12799916 0.02270682 10.49194336 0.05175781 C14.05574661 0.09335204 17.61763693 0.09283637 21.18164062 0.0859375 C55.55697603 0.18018187 55.55697603 0.18018187 69.02734375 9.59375 C69.72988281 10.07328125 70.43242188 10.5528125 71.15625 11.046875 C80.99525075 18.67161922 87.95274264 31.46006327 90.02734375 43.59375 C91.74854383 58.38804811 88.48825042 71.51600013 80.140625 83.97265625 C77.67902283 87.02577096 74.9494514 89.60927823 72.08984375 92.28125 C67.67778397 96.27943258 67.67778397 96.27943258 66.02734375 101.71875 C67.63868955 109.87604996 73.67594536 117.33417893 78.08984375 124.21875 C80.08346905 127.33487843 82.06708929 130.4565059 84.02734375 133.59375 C84.43702393 134.24891602 84.8467041 134.90408203 85.26879883 135.57910156 C88.20329455 140.45705431 89.16226368 144.01783905 88.02734375 149.59375 C85.18636416 155.74719089 80.31096565 158.9901207 74.33984375 161.90625 C67.08911039 163.41111919 59.42337011 162.33482202 53.02734375 158.59375 C46.36145198 152.92578972 41.72093764 146.09207252 37.02734375 138.78125 C31.9005063 130.88572005 26.64691815 123.14855754 21.02734375 115.59375 C20.53878906 114.8514917 20.05023437 114.1092334 19.546875 113.34448242 C17.77577943 111.30390943 16.66215023 110.95717158 14.02734375 110.59375 C14.01276123 111.61210938 13.99817871 112.63046875 13.9831543 113.6796875 C13.92479946 117.48943672 13.84757197 121.29861766 13.76489258 125.10791016 C13.73181697 126.75071937 13.70373198 128.39363747 13.6809082 130.03662109 C13.6470397 132.410299 13.594713 134.78299441 13.5390625 137.15625 C13.53267258 137.88054199 13.52628265 138.60483398 13.5196991 139.35107422 C13.31500646 146.59108034 11.35782597 153.41133673 6.02734375 158.59375 C-0.21096758 162.44292082 -6.80232214 162.36484897 -13.97265625 161.59375 C-19.70822436 160.13462147 -22.95831468 157.1104529 -25.9395256 152.10168457 C-28.02338097 147.04310565 -27.66399338 141.72125573 -27.61962891 136.328125 C-27.6327713 134.3559198 -27.6327713 134.3559198 -27.6461792 132.34387207 C-27.66886266 128.75690889 -27.66018247 125.17066935 -27.64428377 121.58369446 C-27.63156739 117.81847273 -27.64338073 114.05331027 -27.6512146 110.28808594 C-27.66029458 103.96668447 -27.64836695 97.64557571 -27.62451172 91.32421875 C-27.59730329 84.03037432 -27.60611865 76.73722884 -27.63364375 69.44340134 C-27.65638123 63.16539938 -27.65951237 56.88760704 -27.6464504 50.60957718 C-27.63868121 46.86683964 -27.63754384 43.12442995 -27.65413284 39.38171387 C-27.6713455 35.20718431 -27.64744678 31.03384733 -27.61962891 26.859375 C-27.62975006 25.62900513 -27.63987122 24.39863525 -27.65029907 23.13098145 C-27.5630167 16.05038602 -26.85832222 10.94677715 -21.97265625 5.59375 C-15.49326175 0.26589221 -8.06348874 -0.12538609 0 0 Z"/>
<path transform="translate(461,432)" fill="#FAFAFA" d="M0 0 C4.77930238 2.26426826 8.04696104 5.6643243 11 10 C11.99824905 12.99474714 12.15324032 15.07345334 12.20532227 18.20581055 C12.2352401 19.79712044 12.2352401 19.79712044 12.26576233 21.420578 C12.28247482 22.56440445 12.29918732 23.7082309 12.31640625 24.88671875 C12.33718735 26.05886429 12.35796844 27.23100983 12.37937927 28.43867493 C12.44483818 32.18822286 12.50374296 35.93784163 12.5625 39.6875 C12.60568868 42.22722091 12.64930308 44.76693462 12.69335938 47.30664062 C12.80051586 53.53768522 12.9022892 59.76880051 13 66 C15.38829035 67.19414517 16.86043332 67.12683207 19.52563477 67.12939453 C20.46323135 67.13254669 21.40082794 67.13569885 22.36683655 67.13894653 C23.38144455 67.1369223 24.39605255 67.13489807 25.44140625 67.1328125 C26.47941879 67.13376923 27.51743134 67.13472595 28.5868988 67.13571167 C30.78343771 67.13639292 32.97997862 67.13454244 35.17651367 67.13037109 C38.5519662 67.12501671 41.92728598 67.13032073 45.30273438 67.13671875 C47.43229196 67.13605807 49.56184947 67.1347771 51.69140625 67.1328125 C53.2163546 67.13584885 53.2163546 67.13584885 54.77210999 67.13894653 C55.70655441 67.13579437 56.64099884 67.13264221 57.60375977 67.12939453 C58.84380516 67.12820114 58.84380516 67.12820114 60.10890198 67.12698364 C62.01180276 67.20757852 62.01180276 67.20757852 63 66 C64.06761296 60.31693411 64.14912252 54.7420635 64.17578125 48.97265625 C64.19897161 47.0266818 64.22308863 45.08071821 64.24804688 43.13476562 C64.28315351 40.09570929 64.31252401 37.05705686 64.32592773 34.01782227 C64.34146627 31.06478316 64.38169563 28.11288964 64.42578125 25.16015625 C64.42387283 24.26095963 64.42196442 23.361763 64.41999817 22.43531799 C64.55259223 15.53892902 66.07748864 9.90596885 71.0703125 4.94140625 C71.74835938 4.48636719 72.42640625 4.03132813 73.125 3.5625 C73.80820312 3.08941406 74.49140625 2.61632812 75.1953125 2.12890625 C79.90501484 -0.81720625 84.5618686 -0.42121073 90 0 C95.58621426 1.40950861 100.28582934 4.58490556 103.61597443 9.2767458 C105.17988122 12.3539402 105.38141833 14.26423137 105.39440918 17.69706726 C105.40575897 18.83381393 105.41710876 19.97056061 105.42880249 21.14175415 C105.42587189 22.37976776 105.42294128 23.61778137 105.41992188 24.89331055 C105.42839142 26.20446335 105.43686096 27.51561615 105.44558716 28.86650085 C105.46778355 32.45772758 105.47073456 36.0487247 105.46883965 39.6400106 C105.46871978 42.64410135 105.47729107 45.64814376 105.48561716 48.65222102 C105.50484704 55.74596346 105.50773768 62.83958825 105.50097656 69.93334961 C105.49434626 77.23330454 105.51715985 84.53275284 105.55429029 91.83260506 C105.585068 98.11309445 105.59633832 104.39342161 105.59245348 110.67398483 C105.59039309 114.41910516 105.59575312 118.16383178 105.62034607 121.90888023 C105.64691288 126.09282855 105.63282418 130.27572098 105.61523438 134.4597168 C105.62849762 135.68760925 105.64176086 136.91550171 105.65542603 138.18060303 C105.5820053 145.71895916 104.52565963 151.79835624 100 158 C94.40546529 162.72525652 88.754079 163.40472936 81.6171875 163.25 C75.57630303 162.67296029 71.80997892 159.51181714 68 155 C64.0711488 149.01075578 63.44685026 143.86121087 63.609375 136.8125 C63.61340332 135.97525391 63.61743164 135.13800781 63.62158203 134.27539062 C63.64232258 131.183367 63.69816655 128.09165871 63.75 125 C63.8325 118.07 63.915 111.14 64 104 C38.755 104.495 38.755 104.495 13 105 C12.82993801 117.99746552 12.82993801 117.99746552 12.70214844 130.99536133 C12.39520836 152.02126302 12.39520836 152.02126302 6.48291016 158.71850586 C0.39017613 164.0480292 -6.40458777 163.77118921 -14.10058594 163.27392578 C-19.23753973 162.53309517 -22.20599395 159.2067862 -25.32421875 155.37109375 C-28.28772339 151.22218725 -29.1241432 147.77797537 -29.16062927 142.7779541 C-29.1706749 141.69588684 -29.18072052 140.61381958 -29.19107056 139.4989624 C-29.19690155 138.31143372 -29.20273254 137.12390503 -29.20874023 135.90039062 C-29.21852402 134.64965759 -29.2283078 133.39892456 -29.23838806 132.11029053 C-29.26837217 127.95895316 -29.29004607 123.80765029 -29.30859375 119.65625 C-29.31189107 118.94878569 -29.31518839 118.24132137 -29.31858563 117.51241875 C-29.34937888 110.83291556 -29.37607255 104.15340773 -29.39300442 97.47385406 C-29.41487258 88.94826944 -29.45675779 80.42331766 -29.52644199 71.89798594 C-29.5738342 65.89440994 -29.59795856 59.89100369 -29.6052013 53.88724661 C-29.610137 50.30679326 -29.62501459 46.72705327 -29.6649456 43.14680481 C-29.70901644 39.14240931 -29.70488177 35.1393963 -29.69702148 31.13476562 C-29.71702209 29.96343079 -29.73702271 28.79209595 -29.75762939 27.58526611 C-29.68671379 19.50376092 -27.84726046 13.54206074 -23 7 C-15.81191323 0.35344452 -9.81088137 -1.22636017 0 0 Z"/>
<path transform="translate(910.85546875,433.17578125)" fill="#F9FAFA" d="M0 0 C4.43875889 1.70597109 7.98195515 4.63568157 10.21670532 8.84257507 C11.51415365 13.01203023 11.42011853 16.91857892 11.39990234 21.26098633 C11.4035228 22.20471603 11.40714325 23.14844574 11.41087341 24.12077332 C11.41775687 26.16635485 11.42027482 28.21195471 11.41892624 30.25754738 C11.41795975 33.49894719 11.43091849 36.74001653 11.44790649 39.98136902 C11.49413866 49.195968 11.51877955 58.41053315 11.52539062 67.62524414 C11.5304128 73.26566898 11.55469923 78.90574885 11.59071732 84.54605675 C11.60049917 86.69135146 11.60285611 88.83669372 11.59754562 90.98200417 C11.59045384 93.98813206 11.6078015 96.99323632 11.63037109 99.99926758 C11.62219864 100.87902252 11.61402618 101.75877747 11.60560608 102.66519165 C11.68225405 108.42541469 12.7361822 113.07489244 16.14453125 117.82421875 C22.65859966 122.12073196 29.53390981 122.03023844 37.08203125 122.07421875 C37.96310547 122.09484375 38.84417969 122.11546875 39.75195312 122.13671875 C44.98633244 122.16808582 48.62742254 121.77015921 53.14453125 118.82421875 C56.7330263 114.94476464 58.26672267 111.97452512 58.27583313 106.70744324 C58.27984131 105.8705748 58.28384949 105.03370636 58.28797913 104.17147827 C58.28745041 103.25661652 58.28692169 102.34175476 58.28637695 101.39916992 C58.29158859 99.94993385 58.29158859 99.94993385 58.29690552 98.47142029 C58.30426216 96.37122868 58.30960803 94.27102929 58.31319618 92.17082787 C58.32035774 88.84618689 58.336022 85.52169383 58.35453796 82.19709778 C58.40702283 72.74364242 58.45499008 63.29026786 58.47045898 53.83666992 C58.48053887 48.05589621 58.5098639 42.27549421 58.55177879 36.49486732 C58.56409346 34.29210534 58.56920921 32.08929087 58.56698036 29.88649559 C58.56462817 26.80307712 58.58678849 23.72072549 58.61450195 20.63745117 C58.60459984 19.27426758 58.60459984 19.27426758 58.59449768 17.88354492 C58.67789764 12.22888608 59.494288 9.19218976 63.14453125 4.82421875 C64.9609375 3.1796875 64.9609375 3.1796875 66.70703125 2.01171875 C67.28582031 1.61339844 67.86460937 1.21507812 68.4609375 0.8046875 C74.45432156 -2.68565913 82.50110037 -1.86914017 88.95703125 -0.17578125 C94.72496098 3.44331191 99.0617288 8.28722909 101.14453125 14.82421875 C101.33223013 17.69612212 101.41798865 20.46914753 101.40332031 23.33959961 C101.40857727 24.60906433 101.40857727 24.60906433 101.41394043 25.9041748 C101.42273312 28.69922118 101.4169125 31.49401357 101.41015625 34.2890625 C101.41150473 36.24377999 101.41344679 38.19849715 101.41595459 40.1532135 C101.41890347 44.25459988 101.41461994 48.35589915 101.40527344 52.45727539 C101.39394697 57.67857629 101.40039643 62.89967 101.41241837 68.1209631 C101.41970156 72.16280124 101.41731848 76.20459164 101.41216278 80.24643135 C101.41084052 82.16908353 101.41242331 84.09174023 101.41712189 86.01438713 C101.46150514 109.30469231 98.62559031 130.98316084 82.1875 148.9453125 C78.25231752 152.5644765 73.79460419 155.22389265 69.14453125 157.82421875 C68.43683594 158.22640625 67.72914063 158.62859375 67 159.04296875 C50.4783848 167.38275157 26.50489878 167.34544556 9.14453125 161.82421875 C-8.55808222 155.00864875 -20.72757137 143.39530314 -28.59375 126.1328125 C-31.3571855 118.88628041 -32.15867468 112.47291897 -32.17773438 104.78735352 C-32.18766418 103.81553131 -32.19759399 102.84370911 -32.20782471 101.84243774 C-32.23686724 98.65013734 -32.25063513 95.45803541 -32.26171875 92.265625 C-32.2673735 91.16990614 -32.27302826 90.07418728 -32.27885437 88.94526482 C-32.30875235 83.15124431 -32.32726747 77.35732238 -32.3359375 71.56323242 C-32.34691877 65.59348929 -32.39502223 59.62465573 -32.45188141 53.6551981 C-32.48920196 49.04910162 -32.49954873 44.44322333 -32.50260925 39.83698845 C-32.50864418 37.63662663 -32.52464011 35.43626782 -32.55097961 33.23605537 C-32.58526047 30.15349764 -32.58130575 27.0731518 -32.56835938 23.99047852 C-32.58678894 23.09097977 -32.60521851 22.19148102 -32.62420654 21.26472473 C-32.53531098 14.47570791 -30.38464343 9.89034328 -25.85546875 4.82421875 C-17.55585272 -1.52379554 -10.15031218 -2.50646938 0 0 Z"/>
<path transform="translate(668.99609375,433.99609375)" fill="#FAFAFA" d="M0 0 C2.3860062 1.45972303 4.10854689 2.95025315 6.00390625 5.00390625 C6.93009766 5.97263672 6.93009766 5.97263672 7.875 6.9609375 C12.34134545 12.44541761 14.36662911 18.53980086 16.33740234 25.21679688 C18.8774367 33.81187869 21.82664015 42.24550403 24.81640625 50.69140625 C25.36944683 52.25787197 25.9224242 53.82436001 26.4753418 55.39086914 C27.98208866 59.65603738 29.49278435 63.91979859 31.00427246 68.18328857 C32.43234301 72.21280525 33.85831428 76.24306402 35.28443909 80.27326965 C38.23225878 88.60364692 41.18068361 96.93380875 44.13499451 105.2618866 C44.80897891 107.16430723 45.48134612 109.06730167 46.1519928 110.97090149 C47.67921488 115.30139739 49.22602453 119.62105377 50.84033203 123.91992188 C51.12308487 124.68479919 51.40583771 125.44967651 51.69715881 126.23773193 C52.21453136 127.63418109 52.74159865 129.02710245 53.28123474 130.4151001 C55.27491203 135.84355833 55.87444327 140.95239617 54.26953125 146.578125 C51.70304797 151.91838444 49.38970163 156.31639244 44.44140625 159.81640625 C39.56443594 161.50117781 35.11021573 161.68880618 30.00390625 161.00390625 C21.34284206 156.7521111 18.50661846 149.02863861 15.09179688 140.59765625 C12.83240879 135.24999215 10.44065932 130.72228278 5.00390625 128.00390625 C-0.5064389 127.71880751 -6.01788856 127.69013387 -11.53491211 127.65380859 C-13.37879055 127.6372541 -15.22260494 127.60997056 -17.06616211 127.57177734 C-19.7267378 127.5169496 -22.38581012 127.49512646 -25.046875 127.48046875 C-25.86787186 127.45779938 -26.68886871 127.43513 -27.53474426 127.41177368 C-31.87396961 127.42775214 -33.48114707 127.58894186 -36.98120117 130.40942383 C-38.71889465 132.64697 -39.95067257 134.45787938 -40.99609375 137.06640625 C-41.31964844 137.83726562 -41.64320313 138.608125 -41.9765625 139.40234375 C-42.71000542 141.27388776 -43.41794932 143.15549795 -44.109375 145.04296875 C-46.58945014 151.55417579 -48.87841988 156.3362013 -54.99609375 160.00390625 C-60.29632403 161.77064968 -66.16149071 162.27572318 -71.35546875 159.9453125 C-76.25798316 156.54488427 -79.36132973 152.74205642 -80.99609375 147.00390625 C-82.88708512 134.18566995 -78.11278161 123.36826586 -73.62109375 111.62890625 C-72.85135238 109.56731483 -72.08365103 107.50496071 -71.31787109 105.44189453 C-69.71459887 101.13525028 -68.09763551 96.83413064 -66.46875 92.53710938 C-64.03756602 86.12331882 -61.6387606 79.69777206 -59.24609375 73.26953125 C-55.86662306 64.19716259 -52.45515324 55.1373195 -49.02912903 46.08244324 C-47.13022081 41.05156844 -45.26125495 36.01193503 -43.44177246 30.95178223 C-42.46133708 28.22530701 -41.46821825 25.50353961 -40.47406006 22.78204346 C-39.83757448 21.02156509 -39.22126861 19.25383012 -38.60595703 17.48583984 C-35.68984083 9.53784841 -32.17919099 4.79073027 -25.140625 0.1015625 C-17.58440158 -2.53607574 -7.59173943 -2.52398116 0 0 Z"/>
<path transform="translate(342.57421875,431.796875)" fill="#FBFBFB" d="M0 0 C1.31264297 -0.00424107 1.31264297 -0.00424107 2.65180397 -0.00856781 C7.25932723 -0.0233511 11.86682072 -0.03271818 16.47436523 -0.03710938 C21.19917496 -0.04264686 25.9237042 -0.06684382 30.6484251 -0.09508133 C34.32286902 -0.11374252 37.99724465 -0.11891458 41.67173195 -0.12044525 C43.41432079 -0.12345084 45.15690904 -0.13140759 46.8994503 -0.14463043 C67.16047782 -0.2877603 67.16047782 -0.2877603 74.80078125 5.578125 C79.20016341 9.97750716 80.81362106 13.24678188 80.88476562 19.39257812 C80.87767578 20.13443359 80.87058594 20.87628906 80.86328125 21.640625 C80.88326172 22.37861328 80.90324219 23.11660156 80.92382812 23.87695312 C80.9191772 29.10924265 79.8246269 32.03579035 76.42578125 36.203125 C70.92872347 41.27733218 66.06722247 42.49523306 58.71875 42.6171875 C57.63065788 42.64623672 57.63065788 42.64623672 56.52058411 42.6758728 C54.21826703 42.73534608 51.91589906 42.78192345 49.61328125 42.828125 C48.04620293 42.86633458 46.47914494 42.90538803 44.91210938 42.9453125 C41.08349973 43.04102063 37.25479183 43.12516948 33.42578125 43.203125 C33.41698189 45.17177269 33.41698189 45.17177269 33.40800476 47.18019104 C33.35076807 59.55440927 33.27800117 71.92845192 33.19006634 84.30249119 C33.14535728 90.66396885 33.10610207 97.02538238 33.0793457 103.38696289 C33.05331847 109.52733893 33.0129195 115.66746828 32.96259499 121.80769157 C32.94592248 124.14917874 32.93441061 126.49070858 32.92816734 128.83224678 C32.91853077 132.11441984 32.89047544 135.39596121 32.8581543 138.67797852 C32.86030693 140.12699554 32.86030693 140.12699554 32.86250305 141.60528564 C32.77357924 147.99912204 32.078356 153.17677835 27.70703125 158.1640625 C26.8253125 158.86402344 26.8253125 158.86402344 25.92578125 159.578125 C25.0440625 160.30128906 25.0440625 160.30128906 24.14453125 161.0390625 C20.46785586 163.52917447 16.92356376 163.39804152 12.61328125 163.453125 C10.80923828 163.49179687 10.80923828 163.49179687 8.96875 163.53125 C3.07882465 162.98576629 -0.63074179 160.67977474 -4.38671875 156.203125 C-4.97066406 155.5225 -5.55460937 154.841875 -6.15625 154.140625 C-8.40882127 151.06273148 -8.69880519 148.47536222 -8.69447327 144.78022766 C-8.69584793 143.87578918 -8.6972226 142.97135071 -8.69863892 142.039505 C-8.693246 140.55489021 -8.693246 140.55489021 -8.68774414 139.0402832 C-8.68789017 137.99621307 -8.68803619 136.95214294 -8.68818665 135.87643433 C-8.68748893 132.41890397 -8.67970306 128.96142722 -8.671875 125.50390625 C-8.67001032 123.1092278 -8.66858665 120.71454896 -8.66758728 118.31987 C-8.66376603 112.01190135 -8.65393906 105.70395566 -8.6428833 99.39599609 C-8.63266077 92.96126618 -8.62808785 86.52653256 -8.62304688 80.09179688 C-8.61231647 67.46222978 -8.59543649 54.83267861 -8.57421875 42.203125 C-9.57275879 42.22407227 -10.57129883 42.24501953 -11.60009766 42.26660156 C-15.32358318 42.339292 -19.04700665 42.3850292 -22.77099609 42.42285156 C-24.37917649 42.44290127 -25.98728458 42.47014864 -27.59521484 42.50488281 C-29.91391895 42.55369764 -32.231655 42.57615928 -34.55078125 42.59375 C-35.61989243 42.62471771 -35.61989243 42.62471771 -36.71060181 42.65631104 C-42.62283605 42.65893687 -46.10599229 40.62543097 -50.25390625 36.5546875 C-54.62028766 30.24769213 -54.60431466 23.63513931 -53.57421875 16.203125 C-51.78046255 10.28973735 -48.1131281 5.49775922 -42.74214172 2.38983154 C-38.60075287 0.83846388 -34.84813442 0.6960321 -30.45776367 0.55957031 C-29.57732234 0.52436909 -28.69688101 0.48916786 -27.78975964 0.45289993 C-18.52868696 0.10915983 -9.26658986 0.02072155 0 0 Z"/>
<path transform="translate(771.208984375,443.8388671875)" fill="#0E1A33" d="M0 0 C1.08873413 -0.00960754 2.17746826 -0.01921509 3.29919434 -0.02911377 C4.48243286 -0.03336365 5.66567139 -0.03761353 6.88476562 -0.04199219 C8.10119751 -0.04769226 9.31762939 -0.05339233 10.57092285 -0.05926514 C13.15339282 -0.06872943 15.73587493 -0.07525476 18.31835938 -0.07910156 C22.24696406 -0.0887589 26.17503491 -0.11974964 30.10351562 -0.15136719 C32.61392919 -0.15790201 35.12434649 -0.16315059 37.63476562 -0.16699219 C38.8018103 -0.17933899 39.96885498 -0.19168579 41.17126465 -0.20440674 C53.21542415 -0.17195855 61.76180289 2.37598996 70.47851562 10.79003906 C74.46157435 15.08178484 76.75439517 19.70729823 78.79101562 25.16113281 C79.20351563 26.25425781 79.61601563 27.34738281 80.04101562 28.47363281 C82.54167123 40.76852287 80.44922304 52.57587588 73.79101562 63.16113281 C66.1311832 73.32064338 58.78288168 76.91743134 46.79101562 80.16113281 C50.76351753 88.75618238 55.30402413 96.86447916 60.29101562 104.91113281 C60.82428467 105.77311279 61.35755371 106.63509277 61.90698242 107.52319336 C65.22979709 112.83008015 68.73441126 117.93069437 72.48828125 122.94335938 C73.79101562 125.16113281 73.79101562 125.16113281 73.79101562 129.16113281 C68.43075286 130.43066873 63.16917398 130.27352168 57.79101562 129.16113281 C57.13101563 128.50113281 56.47101563 127.84113281 55.79101562 127.16113281 C55.79101562 125.84113281 55.79101562 124.52113281 55.79101562 123.16113281 C57.44101562 122.83113281 59.09101562 122.50113281 60.79101562 122.16113281 C60.15851707 118.0498922 58.58303714 115.22554667 55.79101562 112.16113281 C53.15437233 111.65424985 50.71646191 111.53568374 48.03320312 111.55957031 C47.29328125 111.42808594 46.55335938 111.29660156 45.79101562 111.16113281 C44.48632812 109.13769531 44.48632812 109.13769531 43.79101562 107.16113281 C47.01893117 105.00918911 48.07502372 104.96026839 51.79101562 105.16113281 C50.80101562 103.49050781 50.80101562 103.49050781 49.79101562 101.78613281 C47.79101562 98.41113281 47.79101562 98.41113281 47.79101562 96.16113281 C46.63472656 96.08765625 46.63472656 96.08765625 45.45507812 96.01269531 C44.4521875 95.93792969 43.44929687 95.86316406 42.41601562 95.78613281 C40.91941406 95.68171875 40.91941406 95.68171875 39.39257812 95.57519531 C36.79101562 95.16113281 36.79101562 95.16113281 34.79101562 93.16113281 C35.16601562 91.03613281 35.16601562 91.03613281 35.79101562 89.16113281 C37.44101562 89.16113281 39.09101562 89.16113281 40.79101562 89.16113281 C40.29601562 85.69613281 40.29601562 85.69613281 39.79101562 82.16113281 C22.30314121 81.04273542 22.30314121 81.04273542 4.79101562 81.16113281 C2.63321518 83.31893325 3.57969587 88.3041462 3.54492188 91.30566406 C3.51197744 93.19824671 3.4787659 95.09082472 3.4453125 96.98339844 C3.39791316 99.97888931 3.35350606 102.97436218 3.31420898 105.9699707 C3.27448209 108.85290636 3.22293004 111.73544632 3.16992188 114.61816406 C3.16150772 115.5130806 3.15309357 116.40799713 3.14442444 117.33003235 C3.11946144 118.586045 3.11946144 118.586045 3.09399414 119.86743164 C3.07853294 120.9687719 3.07853294 120.9687719 3.0627594 122.09236145 C2.64439463 125.27735091 1.64934702 127.49354173 -0.89648438 129.47363281 C-4.18498457 130.45129503 -6.88417564 129.80051911 -10.20898438 129.16113281 C-10.20898438 127.51113281 -10.20898438 125.86113281 -10.20898438 124.16113281 C-7.73398437 123.17113281 -7.73398437 123.17113281 -5.20898438 122.16113281 C-4.87898437 119.52113281 -4.54898438 116.88113281 -4.20898438 114.16113281 C-6.51898437 113.17113281 -8.82898438 112.18113281 -11.20898438 111.16113281 C-11.08398438 108.84863281 -11.08398438 108.84863281 -10.20898438 106.16113281 C-7.14648438 104.34863281 -7.14648438 104.34863281 -4.20898438 103.16113281 C-3.99927878 99.02019583 -3.99927878 99.02019583 -5.20898438 95.16113281 C-6.19898438 94.87238281 -7.18898438 94.58363281 -8.20898438 94.28613281 C-11.20898438 93.16113281 -11.20898438 93.16113281 -12.20898438 91.16113281 C-12.20898438 89.16113281 -12.20898438 89.16113281 -10.20898438 87.16113281 C-7.58398438 86.53613281 -7.58398438 86.53613281 -5.20898438 86.16113281 C-4.87898437 83.85113281 -4.54898438 81.54113281 -4.20898438 79.16113281 C-5.17835938 78.76925781 -6.14773438 78.37738281 -7.14648438 77.97363281 C-10.20898438 76.16113281 -10.20898438 76.16113281 -11.08398438 73.47363281 C-11.14585937 72.32894531 -11.14585937 72.32894531 -11.20898438 71.16113281 C-8.89898438 70.17113281 -6.58898437 69.18113281 -4.20898438 68.16113281 C-4.20898438 66.18113281 -4.20898438 64.20113281 -4.20898438 62.16113281 C-7.67398438 60.67613281 -7.67398438 60.67613281 -11.20898438 59.16113281 C-11.20898438 57.84113281 -11.20898438 56.52113281 -11.20898438 55.16113281 C-8.20898438 53.16113281 -8.20898438 53.16113281 -4.20898438 53.16113281 C-4.24901492 49.05412504 -4.24901492 49.05412504 -5.20898438 45.16113281 C-7.49879346 43.47129774 -9.42333271 42.97150421 -12.20898438 42.16113281 C-11.95898438 40.28613281 -11.95898438 40.28613281 -11.20898438 38.16113281 C-8.62746135 36.44011747 -7.35980412 36.16113281 -4.20898438 36.16113281 C-4.53898438 32.20113281 -4.86898437 28.24113281 -5.20898438 24.16113281 C-7.18898438 23.50113281 -9.16898438 22.84113281 -11.20898438 22.16113281 C-10.89648438 20.28613281 -10.89648438 20.28613281 -10.20898438 18.16113281 C-6.72029786 15.8353418 -5.31179919 15.74247824 -1.20898438 16.16113281 C0.95127869 17.36302185 0.95127869 17.36302185 2.79101562 19.16113281 C3.28981018 21.4825592 3.28981018 21.4825592 3.28930664 24.2434082 C3.29934219 25.27780533 3.30937775 26.31220245 3.31971741 27.37794495 C3.31153488 28.4936235 3.30335236 29.60930206 3.29492188 30.75878906 C3.30434311 31.90399521 3.31376434 33.04920135 3.32347107 34.22911072 C3.35221028 37.89413268 3.35519522 41.55850699 3.35351562 45.22363281 C3.357113 48.89223464 3.36652883 52.56036426 3.39427185 56.22886658 C3.41117305 58.51360546 3.41384893 60.79850049 3.40126038 63.08326721 C3.41158546 64.63013466 3.41158546 64.63013466 3.42211914 66.20825195 C3.4206765 67.57367882 3.4206765 67.57367882 3.41920471 68.96669006 C3.60325111 70.05293922 3.60325111 70.05293922 3.79101562 71.16113281 C8.80648499 74.50477906 14.89625961 73.53297675 20.7746582 73.53173828 C23.05760063 73.53604617 25.33850208 73.57217201 27.62109375 73.61035156 C40.23602036 73.70749187 53.41275874 72.07514605 63.79101562 64.16113281 C65.85910406 61.56305229 65.85910406 61.56305229 66.79101562 59.16113281 C64.81101562 58.66613281 64.81101562 58.66613281 62.79101562 58.16113281 C62.22851562 56.22363281 62.22851562 56.22363281 61.79101562 54.16113281 C63.60293445 52.34921399 66.51452862 52.68878151 68.97851562 52.44238281 C70.80776893 52.34115238 70.80776893 52.34115238 71.79101562 51.16113281 C72.02176645 49.81366197 72.20254625 48.45735716 72.35351562 47.09863281 C72.57007813 45.14957031 72.57007813 45.14957031 72.79101562 43.16113281 C71.15132812 43.22300781 71.15132812 43.22300781 69.47851562 43.28613281 C65.79101562 43.16113281 65.79101562 43.16113281 62.79101562 41.16113281 C63.12101563 39.84113281 63.45101562 38.52113281 63.79101562 37.16113281 C70.54101562 35.16113281 70.54101562 35.16113281 72.79101562 35.16113281 C72.66726563 33.88238281 72.54351563 32.60363281 72.41601562 31.28613281 C72.34640625 30.56683594 72.27679687 29.84753906 72.20507812 29.10644531 C71.92726813 26.93445036 71.92726813 26.93445036 69.79101562 25.16113281 C67.3024325 24.82270743 67.3024325 24.82270743 64.41601562 24.81738281 C63.34867188 24.78773438 62.28132812 24.75808594 61.18164062 24.72753906 C60.06273437 24.705625 58.94382812 24.68371094 57.79101562 24.66113281 C55.58249172 24.61787831 53.37411134 24.5662188 51.16601562 24.50488281 C50.18375 24.48619141 49.20148437 24.4675 48.18945312 24.44824219 C45.79101562 24.16113281 45.79101562 24.16113281 43.79101562 22.16113281 C43.79101562 20.84113281 43.79101562 19.52113281 43.79101562 18.16113281 C50.72101562 18.16113281 57.65101563 18.16113281 64.79101562 18.16113281 C64.41895063 13.3151686 64.41895063 13.3151686 62.11425781 11.98095703 C61.34758789 11.71041504 60.58091797 11.43987305 59.79101562 11.16113281 C58.87223633 10.80937988 57.95345703 10.45762695 57.00683594 10.09521484 C44.62233134 6.25205566 32.39567079 6.77930216 19.54101562 7.03613281 C16.17753542 7.09147696 12.81422552 7.14077172 9.45050049 7.17849731 C7.37249991 7.20292394 5.29459076 7.23804583 3.21697998 7.28512573 C2.2846051 7.29818756 1.35223022 7.31124939 0.39160156 7.32470703 C-0.83626068 7.34946609 -0.83626068 7.34946609 -2.08892822 7.37472534 C-4.20898438 7.16113281 -4.20898438 7.16113281 -7.20898438 5.16113281 C-7.20898438 3.84113281 -7.20898438 2.52113281 -7.20898438 1.16113281 C-4.6621835 -0.11226762 -2.85138764 0.02027563 0 0 Z"/>
<path transform="translate(1059.125,443.6875)" fill="#0C1932" d="M0 0 C1.24523438 -0.04350586 1.24523438 -0.04350586 2.515625 -0.08789062 C8.49320571 -0.14879074 12.91894 0.88333631 17.875 4.3125 C25.60429881 11.98454475 30.79041479 23.3129184 36.28857422 32.63232422 C38.89759231 37.04011132 41.54531746 41.42454511 44.1875 45.8125 C47.33027804 51.04095802 50.45102858 56.27856827 53.5 61.5625 C55.38808056 64.82961979 57.32831352 68.05260659 59.34375 71.2421875 C59.78251465 71.93666992 60.2212793 72.63115234 60.67333984 73.34667969 C61.52327078 74.68617334 62.37738818 76.02302529 63.23681641 77.35644531 C65.44641433 80.83287938 67.42328829 84.33403041 69.234375 88.03515625 C72.19356541 94.07351984 75.58576273 99.83517238 79 105.625 C79.62003906 106.68267578 80.24007813 107.74035156 80.87890625 108.83007812 C82.53958301 111.66037132 84.2032722 114.48872107 85.875 117.3125 C86.31183105 118.20735107 86.74866211 119.10220215 87.19873047 120.02416992 C89.04940071 123.01334904 89.04940071 123.01334904 94.875 124.3125 C95.205 83.7225 95.535 43.1325 95.875 1.3125 C97.195 0.9825 98.515 0.6525 99.875 0.3125 C101.60161114 1.43170071 101.60161114 1.43170071 102.875 3.3125 C103.24973011 5.62822819 103.24973011 5.62822819 103.2492218 8.4052887 C103.25623611 9.45829163 103.26325043 10.51129456 103.27047729 11.59620667 C103.26283356 12.75112106 103.25518982 13.90603546 103.24731445 15.09594727 C103.25096512 16.31236908 103.25461578 17.52879089 103.25837708 18.78207397 C103.26510066 22.11890463 103.25836008 25.45517903 103.24504495 28.79195523 C103.23373695 32.28105802 103.23783738 35.77014624 103.23979187 39.25926208 C103.24067494 45.11779579 103.2295909 50.97621381 103.21118164 56.8347168 C103.1900039 63.61317555 103.18650613 70.39146493 103.1927436 77.16995007 C103.19843276 83.68559293 103.19279754 90.20117599 103.18157005 96.71681023 C103.17691911 99.49229981 103.17605233 102.26775289 103.1781559 105.04324532 C103.18038449 108.91504379 103.16594933 112.78668024 103.1496582 116.65844727 C103.15213562 117.81538589 103.15461304 118.97232452 103.15716553 120.1643219 C103.15008072 121.214505 103.14299591 122.26468811 103.13569641 123.34669495 C103.13261711 124.72077436 103.13261711 124.72077436 103.12947559 126.12261295 C102.875 128.3125 102.875 128.3125 100.875 130.3125 C99.04663086 130.55541992 99.04663086 130.55541992 96.83984375 130.54296875 C96.02966797 130.54103516 95.21949219 130.53910156 94.38476562 130.53710938 C93.53591797 130.52486328 92.68707031 130.51261719 91.8125 130.5 C90.99072266 130.49935547 90.16894531 130.49871094 89.32226562 130.49804688 C74.49584058 130.39306039 74.49584058 130.39306039 69.875 127.3125 C70.205 125.6625 70.535 124.0125 70.875 122.3125 C73.515 121.9825 76.155 121.6525 78.875 121.3125 C78.235625 120.178125 77.59625 119.04375 76.9375 117.875 C76.57785156 117.23691406 76.21820312 116.59882812 75.84765625 115.94140625 C74.9777487 114.33371854 74.9777487 114.33371854 73.875 113.3125 C71.3915743 113.06822862 68.90932707 112.92890241 66.41796875 112.7890625 C63.52056241 112.24607698 62.07426003 111.22980361 59.875 109.3125 C60.865 107.3325 60.865 107.3325 61.875 105.3125 C64.185 105.3125 66.495 105.3125 68.875 105.3125 C67.81624926 101.90937262 66.86597846 99.29896769 64.875 96.3125 C62.38416832 95.84004671 62.38416832 95.84004671 59.5625 95.8125 C55.22474469 95.54494816 52.37924299 95.0917272 48.875 92.3125 C49.37 90.3325 49.37 90.3325 49.875 88.3125 C53.505 88.3125 57.135 88.3125 60.875 88.3125 C60.09125 86.86875 59.3075 85.425 58.5 83.9375 C58.05914063 83.12539063 57.61828125 82.31328125 57.1640625 81.4765625 C55.9306107 79.20435698 55.9306107 79.20435698 53.875 77.3125 C50.59464075 76.96324342 47.33535542 76.8692393 44.0390625 76.75390625 C40.66620085 76.28337123 39.17830043 75.8030145 36.875 73.3125 C36.875 71.9925 36.875 70.6725 36.875 69.3125 C40.835 69.3125 44.795 69.3125 48.875 69.3125 C46.44096104 64.34795582 46.44096104 64.34795582 42.875 60.3125 C39.44645383 59.53502299 36.40791873 59.43418702 32.8984375 59.5078125 C29.53138354 59.29030255 28.30427576 58.575874 25.875 56.3125 C26.205 54.9925 26.535 53.6725 26.875 52.3125 C30.835 52.3125 34.795 52.3125 38.875 52.3125 C38.25625 51.03375 37.6375 49.755 37 48.4375 C36.65195313 47.71820313 36.30390625 46.99890625 35.9453125 46.2578125 C34.90942457 44.16114981 34.90942457 44.16114981 32.875 42.3125 C29.72532159 42.02113631 26.62089514 41.89754674 23.4609375 41.83398438 C20.36764707 41.70915671 18.13795839 41.4555925 15.3984375 39.96484375 C13.875 38.3125 13.875 38.3125 13.875 35.3125 C16.51958379 33.99020811 18.55261301 34.21572806 21.5 34.25 C23.00433594 34.26353516 23.00433594 34.26353516 24.5390625 34.27734375 C25.30992188 34.28894531 26.08078125 34.30054688 26.875 34.3125 C25.555 31.3425 24.235 28.3725 22.875 25.3125 C21.89104248 25.2623877 20.90708496 25.21227539 19.89331055 25.16064453 C16.24190398 24.97226319 12.59123781 24.77188101 8.94067383 24.56787109 C7.36077192 24.48126113 5.78068817 24.39790436 4.20043945 24.31787109 C1.92864182 24.20224709 -0.34224427 24.07492811 -2.61328125 23.9453125 C-3.31963211 23.91188751 -4.02598297 23.87846252 -4.7537384 23.84402466 C-8.35485706 23.62652382 -10.0497803 23.36264647 -13.125 21.3125 C-12.795 19.9925 -12.465 18.6725 -12.125 17.3125 C-2.225 17.3125 7.675 17.3125 17.875 17.3125 C14.6678208 11.88470724 14.6678208 11.88470724 9.875 8.3125 C7.03955692 7.78519439 4.25363383 7.75248587 1.375 7.75 C-3.9925458 7.7175537 -7.64423561 7.66418289 -12.125 4.3125 C-11.795 3.3225 -11.465 2.3325 -11.125 1.3125 C-7.668398 -0.415801 -3.80940765 0.04315794 0 0 Z"/>
<path transform="translate(550,443)" fill="#0E1A33" d="M0 0 C2.0625 0.1875 2.0625 0.1875 4 1 C4.98318237 3.94954711 5.12789517 5.85977656 5.13371277 8.9342041 C5.14011024 10.46105583 5.14011024 10.46105583 5.14663696 12.01875305 C5.14595718 13.69266365 5.14595718 13.69266365 5.14526367 15.40039062 C5.14862228 16.57619186 5.1519809 17.7519931 5.15544128 18.96342468 C5.16331961 22.18856227 5.16661917 25.41366124 5.16725707 28.6388073 C5.16820653 31.3302884 5.17188512 34.02176333 5.17542917 36.71324205 C5.18357154 43.06159815 5.18601354 49.40994006 5.18530273 55.75830078 C5.18470152 62.3106475 5.19526246 68.862912 5.2110464 75.4152379 C5.22411177 81.03908187 5.22948708 86.66289892 5.22884732 92.28675795 C5.2285921 95.64646768 5.23145671 99.00610431 5.24202538 102.36579895 C5.25177884 106.1104727 5.24896575 109.85493247 5.24291992 113.59960938 C5.24853943 114.71554977 5.25415894 115.83149017 5.25994873 116.98124695 C5.25575424 117.9991481 5.25155975 119.01704926 5.24723816 120.0657959 C5.24778293 120.95142967 5.24832769 121.83706345 5.24888897 122.74953461 C5 125 5 125 3 128 C-0.92296433 129.30765478 -3.86002433 129.1971417 -8 129 C-10 127 -10 127 -10.0625 125.0625 C-8.34960079 121.73746036 -5.37892353 121.22869946 -2 120 C-2 117.36 -2 114.72 -2 112 C-4.97 110.68 -7.94 109.36 -11 108 C-10.67 106.35 -10.34 104.7 -10 103 C-6.535 102.01 -6.535 102.01 -3 101 C-3 98.03 -3 95.06 -3 92 C-5.31 91.34 -7.62 90.68 -10 90 C-10.33 88.68 -10.66 87.36 -11 86 C-8.08235 84.0549 -6.37462715 83.54723683 -3 83 C-2.67 80.03 -2.34 77.06 -2 74 C-2.62600098 74.02505615 -3.25200195 74.0501123 -3.89697266 74.07592773 C-31.25441035 75.1403913 -58.62716605 75.53739047 -86 76 C-86.76077368 82.62938735 -87.15266673 89.16944856 -87.2109375 95.83984375 C-87.23895742 97.66211911 -87.26762138 99.48438466 -87.296875 101.30664062 C-87.33837464 104.13973207 -87.37532292 106.97262972 -87.40136719 109.8059082 C-87.42886309 112.56758739 -87.47466518 115.32846956 -87.5234375 118.08984375 C-87.52669037 118.9398143 -87.52994324 119.78978485 -87.53329468 120.66551208 C-87.65751348 126.57670352 -87.65751348 126.57670352 -89.39834595 128.72828674 C-92.29455485 131.0278765 -95.43622554 130.1752676 -99 130 C-99.495 127.525 -99.495 127.525 -100 125 C-97.525 124.01 -97.525 124.01 -95 123 C-94.51514465 117.80835118 -94.51514465 117.80835118 -96.1875 113.125 C-98.3728111 111.76860001 -100.57647695 110.8515081 -103 110 C-102.875 108.125 -102.875 108.125 -102 106 C-98.9375 104.75 -98.9375 104.75 -96 104 C-95.67 101.03 -95.34 98.06 -95 95 C-97.31 94.67 -99.62 94.34 -102 94 C-102.33 92.68 -102.66 91.36 -103 90 C-100.36 88.68 -97.72 87.36 -95 86 C-95 83.36 -95 80.72 -95 78 C-97.31 77.34 -99.62 76.68 -102 76 C-101.875 74.125 -101.875 74.125 -101 72 C-97.9375 70.75 -97.9375 70.75 -95 70 C-95 67.03 -95 64.06 -95 61 C-97.31 60.67 -99.62 60.34 -102 60 C-102.33 58.35 -102.66 56.7 -103 55 C-101.865625 54.525625 -100.73125 54.05125 -99.5625 53.5625 C-96.24259834 52.36377917 -96.24259834 52.36377917 -95 51 C-94.95936168 49.33382885 -94.957279 47.66611905 -95 46 C-98.465 44.02 -98.465 44.02 -102 42 C-102 41.01 -102 40.02 -102 39 C-100.02 38.34 -98.04 37.68 -96 37 C-95.505 32.545 -95.505 32.545 -95 28 C-97.64 27.34 -100.28 26.68 -103 26 C-102.67 24.68 -102.34 23.36 -102 22 C-99.69 21.34 -97.38 20.68 -95 20 C-94.67 16.37 -94.34 12.74 -94 9 C-96.31 8.67 -98.62 8.34 -101 8 C-101.625 6.125 -101.625 6.125 -102 4 C-100 2 -100 2 -97.94140625 1.734375 C-97.15636719 1.73953125 -96.37132812 1.7446875 -95.5625 1.75 C-94.38880859 1.74226563 -94.38880859 1.74226563 -93.19140625 1.734375 C-91 2 -91 2 -88 4 C-87.60800171 6.28141785 -87.60800171 6.28141785 -87.58349609 9.16479492 C-87.56692963 10.24319138 -87.55036316 11.32158783 -87.53329468 12.43266296 C-87.53004181 13.60343887 -87.52678894 14.77421478 -87.5234375 15.98046875 C-87.50785797 17.18181961 -87.49227844 18.38317047 -87.47622681 19.6209259 C-87.42855392 23.4764434 -87.40091758 27.33178 -87.375 31.1875 C-87.33844325 35.02523679 -87.29768742 38.86287275 -87.25234985 42.70051575 C-87.22526281 45.09115232 -87.2038517 47.48186165 -87.18881226 49.87260437 C-87.77414044 58.94323584 -87.77414044 58.94323584 -85 67 C-82.41360962 67.09507821 -79.8540144 67.12556376 -77.26733398 67.11352539 C-76.4576416 67.11367142 -75.64794922 67.11381744 -74.8137207 67.1139679 C-72.12448492 67.11326854 -69.43531751 67.1054751 -66.74609375 67.09765625 C-64.88664284 67.09579215 -63.02719144 67.09436821 -61.16773987 67.09336853 C-56.26370904 67.08954271 -51.35970764 67.07971188 -46.45568848 67.06866455 C-41.45548908 67.05845181 -36.45528494 67.05387121 -31.45507812 67.04882812 C-21.63670579 67.03808967 -11.81835534 67.02101248 -2 67 C-2.00444122 66.19011627 -2.00888245 65.38023254 -2.01345825 64.54580688 C-2.05348751 56.92347403 -2.08396015 49.30119194 -2.10362434 41.67878151 C-2.11407365 37.75976716 -2.12825362 33.84083947 -2.15087891 29.921875 C-2.17256661 26.14176961 -2.18455998 22.36174772 -2.18975449 18.58158493 C-2.19345759 17.13744161 -2.2006886 15.693303 -2.21146011 14.2491951 C-2.22592017 12.23079106 -2.22681645 10.21230348 -2.22705078 8.19384766 C-2.231492 7.04357086 -2.23593323 5.89329407 -2.24050903 4.7081604 C-2 2 -2 2 0 0 Z"/>
<path transform="translate(664.859375,445.07421875)" fill="#111D36" d="M0 0 C4.38408284 1.89603583 6.77650427 5.18906581 8.85058594 9.38549805 C9.37252971 10.70997431 9.87997287 12.04023005 10.375 13.375 C10.65424316 14.09625565 10.93348633 14.81751129 11.22119141 15.56062317 C12.12475838 17.90650767 13.00820569 20.25936908 13.890625 22.61328125 C14.51527938 24.25155814 15.14061105 25.88957694 15.76660156 27.52734375 C20.45131735 39.84308296 24.82192776 52.25341607 29.04882812 64.73339844 C31.02910914 70.52368345 33.08322154 76.28753246 35.140625 82.05078125 C35.5533667 83.20852051 35.9661084 84.36625977 36.39135742 85.55908203 C39.5992863 94.51310896 42.92451324 103.42077173 46.36132812 112.28955078 C48.09717204 116.83061402 49.61108903 121.05405034 50.140625 125.92578125 C47.14654677 127.6484016 44.96312907 128.19884148 41.515625 128.17578125 C40.73960937 128.1809375 39.96359375 128.18609375 39.1640625 128.19140625 C37.140625 127.92578125 37.140625 127.92578125 35.140625 125.92578125 C35.515625 123.80078125 35.515625 123.80078125 36.140625 121.92578125 C37.790625 121.59578125 39.440625 121.26578125 41.140625 120.92578125 C40.14411513 117.6805682 39.06768178 114.736516 37.140625 111.92578125 C34.35195826 110.86763102 32.18285749 110.97484952 29.140625 110.92578125 C28.480625 110.26578125 27.820625 109.60578125 27.140625 108.92578125 C27.515625 106.80078125 27.515625 106.80078125 28.140625 104.92578125 C30.120625 104.59578125 32.100625 104.26578125 34.140625 103.92578125 C33.61794034 101.16301948 33.03192913 98.59969365 32.140625 95.92578125 C7.060625 95.59578125 -18.019375 95.26578125 -43.859375 94.92578125 C-44.859375 90.92578125 -44.859375 90.92578125 -43.83903503 89.20280457 C-40.94100131 87.33336407 -38.61779052 87.52467392 -35.18481445 87.4934082 C-34.17466278 87.47812073 -34.17466278 87.47812073 -33.144104 87.46252441 C-30.92020393 87.43235219 -28.69673426 87.4231225 -26.47265625 87.4140625 C-24.92993229 87.39721886 -23.38722208 87.37906904 -21.8445282 87.35966492 C-17.78559669 87.31212421 -13.72672091 87.28234142 -9.66760254 87.25622559 C-5.52503448 87.22644043 -1.38265857 87.17990314 2.75976562 87.13476562 C10.88662444 87.04868629 19.01350066 86.98136185 27.140625 86.92578125 C27.20277693 83.71607812 27.22486828 81.19656322 26.265625 78.11328125 C23.29454533 75.05481689 20.75501454 75.32418833 16.61328125 75.26171875 C13.63050729 74.85647616 12.27026159 74.03071208 10.140625 71.92578125 C10.140625 70.93578125 10.140625 69.94578125 10.140625 68.92578125 C13.56994571 67.21112089 17.35778565 67.87174069 21.140625 67.92578125 C20.150625 64.95578125 19.160625 61.98578125 18.140625 58.92578125 C17.45355469 58.87679687 16.76648438 58.8278125 16.05859375 58.77734375 C15.15753906 58.70257813 14.25648438 58.6278125 13.328125 58.55078125 C12.43480469 58.48117187 11.54148437 58.4115625 10.62109375 58.33984375 C8.140625 57.92578125 8.140625 57.92578125 5.140625 55.92578125 C5.140625 54.60578125 5.140625 53.28578125 5.140625 51.92578125 C8.110625 51.26578125 11.080625 50.60578125 14.140625 49.92578125 C13.55887655 44.61709635 13.55887655 44.61709635 11.140625 39.92578125 C8.31931107 39.41575451 8.31931107 39.41575451 5.140625 39.36328125 C-0.6516153 39.13354095 -0.6516153 39.13354095 -2.859375 36.92578125 C-2.32366071 33.39006696 -2.32366071 33.39006696 -0.859375 31.92578125 C1.79525621 31.47118267 4.46251638 31.22334887 7.140625 30.92578125 C6.86521796 27.10764678 6.86521796 27.10764678 5.140625 23.92578125 C2.36504077 23.64099003 -0.41065345 23.47735106 -3.1953125 23.3046875 C-5.859375 22.92578125 -5.859375 22.92578125 -8.859375 20.92578125 C-7.984375 17.05078125 -7.984375 17.05078125 -6.859375 15.92578125 C-5.17328534 15.85372614 -3.48436841 15.84192057 -1.796875 15.86328125 C-0.87777344 15.87230469 0.04132812 15.88132812 0.98828125 15.890625 C1.69855469 15.90222656 2.40882813 15.91382813 3.140625 15.92578125 C1.11429431 11.60206232 1.11429431 11.60206232 -1.859375 7.92578125 C-4.58407286 7.45918394 -7.24117302 7.08978871 -9.984375 6.80078125 C-10.73847656 6.71441406 -11.49257813 6.62804687 -12.26953125 6.5390625 C-14.13194627 6.32688864 -15.99556431 6.12532362 -17.859375 5.92578125 C-18.189375 4.27578125 -18.519375 2.62578125 -18.859375 0.92578125 C-13.22269357 -2.83200637 -6.39705001 -1.1727925 0 0 Z"/>
<path transform="translate(901.8125,444.75)" fill="#0F1B34" d="M0 0 C0.87269531 -0.02578125 1.74539063 -0.0515625 2.64453125 -0.078125 C5.8619266 0.33702279 6.95696038 0.87472114 9.1875 3.25 C9.58787552 6.12303579 9.73122623 8.61874458 9.70166016 11.49414062 C9.71234779 12.75576523 9.71234779 12.75576523 9.72325134 14.0428772 C9.74258819 16.83090467 9.73423796 19.61817728 9.7265625 22.40625 C9.73646975 24.34860338 9.7484111 26.29094736 9.76229858 28.23327637 C9.79473319 33.35831671 9.80505667 38.48314351 9.80914307 43.60827637 C9.81787742 51.78267426 9.8536793 59.95689557 9.9013176 68.13114929 C9.91381706 70.9753997 9.913151 73.81942421 9.91104126 76.66369629 C9.82642799 96.52038215 9.82642799 96.52038215 19.19921875 113.48046875 C27.10461389 121.05474787 34.91969113 122.64584953 45.625 122.8125 C47.39471951 122.84685113 49.16430483 122.88940756 50.93359375 122.94140625 C51.70372803 122.95373291 52.4738623 122.96605957 53.26733398 122.97875977 C55.1875 123.25 55.1875 123.25 57.1875 125.25 C57 127.25 57 127.25 56.1875 129.25 C52.53853173 131.68264552 50.17304563 131.3818211 46 131.0625 C45.27474121 131.01279053 44.54948242 130.96308105 43.80224609 130.91186523 C36.95354141 130.39526342 30.13148638 129.625736 23.3125 128.8125 C22.2603833 128.69044189 21.2082666 128.56838379 20.12426758 128.44262695 C19.1370874 128.31847412 18.14990723 128.19432129 17.1328125 128.06640625 C16.25125488 127.95756104 15.36969727 127.84871582 14.46142578 127.73657227 C12.1875 127.25 12.1875 127.25 9.1875 125.25 C9.5175 123.93 9.8475 122.61 10.1875 121.25 C11.5075 121.25 12.8275 121.25 14.1875 121.25 C13.56875 120.198125 12.95 119.14625 12.3125 118.0625 C10.67170892 115.19984323 9.31765547 112.35792754 8.1875 109.25 C7.50042969 109.27320313 6.81335938 109.29640625 6.10546875 109.3203125 C5.20441406 109.33835937 4.30335938 109.35640625 3.375 109.375 C2.48167969 109.39820313 1.58835937 109.42140625 0.66796875 109.4453125 C-1.8125 109.25 -1.8125 109.25 -4.8125 107.25 C-4.75 105.4375 -4.75 105.4375 -3.8125 103.25 C-0.25 101.5 -0.25 101.5 3.1875 100.25 C3.40540719 97.366025 3.40540719 97.366025 2.1875 94.25 C-0.6578913 92.47834127 -3.64964265 91.33623384 -6.8125 90.25 C-6.8125 88.93 -6.8125 87.61 -6.8125 86.25 C-4.1725 85.26 -1.5325 84.27 1.1875 83.25 C1.1875 80.61 1.1875 77.97 1.1875 75.25 C-1.1225 74.92 -3.4325 74.59 -5.8125 74.25 C-6.4375 72.375 -6.4375 72.375 -6.8125 70.25 C-4.34971199 67.78721199 -2.10573018 67.25228745 1.1875 66.25 C1.1875 64.27 1.1875 62.29 1.1875 60.25 C-0.5140625 59.63125 -0.5140625 59.63125 -2.25 59 C-3.425625 58.4225 -4.60125 57.845 -5.8125 57.25 C-6.1425 55.93 -6.4725 54.61 -6.8125 53.25 C-4.1725 52.26 -1.5325 51.27 1.1875 50.25 C1.1875 47.94 1.1875 45.63 1.1875 43.25 C-1.4525 41.93 -4.0925 40.61 -6.8125 39.25 C-4.8125 35.25 -4.8125 35.25 -2.1875 34 C-1.40375 33.7525 -0.62 33.505 0.1875 33.25 C0.5175 30.61 0.8475 27.97 1.1875 25.25 C-1.1225 24.26 -3.4325 23.27 -5.8125 22.25 C-5.4825 20.6 -5.1525 18.95 -4.8125 17.25 C-2.8325 16.59 -0.8525 15.93 1.1875 15.25 C1.1875 12.28 1.1875 9.31 1.1875 6.25 C0.23875 6.270625 -0.71 6.29125 -1.6875 6.3125 C-4.8125 6.25 -4.8125 6.25 -6.8125 5.25 C-5.70641104 0.35160603 -5.03439381 0.08845201 0 0 Z"/>
<path transform="translate(988,445)" fill="#0B1730" d="M0 0 C1.60332791 -0.08121924 3.20784026 -0.13929134 4.8125 -0.1875 C6.15248047 -0.23970703 6.15248047 -0.23970703 7.51953125 -0.29296875 C10.5156145 0.06089935 11.15256458 0.68184772 13 3 C13.30685176 5.94899639 13.43027654 8.68840945 13.41992188 11.63964844 C13.42839142 12.52307419 13.43686096 13.40649994 13.44558716 14.31669617 C13.46904626 17.24773454 13.46997619 20.17824965 13.46875 23.109375 C13.47585326 25.15423796 13.4835525 27.19909894 13.49182129 29.24395752 C13.50529159 33.54143798 13.50682657 37.83873477 13.50097656 42.13623047 C13.49512013 47.60663896 13.52549078 53.07614772 13.56609344 58.5463829 C13.59214563 62.77787914 13.59483129 67.00916492 13.59120178 71.24073029 C13.59288102 73.25468429 13.60240654 75.2686493 13.62034607 77.28252411 C13.74837103 93.45111224 12.42016136 109.28211974 0.49609375 121.546875 C-3.89106617 125.44148172 -7.98273365 127.90239034 -13.875 128.1875 C-14.90625 128.125625 -15.9375 128.06375 -17 128 C-17.6875 126.1875 -17.6875 126.1875 -18 124 C-15.9040013 121.36134791 -13.72574276 120.3208496 -10.625 119.125 C-5.94740978 117.14426147 -2.33332024 114.66664049 0 110 C-1.65 109.67 -3.3 109.34 -5 109 C-5.625 107.125 -5.625 107.125 -6 105 C-4 103 -4 103 -2.0546875 102.8046875 C0.97265625 102.90234375 0.97265625 102.90234375 4 103 C4.33 99.7 4.66 96.4 5 93 C3.5459375 92.62875 3.5459375 92.62875 2.0625 92.25 C1.051875 91.8375 0.04125 91.425 -1 91 C-1.875 88.875 -1.875 88.875 -2 87 C1.22791555 84.8480563 2.28400809 84.79913557 6 85 C6.02257545 80.87775943 6.02257545 80.87775943 5 77 C2.53249582 75.10111729 -0.06977646 74.01456487 -3 73 C-2.67 71.68 -2.34 70.36 -2 69 C1.465 68.01 1.465 68.01 5 67 C5 64.69 5 62.38 5 60 C3.02 59.01 1.04 58.02 -1 57 C-0.8125 54.625 -0.8125 54.625 0 52 C2.5625 50.6875 2.5625 50.6875 5 50 C5 47.36 5 44.72 5 42 C3.02 41.01 1.04 40.02 -1 39 C-1 37.68 -1 36.36 -1 35 C0.98 34.34 2.96 33.68 5 33 C5 30.03 5 27.06 5 24 C4.030625 23.7525 3.06125 23.505 2.0625 23.25 C1.051875 22.8375 0.04125 22.425 -1 22 C-1.875 19.875 -1.875 19.875 -2 18 C0.31 17.01 2.62 16.02 5 15 C5 12.36 5 9.72 5 7 C3.02 6.01 1.04 5.02 -1 4 C-0.67 2.68 -0.34 1.36 0 0 Z"/>
<path transform="translate(358,460)" fill="#0D1932" d="M0 0 C1.9375 0.25 1.9375 0.25 4 1 C6.0734776 4.11021641 6.25199626 4.79223147 6.26742554 8.3200531 C6.27595551 9.20188263 6.28448547 10.08371216 6.29327393 10.99226379 C6.29191437 12.4394001 6.29191437 12.4394001 6.29052734 13.91577148 C6.30060318 15.44297821 6.30060318 15.44297821 6.31088257 17.0010376 C6.32991669 20.37443897 6.33378939 23.74764199 6.3359375 27.12109375 C6.3423612 29.46135033 6.34908923 31.80160609 6.35610962 34.14186096 C6.36809562 39.05040347 6.37178903 43.95887553 6.37060547 48.86743164 C6.3704021 55.16381054 6.39771694 61.45973896 6.43214989 67.75601101 C6.45436231 72.59009383 6.45844476 77.42406723 6.45738602 82.25819588 C6.45975003 84.57988095 6.46861824 86.90156868 6.48405075 89.22320366 C6.50359767 92.46740362 6.49791691 95.71061892 6.48583984 98.95483398 C6.49707886 99.91756729 6.50831787 100.8803006 6.51989746 101.87220764 C6.45825072 108.37308957 6.45825072 108.37308957 4.12197876 111.56922913 C1.5925288 113.27474258 0.06184406 113.92532088 -3 114 C-5.8125 112.75 -5.8125 112.75 -8 111 C-8 110.01 -8 109.02 -8 108 C-4.535 107.01 -4.535 107.01 -1 106 C-1 103.36 -1 100.72 -1 98 C-3.31 97.01 -5.62 96.02 -8 95 C-7.875 93.125 -7.875 93.125 -7 91 C-3.9375 89.75 -3.9375 89.75 -1 89 C-1 86.69 -1 84.38 -1 82 C-2.98 81.01 -4.96 80.02 -7 79 C-7 77.68 -7 76.36 -7 75 C-4.525 74.01 -4.525 74.01 -2 73 C-1.67 70.36 -1.34 67.72 -1 65 C-3.31 64.34 -5.62 63.68 -8 63 C-7.8125 61.125 -7.8125 61.125 -7 59 C-4.4375 57.75 -4.4375 57.75 -2 57 C-1.67 54.36 -1.34 51.72 -1 49 C-2.65 48.34 -4.3 47.68 -6 47 C-5.67 45.35 -5.34 43.7 -5 42 C-3.02 41.505 -3.02 41.505 -1 41 C-1.08378906 39.95585937 -1.16757812 38.91171875 -1.25390625 37.8359375 C-1.90268716 28.83073406 -2.03860959 19.95996044 -1.625 10.9375 C-1.58189697 9.96796387 -1.53879395 8.99842773 -1.49438477 7.99951172 C-1.13418607 1.13418607 -1.13418607 1.13418607 0 0 Z"/>
<path transform="translate(805.5625,474.75)" fill="#091731" d="M0 0 C4.84954531 1.76347102 7.41389656 3.6969465 10.25 8 C12.00582003 12.80540217 12.46574016 16.69539444 10.55859375 21.43359375 C8.20188267 25.67256252 6.17436082 27.86467837 1.51293945 29.6940918 C-2.43452071 30.75142232 -6.37967957 30.59927389 -10.4375 30.5 C-11.736875 30.49226563 -11.736875 30.49226563 -13.0625 30.484375 C-19.40768849 30.40481151 -19.40768849 30.40481151 -20.5625 29.25 C-20.65025605 27.10441173 -20.66945219 24.95595579 -20.66015625 22.80859375 C-20.65693359 21.50341797 -20.65371094 20.19824219 -20.65039062 18.85351562 C-20.64203401 17.4648431 -20.63356905 16.07617123 -20.625 14.6875 C-20.61998666 13.29492344 -20.61542347 11.90234519 -20.61132812 10.50976562 C-20.59949434 7.0898013 -20.5830088 3.66992156 -20.5625 0.25 C-15.05198687 -2.50525657 -5.92758269 -1.28563694 0 0 Z"/>
<path transform="translate(1060,496)" fill="#0D1932" d="M0 0 C1.87334884 1.87334884 1.16704035 5.05311399 1.19287109 7.55175781 C1.20104858 8.23637589 1.20922607 8.92099396 1.21765137 9.62635803 C1.24255133 11.90193802 1.25903509 14.17745533 1.2734375 16.453125 C1.27876118 17.2292791 1.28408485 18.0054332 1.28956985 18.80510712 C1.31632455 22.91514601 1.33568982 27.02515433 1.35009766 31.13525391 C1.3667295 35.3803282 1.41148723 39.62462367 1.4624691 43.86940384 C1.49614067 47.13282149 1.50767506 50.39605456 1.51332474 53.65962982 C1.5200402 55.2241484 1.53527019 56.78865471 1.55921555 58.35300446 C1.59086422 60.54619981 1.59090562 62.73729998 1.58349609 64.93066406 C1.59562637 66.80144623 1.59562637 66.80144623 1.60800171 68.71002197 C0.83115826 72.9136251 -0.67546491 74.39616885 -4 77 C-7.1875 77.4375 -7.1875 77.4375 -10 77 C-10.66 76.34 -11.32 75.68 -12 75 C-12 73.68 -12 72.36 -12 71 C-10.02 70.01 -8.04 69.02 -6 68 C-6 65.03 -6 62.06 -6 59 C-6.969375 58.7525 -7.93875 58.505 -8.9375 58.25 C-12 57 -12 57 -13 55 C-13 53 -13 53 -11 51 C-8.375 50.375 -8.375 50.375 -6 50 C-6 47.69 -6 45.38 -6 43 C-9.465 41.515 -9.465 41.515 -13 40 C-11.125 36.125 -11.125 36.125 -10 35 C-8.35 35 -6.7 35 -5 35 C-5 31.7 -5 28.4 -5 25 C-5.94875 24.855625 -6.8975 24.71125 -7.875 24.5625 C-11 24 -11 24 -13 23 C-12.67 21.35 -12.34 19.7 -12 18 C-10.02 17.34 -8.04 16.68 -6 16 C-5.67 13.36 -5.34 10.72 -5 8 C-5.78375 8.04125 -6.5675 8.0825 -7.375 8.125 C-10 8 -10 8 -12 6 C-11.625 3.375 -11.625 3.375 -11 1 C-7.11651516 -0.29449495 -4.09302664 -0.13203312 0 0 Z"/>
<path transform="translate(359.0662536621094,442.951416015625)" fill="#0D1830" d="M0 0 C0.97288971 -0.009104 1.94577942 -0.01820801 2.94815063 -0.02758789 C3.81232101 -0.03721558 4.67649139 -0.04684326 5.56684875 -0.0567627 C7.93374634 0.04858398 7.93374634 0.04858398 10.18284607 0.61584473 C11.0495417 0.83005066 11.0495417 0.83005066 11.93374634 1.04858398 C12.26374634 0.71858398 12.59374634 0.38858398 12.93374634 0.04858398 C17.03068741 -0.19340466 21.13103066 -0.17992611 25.23452759 -0.19165039 C27.29353407 -0.20134439 29.35153741 -0.23234884 31.41030884 -0.26391602 C32.70452759 -0.26907227 33.99874634 -0.27422852 35.33218384 -0.27954102 C36.52505005 -0.28888672 37.71791626 -0.29823242 38.94692993 -0.30786133 C41.93374634 0.04858398 41.93374634 0.04858398 43.90884399 1.3190918 C44.93374634 3.04858398 44.93374634 3.04858398 44.49780273 5.15667725 C44.31166412 5.78100647 44.12552551 6.40533569 43.93374634 7.04858398 C43.11133453 7.04636337 42.28892273 7.04414276 41.44158936 7.04185486 C33.70152058 7.02184061 25.9614643 7.00660404 18.22137642 6.99677181 C14.24186222 6.9915471 10.26236935 6.98445688 6.28286743 6.97314453 C2.4444139 6.96230108 -1.39401907 6.95630404 -5.23248672 6.95370674 C-6.69894866 6.95185513 -8.16540943 6.94823955 -9.63186264 6.94285393 C-11.68146979 6.93562415 -13.73099134 6.93459386 -15.78060913 6.93505859 C-16.94865082 6.93283798 -18.1166925 6.93061737 -19.32012939 6.92832947 C-22.02881449 6.86000799 -22.02881449 6.86000799 -24.06625366 8.04858398 C-27.97769086 8.29192413 -31.89809906 8.23378998 -35.81625366 8.23608398 C-36.90164429 8.24833008 -37.98703491 8.26057617 -39.10531616 8.27319336 C-49.68261521 8.29258938 -49.68261521 8.29258938 -54.06625366 6.04858398 C-54.39625366 5.05858398 -54.72625366 4.06858398 -55.06625366 3.04858398 C-54.73625366 2.38858398 -54.40625366 1.72858398 -54.06625366 1.04858398 C-47.00451692 0.90461452 -39.9427465 0.76239149 -32.88095093 0.62133789 C-30.48250548 0.57323015 -28.08406778 0.52473408 -25.68563843 0.47583008 C-22.22268649 0.4052898 -18.75970835 0.3361823 -15.29672241 0.26733398 C-13.70853951 0.23452332 -13.70853951 0.23452332 -12.08827209 0.2010498 C-8.05900107 0.12198015 -4.0295289 0.06384683 0 0 Z"/>
<path transform="translate(462,506)" fill="#05102A" d="M0 0 C0.33083084 0.64874084 0.66166168 1.29748169 1.0025177 1.96588135 C3.47746536 4.48622268 5.19410235 4.49288597 8.64054871 4.56114197 C9.78853691 4.55359642 9.78853691 4.55359642 10.9597168 4.54589844 C11.76970123 4.55623611 12.57968567 4.56657379 13.41421509 4.57722473 C16.09275063 4.60673369 18.77053319 4.60815358 21.44921875 4.609375 C23.3058263 4.62435122 25.16242049 4.64107719 27.01899719 4.65948486 C31.9065511 4.70323338 36.7939253 4.72317404 41.68164062 4.73822021 C46.66872824 4.75776432 51.65562098 4.7997373 56.64257812 4.83984375 C66.42832542 4.91522706 76.21402927 4.9654693 86 5 C85.01 5.33 84.02 5.66 83 6 C83 6.66 83 7.32 83 8 C83.99 8.99 83.99 8.99 85 10 C81.14508738 11.25140936 77.29923711 11.13340609 73.29394531 11.11352539 C72.52282913 11.11367142 71.75171295 11.11381744 70.95722961 11.1139679 C68.4141659 11.11327249 65.87117588 11.10549749 63.328125 11.09765625 C61.56264282 11.09579075 59.79716013 11.09436747 58.03167725 11.09336853 C53.38908454 11.08955375 48.7465232 11.07973232 44.10394287 11.06866455 C39.36487248 11.0584281 34.62579701 11.05386612 29.88671875 11.04882812 C20.59113206 11.03810913 11.29556864 11.02104517 2 11 C2 10.67 2 10.34 2 10 C6.62 9.67 11.24 9.34 16 9 C15.67 8.34 15.34 7.68 15 7 C12.01962537 6.60661452 12.01962537 6.60661452 8.5625 6.5 C2.22158439 6.22158439 2.22158439 6.22158439 0 4 C0 2.68 0 1.36 0 0 Z"/>
<path transform="translate(645,467)" fill="#0E1A32" d="M0 0 C2.125 0.375 2.125 0.375 4 1 C3.60475575 7.90727772 2.35177919 13.76581261 -0.1875 20.1875 C-0.49921143 21.00484619 -0.81092285 21.82219238 -1.13208008 22.66430664 C-3.55608352 28.984931 -6.10112076 35.25795871 -8.64453125 41.53125 C-10.63378014 46.62189268 -12.35083405 51.79057581 -14 57 C-15.65614657 57.38218767 -17.32457024 57.71395102 -19 58 C-20 57 -20 57 -20.24511719 53.9777832 C-19.95734272 49.30775386 -18.74423708 45.68806288 -17.078125 41.35546875 C-16.77686707 40.54564041 -16.47560913 39.73581207 -16.16522217 38.90144348 C-15.20410807 36.3259992 -14.22724117 33.75686211 -13.25 31.1875 C-12.60835392 29.47368924 -11.96771946 27.75949936 -11.328125 26.04492188 C-9.57396289 21.35481232 -7.79149648 16.67595096 -6 12 C-5.57912109 10.89221191 -5.15824219 9.78442383 -4.72460938 8.64306641 C-4.37720703 7.7463623 -4.02980469 6.8496582 -3.671875 5.92578125 C-3.38924805 5.19399658 -3.10662109 4.46221191 -2.81542969 3.70825195 C-2 2 -2 2 0 0 Z"/>
<path transform="translate(653,495)" fill="#0B1832" d="M0 0 C2.33203125 0.1796875 2.33203125 0.1796875 5 1 C6.51171875 3.2578125 6.51171875 3.2578125 7.6875 6.125 C8.09613281 7.12015625 8.50476563 8.1153125 8.92578125 9.140625 C9.28027344 10.08421875 9.63476562 11.0278125 10 12 C10.39251953 13.04414063 10.39251953 13.04414063 10.79296875 14.109375 C11.9691295 17.67732572 12.41188167 20.47029581 11 24 C7.55912297 26.3650897 4.39631679 26.23780457 0.3125 26.1875 C-1.42580078 26.17783203 -1.42580078 26.17783203 -3.19921875 26.16796875 C-6 26 -6 26 -7 25 C-7.41947475 18.91428694 -6.50216753 14.66310112 -4.0625 9.125 C-3.64581055 8.13113281 -3.64581055 8.13113281 -3.22070312 7.1171875 C-2.20681712 4.71317827 -1.16699942 2.33399883 0 0 Z"/>
<path transform="translate(772,529)" fill="#0A152E" d="M0 0 C0.33 0 0.66 0 1 0 C1.07410115 5.78406969 1.12857885 11.56786371 1.16479492 17.35229492 C1.17989082 19.32044283 1.20036948 21.28855706 1.22631836 23.2565918 C1.26266649 26.08390612 1.27971814 28.9107761 1.29296875 31.73828125 C1.30845261 32.61962234 1.32393646 33.50096344 1.33988953 34.40901184 C1.34022942 35.6399482 1.34022942 35.6399482 1.34057617 36.89575195 C1.34723801 37.61745071 1.35389984 38.33914948 1.36076355 39.0827179 C0.88588504 41.60646528 0.02854875 42.46150057 -2 44 C-8.33333333 45.33333333 -8.33333333 45.33333333 -11 44 C-11 42.35 -11 40.7 -11 39 C-9.35 38.34 -7.7 37.68 -6 37 C-5.67 34.36 -5.34 31.72 -5 29 C-7.31 28.01 -9.62 27.02 -12 26 C-11.875 23.6875 -11.875 23.6875 -11 21 C-10.01 20.54625 -9.02 20.0925 -8 19.625 C-7.01 19.08875 -6.02 18.5525 -5 18 C-4.02126462 14.40614946 -4.02126462 14.40614946 -4 11 C-3.34 11 -2.68 11 -2 11 C-0.85185003 8.70370006 -0.69230191 6.92301914 -0.4375 4.375 C-0.35371094 3.55773437 -0.26992188 2.74046875 -0.18359375 1.8984375 C-0.12300781 1.27195312 -0.06242188 0.64546875 0 0 Z"/>
<path transform="translate(1055,522)" fill="#132038" d="M0 0 C0.33 0 0.66 0 1 0 C1.33 2.64 1.66 5.28 2 8 C2.99 7.67 3.98 7.34 5 7 C5 15.91 5 24.82 5 34 C3.68 33.67 2.36 33.34 1 33 C1 35.31 1 37.62 1 40 C0.67 40 0.34 40 0 40 C-0.33 37.69 -0.66 35.38 -1 33 C-1.969375 32.7525 -2.93875 32.505 -3.9375 32.25 C-7 31 -7 31 -8 29 C-8 27 -8 27 -6 25 C-3.375 24.375 -3.375 24.375 -1 24 C-1 21.69 -1 19.38 -1 17 C-3.31 16.01 -5.62 15.02 -8 14 C-6.125 10.125 -6.125 10.125 -5 9 C-3.33382885 8.95936168 -1.66611905 8.957279 0 9 C0 6.03 0 3.06 0 0 Z"/>
<path transform="translate(624.6322326660156,533.7594909667969)" fill="#030C25" d="M0 0 C1.11474701 0.00444122 2.22949402 0.00888245 3.37802124 0.01345825 C5.26975571 0.01368484 5.26975571 0.01368484 7.19970703 0.01391602 C8.58124956 0.02413006 9.96279048 0.03456206 11.34432983 0.04519653 C12.7539449 0.04892615 14.16356256 0.05177337 15.57318115 0.05377197 C19.28536116 0.06141248 22.99738494 0.08106442 26.70950317 0.10317993 C30.4966114 0.12362945 34.28374483 0.13277177 38.07089233 0.14285278 C45.50325526 0.16431004 52.93548942 0.19845087 60.36776733 0.24050903 C60.36776733 0.57050903 60.36776733 0.90050903 60.36776733 1.24050903 C46.50776733 1.57050903 32.64776733 1.90050903 18.36776733 2.24050903 C18.36776733 2.57050903 18.36776733 2.90050903 18.36776733 3.24050903 C26.28776733 3.57050903 34.20776733 3.90050903 42.36776733 4.24050903 C42.36776733 4.57050903 42.36776733 4.90050903 42.36776733 5.24050903 C11.25375239 6.43439306 11.25375239 6.43439306 -3.63223267 6.24050903 C-4.25723267 4.36550903 -4.25723267 4.36550903 -4.63223267 2.24050903 C-2.63223267 0.24050903 -2.63223267 0.24050903 0 0 Z"/>
<path transform="translate(1060,508)" fill="#08132A" d="M0 0 C0.33 0 0.66 0 1 0 C1.11598804 7.73648105 1.20476267 15.47287165 1.25906086 23.21002483 C1.28512544 26.8030086 1.32046329 30.39539636 1.37719727 33.98803711 C1.43163335 37.45698186 1.46144416 40.92535439 1.47438622 44.39469337 C1.48808449 46.35851051 1.52710018 48.32209825 1.56648254 50.28556824 C1.56960729 60.22162801 1.56960729 60.22162801 -1.33129883 63.32348633 C-4.53318938 65.33495668 -6.2844799 65.57796979 -10 65 C-10.66 64.34 -11.32 63.68 -12 63 C-12 61.68 -12 60.36 -12 59 C-11.05125 58.690625 -10.1025 58.38125 -9.125 58.0625 C-5.60238644 55.73757505 -5.46162802 55.22496633 -4.625 51.3125 C-4.39177118 49.87882872 -4.17532514 48.4418981 -4 47 C-2.68 47.33 -1.36 47.66 0 48 C0 32.16 0 16.32 0 0 Z"/>
<path transform="translate(617.625,548.875)" fill="#101B33" d="M0 0 C0.78375 0.04125 1.5675 0.0825 2.375 0.125 C2.05315391 9.13669038 -1.30788383 16.85756978 -4.625 25.125 C-6.275 25.125 -7.925 25.125 -9.625 25.125 C-11.43911115 19.95530755 -9.55091474 15.85450601 -7.8125 10.9375 C-7.53857422 10.11830078 -7.26464844 9.29910156 -6.98242188 8.45507812 C-4.14835345 0.19754064 -4.14835345 0.19754064 0 0 Z"/>
<path transform="translate(1047,461)" fill="#07122A" d="M0 0 C21.00917431 -0.19877676 21.00917431 -0.19877676 30 1 C29.01 1.99 28.02 2.98 27 4 C29.97 4.495 29.97 4.495 33 5 C33 5.33 33 5.66 33 6 C28.64007129 6.04945386 24.28029138 6.08574488 19.92016602 6.10986328 C18.43706417 6.11991821 16.95398212 6.13356404 15.47094727 6.15087891 C13.33865469 6.17515006 11.20662431 6.18648799 9.07421875 6.1953125 C7.14968872 6.21102295 7.14968872 6.21102295 5.1862793 6.22705078 C2 6 2 6 -1 4 C-0.67 2.68 -0.34 1.36 0 0 Z"/>
<path transform="translate(372,443)" fill="#1B253C" d="M0 0 C4.07502794 -0.07420211 8.14979392 -0.1286257 12.2253418 -0.16479492 C13.61147919 -0.17987397 14.99756894 -0.2003405 16.38354492 -0.22631836 C18.37658146 -0.26273716 20.36996723 -0.27813018 22.36328125 -0.29296875 C23.56251221 -0.3086792 24.76174316 -0.32438965 25.99731445 -0.34057617 C29 0 29 0 30.93432617 1.3815918 C32 3 32 3 31.6875 5.1875 C31.3471875 6.0846875 31.3471875 6.0846875 31 7 C24.49566739 7.37524996 24.49566739 7.37524996 22.06347656 5.53393555 C19.64556354 3.73652103 18.20919144 3.51743262 15.234375 3.26953125 C14.34492188 3.18896484 13.45546875 3.10839844 12.5390625 3.02539062 C11.15847656 2.92000977 11.15847656 2.92000977 9.75 2.8125 C8.81414062 2.73064453 7.87828125 2.64878906 6.9140625 2.56445312 C4.61010353 2.36461995 2.30581384 2.1769061 0 2 C0 1.34 0 0.68 0 0 Z"/>
<path transform="translate(323,444)" fill="#061029" d="M0 0 C4.62644904 -0.04950925 9.25274318 -0.08577116 13.87939453 -0.10986328 C15.45266405 -0.11990887 17.02591496 -0.13354781 18.59912109 -0.15087891 C20.86300252 -0.17519096 23.12663666 -0.18649747 25.390625 -0.1953125 C26.09181458 -0.20563507 26.79300415 -0.21595764 27.51544189 -0.22659302 C31.18563476 -0.22743257 33.88089213 -0.02112595 37 2 C36.01 2 35.02 2 34 2 C34.495 3.485 34.495 3.485 35 5 C31.57767028 6.14077657 28.91326783 6.09815117 25.3125 6.0625 C23.54326172 6.04896484 23.54326172 6.04896484 21.73828125 6.03515625 C20.83464844 6.02355469 19.93101562 6.01195312 19 6 C19 5.01 19 4.02 19 3 C15.70039859 1.3501993 12.00872116 1.61741639 8.375 1.4375 C7.57320313 1.39431641 6.77140625 1.35113281 5.9453125 1.30664062 C3.9637489 1.20048543 1.98189729 1.09973145 0 1 C0 0.67 0 0.34 0 0 Z"/>
<path transform="translate(661.5625,444.5)" fill="#19233A" d="M0 0 C1.2065625 0.2475 1.2065625 0.2475 2.4375 0.5 C0.4575 1.49 0.4575 1.49 -1.5625 2.5 C-1.5625 3.16 -1.5625 3.82 -1.5625 4.5 C-0.9025 4.83 -0.2425 5.16 0.4375 5.5 C0.4375 6.16 0.4375 6.82 0.4375 7.5 C-4.5125 7.17 -9.4625 6.84 -14.5625 6.5 C-14.8925 4.85 -15.2225 3.2 -15.5625 1.5 C-10.72657087 -1.72395275 -5.60533751 -0.78671404 0 0 Z"/>
<path transform="translate(1055,477)" fill="#192339" d="M0 0 C2.375 1.5 2.375 1.5 4 3 C3.125 6.875 3.125 6.875 2 8 C0.0390625 8.16796875 0.0390625 8.16796875 -2.375 8.1875 C-3.16648437 8.20167969 -3.95796875 8.21585937 -4.7734375 8.23046875 C-7 8 -7 8 -10 6 C-9.6875 4.125 -9.6875 4.125 -9 2 C-5.51131349 -0.32579101 -4.10281481 -0.41865457 0 0 Z"/>
<path transform="translate(359,563)" fill="#101C34" d="M0 0 C0.33 0.66 0.66 1.32 1 2 C1.66 2 2.32 2 3 2 C3 4.31 3 6.62 3 9 C0.34271875 10.73745313 -0.89600355 11.00831972 -4.125 10.75 C-7 10 -7 10 -9 8 C-9 7.01 -9 6.02 -9 5 C-7.865625 4.71125 -6.73125 4.4225 -5.5625 4.125 C-4.386875 3.75375 -3.21125 3.3825 -2 3 C-1.67 2.34 -1.34 1.68 -1 1 C-0.67 0.67 -0.34 0.34 0 0 Z"/>
<path transform="translate(356,443)" fill="#18243C" d="M0 0 C1.79133978 -0.05391993 3.58313899 -0.09275571 5.375 -0.125 C6.37273437 -0.14820313 7.37046875 -0.17140625 8.3984375 -0.1953125 C11 0 11 0 13 2 C13 3.33333333 13 4.66666667 13 6 C8.38 6.33 3.76 6.66 -1 7 C-0.34 5.68 0.32 4.36 1 3 C0.67 2.01 0.34 1.02 0 0 Z"/>
<path transform="translate(377.6875,444.9375)" fill="#081632" d="M0 0 C1.17949219 0.19464844 2.35898437 0.38929688 3.57421875 0.58984375 C4.92966797 0.82380859 4.92966797 0.82380859 6.3125 1.0625 C5.9825 2.0525 5.6525 3.0425 5.3125 4.0625 C3.02108714 4.11634521 0.72931812 4.15522087 -1.5625 4.1875 C-3.47675781 4.22230469 -3.47675781 4.22230469 -5.4296875 4.2578125 C-8.6875 4.0625 -8.6875 4.0625 -10.6875 2.0625 C-8.47862762 -2.35524475 -4.0832087 -0.68727275 0 0 Z"/>
<path transform="translate(942,569)" fill="#07122A" d="M0 0 C5.28 0 10.56 0 16 0 C16.33 1.32 16.66 2.64 17 4 C13.64672361 6.23551759 13.09256343 6.17283528 9.3125 5.625 C8.10013672 5.45871094 8.10013672 5.45871094 6.86328125 5.2890625 C5.94095703 5.14597656 5.94095703 5.14597656 5 5 C4.67 4.01 4.34 3.02 4 2 C2.68 1.34 1.36 0.68 0 0 Z"/>
<path transform="translate(1073,479)" fill="#09142B" d="M0 0 C5.75 0.75 5.75 0.75 8 3 C10.32275177 3.40047444 12.65739357 3.7397104 15 4 C15 4.33 15 4.66 15 5 C12.87527424 5.05386629 10.75016348 5.09273071 8.625 5.125 C6.84996094 5.15980469 6.84996094 5.15980469 5.0390625 5.1953125 C2 5 2 5 0 3 C0 2.01 0 1.02 0 0 Z"/>
<path transform="translate(1096,514)" fill="#06122B" d="M0 0 C2.64 0.33 5.28 0.66 8 1 C8 1.66 8 2.32 8 3 C9.65 3.33 11.3 3.66 13 4 C13 4.33 13 4.66 13 5 C11.20866022 5.05391993 9.41686101 5.09275571 7.625 5.125 C6.62726563 5.14820313 5.62953125 5.17140625 4.6015625 5.1953125 C2 5 2 5 0 3 C0 2.01 0 1.02 0 0 Z"/>
<path transform="translate(622,534)" fill="#0E1934" d="M0 0 C2.75589777 0.01747927 5.38786676 0.13863271 8.125 0.375 C8.87910156 0.43171875 9.63320313 0.4884375 10.41015625 0.546875 C12.27418096 0.6884465 14.13721137 0.84299959 16 1 C16 1.33 16 1.66 16 2 C15.02417969 2.03738281 14.04835938 2.07476563 13.04296875 2.11328125 C11.13451172 2.21189453 11.13451172 2.21189453 9.1875 2.3125 C7.29064453 2.39951172 7.29064453 2.39951172 5.35546875 2.48828125 C2.03396307 2.7113494 2.03396307 2.7113494 0.05078125 4.54296875 C-0.29597656 5.02378906 -0.64273438 5.50460937 -1 6 C-1.625 4.125 -1.625 4.125 -2 2 C-1.34 1.34 -0.68 0.68 0 0 Z"/>
<path transform="translate(358,490)" fill="#080F25" d="M0 0 C0.33 0 0.66 0 1 0 C1.22151549 1.79008467 1.42682213 3.58218162 1.625 5.375 C1.74101562 6.37273437 1.85703125 7.37046875 1.9765625 8.3984375 C1.98429687 9.25695312 1.99203125 10.11546875 2 11 C-0.19191368 13.19191368 -1.11477408 13.27869352 -4 14 C-4.66 14.66 -5.32 15.32 -6 16 C-5.75 14.125 -5.75 14.125 -5 12 C-4.01 11.5978125 -4.01 11.5978125 -3 11.1875 C-0.74358016 10.16629701 -0.74358016 10.16629701 -0.390625 7.6171875 C-0.34421875 6.71226562 -0.2978125 5.80734375 -0.25 4.875 C-0.19328125 3.96492188 -0.1365625 3.05484375 -0.078125 2.1171875 C-0.05234375 1.41851562 -0.0265625 0.71984375 0 0 Z"/>
<path transform="translate(846,522)" fill="#151F37" d="M0 0 C0.99 0.33 1.98 0.66 3 1 C0.69 3.31 -1.62 5.62 -4 8 C-4.33 7.01 -4.66 6.02 -5 5 C-3.35 3.35 -1.7 1.7 0 0 Z"/>
<path transform="translate(1049,532)" fill="#0A132C" d="M0 0 C1.65 0 3.3 0 5 0 C4.67 1.65 4.34 3.3 4 5 C1.03 4.505 1.03 4.505 -2 4 C-1.34 2.68 -0.68 1.36 0 0 Z"/>
<path transform="translate(456,452)" fill="#030921" d="M0 0 C0.33 0 0.66 0 1 0 C1.08133791 1.91595968 1.13934367 3.83291932 1.1875 5.75 C1.22230469 6.81734375 1.25710938 7.8846875 1.29296875 8.984375 C0.97082786 12.30027855 0.22851086 13.59016673 -2 16 C-3.32 15.34 -4.64 14.68 -6 14 C-3 12 -3 12 -1 11 C-0.5316735 8.41394668 -0.5316735 8.41394668 -0.375 5.4375 C-0.30023438 4.42558594 -0.22546875 3.41367187 -0.1484375 2.37109375 C-0.09945313 1.58863281 -0.05046875 0.80617188 0 0 Z"/>
<path transform="translate(987,531)" fill="#161F36" d="M0 0 C1.67542976 0.28604898 3.34385343 0.61781233 5 1 C4.01 1.66 3.02 2.32 2 3 C2.99 3.33 3.98 3.66 5 4 C5 4.66 5 5.32 5 6 C3.35 5.67 1.7 5.34 0 5 C-0.5625 3.0625 -0.5625 3.0625 -1 1 C-0.67 0.67 -0.34 0.34 0 0 Z"/>
<path transform="translate(670,497)" fill="#09122A" d="M0 0 C1.98 0 3.96 0 6 0 C5.67 1.65 5.34 3.3 5 5 C3.35 4.67 1.7 4.34 0 4 C0 2.68 0 1.36 0 0 Z"/>
<path transform="translate(609,568)" fill="#0A162E" d="M0 0 C0.99 0 1.98 0 3 0 C3.33 1.98 3.66 3.96 4 6 C2.68 6 1.36 6 0 6 C0 4.02 0 2.04 0 0 Z"/>
<path transform="translate(1073,512)" fill="#293144" d="M0 0 C0.66 0 1.32 0 2 0 C2 0.66 2 1.32 2 2 C2.99 2.33 3.98 2.66 5 3 C6.1875 5.0625 6.1875 5.0625 7 7 C6.01 7.495 6.01 7.495 5 8 C5 7.34 5 6.68 5 6 C4.01 6 3.02 6 2 6 C1.34 4.02 0.68 2.04 0 0 Z"/>
<path transform="translate(635,490)" fill="#1F283D" d="M0 0 C0.33 0 0.66 0 1 0 C1.25 6.625 1.25 6.625 -1 10 C-1.66 10 -2.32 10 -3 10 C-2.01 6.7 -1.02 3.4 0 0 Z"/>
<path transform="translate(448,465)" fill="#1C263D" d="M0 0 C1.65 0.33 3.3 0.66 5 1 C4.67 1.99 4.34 2.98 4 4 C3.01 4.33 2.02 4.66 1 5 C0.34 4.67 -0.32 4.34 -1 4 C-0.67 2.68 -0.34 1.36 0 0 Z"/>
<path transform="translate(768,557)" fill="#050D25" d="M0 0 C0.33 0 0.66 0 1 0 C1.96891192 5.37305699 1.96891192 5.37305699 2 8 C0.5625 10 0.5625 10 -1 11 C-1.66 10.67 -2.32 10.34 -3 10 C-2.690625 9.46375 -2.38125 8.9275 -2.0625 8.375 C-0.82172561 5.6015043 -0.4090325 2.99957163 0 0 Z"/>
<path transform="translate(351,551)" fill="#1F293D" d="M0 0 C1.65 0.33 3.3 0.66 5 1 C4.01 2.32 3.02 3.64 2 5 C1.01 4.67 0.02 4.34 -1 4 C-0.67 2.68 -0.34 1.36 0 0 Z"/>
</svg>